<?xml version="1.0" encoding="UTF-8" standalone="no"?>
<svg
   xmlns:dc="http://purl.org/dc/elements/1.1/"
   xmlns:cc="http://creativecommons.org/ns#"
   xmlns:rdf="http://www.w3.org/1999/02/22-rdf-syntax-ns#"
   xmlns:svg="http://www.w3.org/2000/svg"
   xmlns="http://www.w3.org/2000/svg"
   xmlns:sodipodi="http://sodipodi.sourceforge.net/DTD/sodipodi-0.dtd"
   xmlns:inkscape="http://www.inkscape.org/namespaces/inkscape"
   width="600"
   height="300"
   viewBox="0 0 158.75 79.375002"
   version="1.1"
   id="svg1586"
   inkscape:version="1.0.1 (3bc2e813f5, 2020-09-07)"
   sodipodi:docname="qgis_world_fond.svg">
  <defs
     id="defs1580" />
  <sodipodi:namedview
     id="base"
     pagecolor="#ffffff"
     bordercolor="#666666"
     borderopacity="1.0"
     inkscape:pageopacity="0.0"
     inkscape:pageshadow="2"
     inkscape:zoom="0.49497475"
     inkscape:cx="349.96341"
     inkscape:cy="266.59864"
     inkscape:document-units="mm"
     inkscape:current-layer="layer1"
     inkscape:document-rotation="0"
     showgrid="false"
     units="px"
     inkscape:window-width="1920"
     inkscape:window-height="1001"
     inkscape:window-x="-9"
     inkscape:window-y="-9"
     inkscape:window-maximized="1" />
  <metadata
     id="metadata1583">
    <rdf:RDF>
      <cc:Work
         rdf:about="">
        <dc:format>image/svg+xml</dc:format>
        <dc:type
           rdf:resource="http://purl.org/dc/dcmitype/StillImage" />
        <dc:title></dc:title>
      </cc:Work>
    </rdf:RDF>
  </metadata>
  <g
     inkscape:label="Calque 1"
     inkscape:groupmode="layer"
     id="layer1">
    <g
       font-size="32.5px"
       fill="#004170"
       stroke-linejoin="bevel"
       stroke-linecap="square"
       font-family="'MS Shell Dlg 2'"
       stroke="#232323"
       fill-opacity="1"
       stroke-opacity="0"
       font-weight="400"
       font-style="normal"
       stroke-width="3.07087"
       transform="matrix(0.04095207,0,0,0.04095207,9.1205625,-6.2177713)"
       id="g264"
       style="fill:#1c64a3;fill-opacity:1;stroke:none;stroke-opacity:1"
       inkscape:export-filename="C:\Users\maria\Documents\2_TRAVAIL\0_ALTERNANCE\MAHA\6_DeveloppementWeb\landing_page\images\worldmap.png"
       inkscape:export-xdpi="96"
       inkscape:export-ydpi="96">
      <path
         fill-rule="evenodd"
         d="m 1001.42,2003.87 16.23,7.17 13.93,2.98 0.54,5.93 -7.47,0.59 -7.38,-4.18 0.83,4.79 -4.3,3.67 -10.02,-1.33 -8.817,-3.56 -10.089,-1.71 -15.814,-6.64 -13.721,-6.42 -22.357,-13.48 9.076,2.54 18.253,8.04 14.598,4.3 0.208,-5.5 -3.345,-8.24 4.357,-5 7.186,1.43 h 0.002 l 7.311,5.6 10.792,9.02"
         vector-effect="none"
         id="path58"
         style="fill:#1c64a3;fill-opacity:1;stroke:none;stroke-opacity:1" />
      <path
         fill-rule="evenodd"
         d="m 1059.59,1970.53 10.24,5.51 -0.14,4.27 -9.62,3.65 -6.51,-4.26 -4.06,5.47 -7.76,-5.47 6.11,-7.33 9.31,3.06 2.43,-4.9"
         vector-effect="none"
         id="path60"
         style="fill:#1c64a3;fill-opacity:1;stroke:none;stroke-opacity:1" />
      <path
         fill-rule="evenodd"
         d="m 2211.54,1953.39 -14.36,0.81 4.04,-6.61 4.61,-5.14 2.23,-2.56 3.39,3.93 7.59,1.56 -1.23,2.37 -6.27,5.64"
         vector-effect="none"
         id="path62"
         style="fill:#1c64a3;fill-opacity:1;stroke:none;stroke-opacity:1" />
      <path
         fill-rule="evenodd"
         d="m 3025.41,1839.4 4.86,4.53 7.31,-1.8 10.43,-2.52 5.03,0.88 -16.12,15.54 -8.35,4.49 -12.78,10.45 0.63,-3.55 -17.03,9.02 -1.2,-0.69 -5.5,-0.4 6.45,-11.1 8.04,-8.6 6.41,-11.39 6.51,-6.02 5.31,1.16"
         vector-effect="none"
         id="path64"
         style="fill:#1c64a3;fill-opacity:1;stroke:none;stroke-opacity:1" />
      <path
         fill-rule="evenodd"
         d="m 3298.36,1841.06 -4.52,5.42 13.73,-5.32 -4.1,5.54 -7.02,5.51 -11.47,6.05 -18.99,9.58 -11.92,5.21 -4.83,6.22 -7.67,0.16 -14.86,4.86 -14.17,8.4 -23.66,12.93 -15.57,5.69 -9.94,3.62 -8.23,-0.27 -0.07,-4.19 -8.95,-0.89 4.98,-4.67 18.19,-9.48 29.18,-12.67 9.46,-2.43 13.48,-4.91 17.25,-6.78 14.62,-6.74 16.79,-9.72 7.92,-3.31 10.59,-7.32 14.46,-6.08 -4.68,5.59"
         vector-effect="none"
         id="path66"
         style="fill:#1c64a3;fill-opacity:1;stroke:none;stroke-opacity:1" />
      <path
         fill-rule="evenodd"
         d="m 3387.63,1777.71 -7.95,14.14 10.3,-9.17 0.65,3.67 -9.77,10.13 3.28,4.35 5.67,1.07 11.7,-5.09 3.42,1.54 -16.3,11.83 -12.34,7.75 -7.39,-0.27 -7.55,4.03 -6,5.69 -4.5,2.45 -12.6,7.1 -16.31,8.99 -14.34,5.22 2.71,-3.43 -1.73,-1.89 19.27,-10.8 5.62,-7.26 -4.46,-5.29 5.97,-4.8 12.75,-4.63 13.54,-10.25 9.27,-8.64 5.73,-8.98 2.85,-2.37 1.01,-5.55 4.3,-11.94 5.34,-9.59 4.96,-1.07 -1.91,7.53 4.52,3.51 -9.71,12.02"
         vector-effect="none"
         id="path68"
         style="fill:#1c64a3;fill-opacity:1;stroke:none;stroke-opacity:1" />
      <path
         fill-rule="evenodd"
         d="m 3464.21,1583.83 -6.29,3.4 -3.96,-3.83 -4.42,-6.39 -3.1,-7.53 -2.11,-10.03 0.96,-4.83 4.79,0.2 3.82,4.85 2.41,4.84 1.45,3.98 4.35,8.81 2.1,6.53"
         vector-effect="none"
         id="path70"
         style="fill:#1c64a3;fill-opacity:1;stroke:none;stroke-opacity:1" />
      <path
         fill-rule="evenodd"
         d="m 3629.25,1515.07 1.95,4.13 -5.63,7.49 -8.11,1.96 -5.42,-1.77 2.02,-6.3 6.83,-4.92 4.37,1.77 3.99,-2.36"
         vector-effect="none"
         id="path72"
         style="fill:#1c64a3;fill-opacity:1;stroke:none;stroke-opacity:1" />
      <path
         fill-rule="evenodd"
         d="m 3513.71,1502.52 -4.62,1.89 -1.19,-6.29 2.03,-3.86 3.78,8.26"
         vector-effect="none"
         id="path74"
         style="fill:#1c64a3;fill-opacity:1;stroke:none;stroke-opacity:1" />
      <path
         fill-rule="evenodd"
         d="m 3514.18,1480.47 -2.74,11.61 -2.37,-1.81 -2.72,0.78 -0.06,-3.97 4.04,-11.04 3.85,4.43"
         vector-effect="none"
         id="path76"
         style="fill:#1c64a3;fill-opacity:1;stroke:none;stroke-opacity:1" />
      <path
         fill-rule="evenodd"
         d="m 2160.06,1460.59 -0.04,17.36 2.22,6.74 -1.99,6.9 -2.57,4.23 -2.9,-8.43 -2.68,4.26 0.88,10.65 -1.81,6.09 -3.62,3.32 -2.36,12.15 -6.89,16.67 -8.61,19.66 -11.38,26.92 -7.75,19.67 -8.05,16.34 -9.68,3.33 -10.81,5.94 -5.74,-3.59 -7.93,-5.02 -1.79,-7.43 1.35,-12.51 -2.15,-11.27 0.53,-10.2 3.55,-10.23 5.58,-2.46 0.71,-4.74 6.97,-10.8 2.28,-9.08 -1.75,-6.77 -1.01,-9.02 0.71,-13.2 4.96,-8.03 2.59,-9.11 5.81,-0.53 6.78,-2.95 4.57,-2.6 5.1,-0.19 7.51,-8.21 10.5,-8.87 4.26,-7.26 -0.95,-6.17 4.76,1.73 7.42,-10.04 1.06,-8.69 4.46,-6.48 3.49,6.22 2.5,6.15 1.91,9.55"
         vector-effect="none"
         id="path78"
         style="fill:#1c64a3;fill-opacity:1;stroke:none;stroke-opacity:1" />
      <path
         fill-rule="evenodd"
         d="m 3246.73,1463.59 0.62,11.32 9.19,-5.44 1.87,6.11 3.7,5.63 -3.38,6.38 -1.95,12.34 -0.94,7.17 2.24,1.75 -1.72,12.26 -4.16,7.43 -0.42,9.7 9.07,7.46 4.96,6.78 4.71,6.21 -3.14,3.45 2.1,8.92 -3.51,15.36 6.15,-3.12 1.31,6.14 3.92,-2.18 -6.29,15 2.99,8.67 2.03,5.38 1.81,11.39 -3.98,11.28 -4.9,7.98 -6.51,8.65 -2.9,11.85 -9.39,12.3 -6.57,6.42 -12.16,12.34 -5.87,7.9 -9.9,9.86 -14.82,12.47 -13.43,6.72 -12.78,10.56 -9.3,6.72 -13.4,11.7 -10.08,6.73 -11.87,10.08 -10,9.25 -3.52,4.23 -10.34,4.64 -11.92,0.49 -14.69,5.47 -9.69,5.16 -11.73,5.7 -2.66,-5.87 -3.96,-2.35 8.18,-6.95 -7.96,2.53 -18.09,9.64 -5.34,-3.61 -3.78,-2.11 -4.93,-0.95 -6.3,-3.85 0.85,-8.24 7.07,-10.18 3.46,-6.79 -0.47,-5.47 -8.65,-1.62 8.83,-6.56 5.59,-10.06 -12.66,9.38 -11.32,2.48 11.51,-7.49 7.81,-7.83 9.26,-6.66 6.87,-10.1 -17.48,11.63 -10.19,4.65 -12.52,10.79 -3.79,-5.58 5.91,-7.21 0.86,-9.88 -1.82,-5.11 4.3,-3.16 -7.75,-8.3 -7.24,-0.39 -5.68,-6.68 -20.07,1.3 -17.19,4.91 -15.25,4.58 -9.57,-0.91 -16.03,7.02 -11.36,3.15 -6.95,7.15 -7.75,5.54 -9.18,0.33 -7.46,1.21 -7.61,-2.48 -8.6,1.48 -7.66,0.63 -11.22,7.24 -2.64,-0.61 -7.91,3.83 -8.02,4.3 -7.26,-0.53 h -7 l -5.26,-8.66 -3.95,-2.58 5.31,-7.79 6.45,-1.86 3.79,-3.1 2.75,-4.91 7.24,-9.51 3.77,-8.13 2.53,-13.92 2.73,-7.88 4.87,-7.88 0.59,-9.03 1.9,-4.08 -1.93,-5.54 4.22,-10.92 -0.83,-11.06 1.33,-5.98 1.95,6.06 2.45,-13 3.59,4.07 0.68,5.42 3.25,-7.18 -0.38,-11.06 0.93,-4.43 -0.71,-4.21 4.77,-8.16 3.78,-3.47 4.51,-7.07 2.2,-8.28 8.73,-10.2 -3.47,10.8 8.69,-9.76 11.05,-4.75 7.88,-6.06 10.67,-5.22 5.59,-1.11 2.45,1.75 10.98,-5.3 7.5,-1.58 2.9,-3.13 3.5,-1.3 6.17,0.34 13.55,-4.18 8.54,-6.34 5.68,-7.64 9.27,-7.26 2.48,-5.72 2.91,-7.79 11.98,-12.2 0.85,12.39 5.84,-2.86 -1.9,-6.79 5.81,-6.97 4.12,3.12 4.77,-10.95 8.43,-7.08 4.43,-5.69 6.53,-2.46 1.31,-4.03 4.63,1.68 1.21,-3.62 5.67,-2.07 6.15,-1.95 6.75,6.63 3.97,8.54 7.22,0.1 6.97,1.35 -0.12,-7.92 8.81,-11.57 6.27,-3.78 -0.85,-3.61 7.19,-8.26 8.33,-5.1 5.55,1.72 10.48,-2.73 1.58,-7.4 -7.45,-4.77 6.7,-2.11 6.92,3.59 4.8,5.95 8.93,3.7 3.7,-1.46 6.11,4.45 7.87,-4.15 4.07,1.26 3.43,-2.78 3.53,7.16 -5.16,7.74 -6.04,5.84 -4.13,0.49 -0.29,5.77 -5.53,7.21 -6.28,7.09 -0.44,4.07 6.65,7.96 7.36,4.61 4.26,4.95 5.32,8.52 3.25,-0.02 4.68,3.68 0.1,4.43 9.11,4.86 9.47,-4.9 5.15,-7.7 4.66,-6.37 4.22,-7.88 7.4,-11.46 0.66,-6.97 2.16,-4.2 1.18,-8.26 4.7,-10.88 3.06,-2.94 -0.49,-4.83 4.85,-7.68 4.24,-7.96 1.31,-4.13 5.64,-5.43 1.6,7.09 -1.48,9.09 2.45,1.75 -1.12,6.08 2.19,7.36 -1.5,8.18 -1.99,5.25"
         vector-effect="none"
         id="path80"
         style="fill:#1c64a3;fill-opacity:1;stroke:none;stroke-opacity:1" />
      <path
         fill-rule="evenodd"
         d="m 3476.83,1416.1 1.95,4.98 -8.15,-0.09 -2.13,-8.93 6.1,3.51 2.23,0.53"
         vector-effect="none"
         id="path82"
         style="fill:#1c64a3;fill-opacity:1;stroke:none;stroke-opacity:1" />
      <path
         fill-rule="evenodd"
         d="m 2992.52,1412.57 -4.98,0.27 -13.71,-10.17 11.44,-2.85 5.39,4.42 3.3,4.41 -1.44,3.92"
         vector-effect="none"
         id="path84"
         style="fill:#1c64a3;fill-opacity:1;stroke:none;stroke-opacity:1" />
      <path
         fill-rule="evenodd"
         d="m 3464.21,1407.25 -4.65,0.32 -6.83,-1.47 -1.93,-2.24 2.08,-5.76 7.22,2.28 3.11,3.05 1,3.82"
         vector-effect="none"
         id="path86"
         style="fill:#1c64a3;fill-opacity:1;stroke:none;stroke-opacity:1" />
      <path
         fill-rule="evenodd"
         d="m 3474.88,1403.28 -2.41,2.68 -5.79,-12.59 -0.61,-8.69 h 4 l 1.73,11.63 3.08,6.97"
         vector-effect="none"
         id="path88"
         style="fill:#1c64a3;fill-opacity:1;stroke:none;stroke-opacity:1" />
      <path
         fill-rule="evenodd"
         d="m 3036.41,1411.12 -10.66,3.2 -1.06,-1.75 1.99,-4.93 6.66,-8.86 12.61,-5.77 1.96,-3.43 10.66,-3.27 8.28,-0.49 3.97,-1.82 4.16,1.8 -4.98,3.94 -13.34,6.37 -10.57,4.17 -9.68,10.84"
         vector-effect="none"
         id="path90"
         style="fill:#1c64a3;fill-opacity:1;stroke:none;stroke-opacity:1" />
      <path
         fill-rule="evenodd"
         d="m 2964.69,1381.42 3.66,3.88 7.45,-1.19 1.96,6.18 -14.05,2.92 -8.46,1.95 -6.29,-0.12 5.35,-8.37 6.46,-0.11 3.92,-5.14"
         vector-effect="none"
         id="path92"
         style="fill:#1c64a3;fill-opacity:1;stroke:none;stroke-opacity:1" />
      <path
         fill-rule="evenodd"
         d="m 3023.55,1381.4 -3,8.08 -18.33,4.12 -15.33,-1.79 0.8,-5.31 9.8,-3.03 6.69,4.36 8,-1.11 11.37,-5.32"
         vector-effect="none"
         id="path94"
         style="fill:#1c64a3;fill-opacity:1;stroke:none;stroke-opacity:1" />
      <path
         fill-rule="evenodd"
         d="m 3457.73,1384.93 -0.1,2.92 -7.97,-6.16 -5.43,-5.23 -3.52,-4.85 2.01,-1.48 4.79,3.49 8.38,6.7 1.84,4.61"
         vector-effect="none"
         id="path96"
         style="fill:#1c64a3;fill-opacity:1;stroke:none;stroke-opacity:1" />
      <path
         fill-rule="evenodd"
         d="m 3432.98,1370.54 -2.49,0.82 -4.57,-3.31 -3.84,-5.99 0.99,-2.42 6.04,6.15 3.87,4.75"
         vector-effect="none"
         id="path98"
         style="fill:#1c64a3;fill-opacity:1;stroke:none;stroke-opacity:1" />
      <path
         fill-rule="evenodd"
         d="m 2857.94,1362.23 22.41,1.46 3.27,-6.01 21.07,7.01 3.1,9.43 17.3,2.65 13.2,8.65 -14.25,5.54 -12.05,-5.86 -10.7,0.4 -12.04,-1.08 -10.65,-2.61 -12.89,-5.56 -8.45,-1.44 -5.13,1.82 -20.72,-5.99 -1.32,-6.26 -10.66,-1.07 9.52,-13.92 14.23,0.86 8.94,5.69 4.78,1.11 1.04,5.18"
         vector-effect="none"
         id="path100"
         style="fill:#1c64a3;fill-opacity:1;stroke:none;stroke-opacity:1" />
      <path
         fill-rule="evenodd"
         d="m 3166.63,1354.03 -7.4,9.92 0.32,-10.97 2.73,-5.24 3.04,-4.92 2.19,4.26 -0.88,6.95"
         vector-effect="none"
         id="path102"
         style="fill:#1c64a3;fill-opacity:1;stroke:none;stroke-opacity:1" />
      <path
         fill-rule="evenodd"
         d="m 3414.75,1362.85 -3.54,1.46 -4.21,-5.6 -3.8,-9.25 -1.09,-11.1 1.8,-1.41 0.74,4.34 3.15,3.3 4.43,9.24 4.81,4.94 -2.29,4.08"
         vector-effect="none"
         id="path104"
         style="fill:#1c64a3;fill-opacity:1;stroke:none;stroke-opacity:1" />
      <path
         fill-rule="evenodd"
         d="m 3371.61,1343.3 -6.33,1.2 -2.4,4.09 -6.94,3.54 -6.54,3.41 -6.26,-0.02 -9.07,-4.23 -6.2,-4.07 1.55,-4.51 10.32,2.13 6.6,-1.14 2.62,-6.99 1.73,-0.36 0.22,7.74 6.87,-1.11 3.94,-4.99 7.18,-5.2 -0.41,-8.6 7.1,-0.27 2.16,2.39 -1.1,8.09 -5.04,8.9"
         vector-effect="none"
         id="path106"
         style="fill:#1c64a3;fill-opacity:1;stroke:none;stroke-opacity:1" />
      <path
         fill-rule="evenodd"
         d="m 3082.25,1313.85 -4.77,4.85 -7.97,-2.68 -1.9,-6.28 12.01,-0.7 2.63,4.81"
         vector-effect="none"
         id="path108"
         style="fill:#1c64a3;fill-opacity:1;stroke:none;stroke-opacity:1" />
      <path
         fill-rule="evenodd"
         d="m 3120.69,1308.52 3.52,11.16 -9.54,-6.01 -9.79,-1.22 -6.74,0.96 -8.15,-0.51 3.29,-8.03 14.65,-0.6 12.76,4.25"
         vector-effect="none"
         id="path110"
         style="fill:#1c64a3;fill-opacity:1;stroke:none;stroke-opacity:1" />
      <path
         fill-rule="evenodd"
         d="m 3386.93,1329.04 -4.11,3.88 -1.33,-8.61 -2.23,-5.63 -4.95,-4.78 -6.26,-6.23 -8.26,-4.29 3.5,-3.52 6.14,4.08 3.81,3.21 4.71,3.51 4.24,6.12 4.07,4.67 0.67,7.59"
         vector-effect="none"
         id="path112"
         style="fill:#1c64a3;fill-opacity:1;stroke:none;stroke-opacity:1" />
      <path
         fill-rule="evenodd"
         d="m 3165.34,1280.18 2.36,23.61 11.69,8.73 10.79,-15.48 13.94,-8.81 10.52,-0.01 9.92,5.09 8.53,5.22 12.55,2.79 19.87,10.05 21.21,8.35 7.46,7.48 5.82,7.33 0.81,8.59 18.49,9 1.76,7.73 -11.08,1.57 1.06,9.7 8.85,9.55 4.62,15.42 6.83,-0.49 -1.84,6.44 8.52,2.47 -4.14,2.74 11.04,6.1 -2.31,4.2 -8.01,1.01 -1.97,-3.76 -9.68,-1.63 -11.33,-2.19 -7.06,-9.26 -5.01,-7.99 -3.68,-12.72 -14.24,-6.37 -10.68,4.15 -8.03,4.81 -0.53,10.72 -10.23,4.99 -6.09,-2.43 -12.02,-0.6 -8.23,-11.93 -11.43,-2.93 -3.62,4.15 -14.98,0.44 6.99,-11.84 8.05,-4.04 -0.8,-15.83 -4.16,-12.24 -21.61,-12.34 -9.63,-1.22 -16.64,-13.48 -4.03,7.09 -4.64,1.28 -2.26,-5.35 0.41,-6.34 -8.59,-7.16 13.02,-5.26 8.42,0.28 -0.8,-3.87 -17.32,-0.03 -4.35,-8.69 -10.49,-2.7 -4.84,-7.22 16.01,-3.54 6.12,-4.76 18.93,6 1.76,5.43"
         vector-effect="none"
         id="path114"
         style="fill:#1c64a3;fill-opacity:1;stroke:none;stroke-opacity:1" />
      <path
         fill-rule="evenodd"
         d="m 3059.89,1242.62 -9.26,14.49 -8.88,2.81 -11.4,-2.86 -19.72,0.73 -10.33,2.1 -1.71,11.05 10.36,12.99 6.54,-6.62 22.14,-4.96 -1.08,6.72 -5.12,-2.12 -5.33,8.55 -10.6,5.66 10.31,18.71 -2.47,5.01 9.33,16.84 -1.01,9.58 -6.74,4.28 -4.1,-5.13 6.79,-11.93 -12.08,5.64 -2.59,-4.03 1.99,-5.64 -7.9,-8.55 1.69,-14.22 -8.11,4.44 -0.1,17.01 -1.36,20.86 -7.71,2.12 -4.63,-4.28 4.59,-13.42 -0.81,-14.08 -4.97,-0.11 -3.1,-10 5.32,-9.55 2.05,-11.6 6.19,-22.01 2.44,-6.02 9.87,-10.84 9.34,4.31 14.96,2.03 13.6,-0.62 11.44,-10.6 2.16,3.26"
         vector-effect="none"
         id="path116"
         style="fill:#1c64a3;fill-opacity:1;stroke:none;stroke-opacity:1" />
      <path
         fill-rule="evenodd"
         d="m 3100.79,1246.82 -0.44,12.76 -6.12,-1.43 -1.79,8.89 4.8,7.71 -3.34,1.75 -4.67,-9.25 -3.65,-18.67 2.05,-11.66 3.72,-5.31 1.15,7.97 7.03,1.28 1.26,5.96"
         vector-effect="none"
         id="path118"
         style="fill:#1c64a3;fill-opacity:1;stroke:none;stroke-opacity:1" />
      <path
         fill-rule="evenodd"
         d="m 2826.25,1348.75 -13.09,0.31 -8.88,-12.19 -14.3,-11.91 -4.52,-8.84 -8.36,-11.89 -5.46,-10.94 -8.58,-20.44 -10.35,-12.17 -3.6,-12.55 -4.6,-11.4 -10.97,-9.19 -6.71,-12.49 -9.33,-8.17 -13.37,-16.07 -1.6,-7.42 7.65,0.58 18.49,2.82 11.46,14.26 9.73,9.89 6.83,6.07 11.83,15.69 12.04,0.23 10.21,10 7.04,12.23 9.04,6.67 -4.8,11.92 6.72,5.07 4.24,0.38 1.77,10.18 3.86,8.15 8.63,1.29 5.35,9.24 -4.05,18.14 -2.32,22.55"
         vector-effect="none"
         id="path120"
         style="fill:#1c64a3;fill-opacity:1;stroke:none;stroke-opacity:1" />
      <path
         fill-rule="evenodd"
         d="m 2972.56,1236.67 13.6,13.51 -14,1.72 -3.87,9.96 0.43,13.23 -11.58,9.99 -0.82,14.54 -5.85,22.31 -1.39,-5.19 -13.87,6.57 -4.09,-8.92 -8.38,-0.83 -5.63,-4.67 -14.36,5.25 -3.92,-7.07 -7.79,0.81 -9.66,-1.69 -1.07,-19.58 -5.8,-4.05 -5.5,-12.49 -1.64,-12.78 1.18,-13.53 6.76,-9.7 8.82,5 9.06,-2.72 1.91,-12.36 4.92,-2.76 14.01,-3.16 7.78,-11.54 5.13,-9.22 4.23,-5.46 9.32,-7.98 8.04,-10.14 4.62,-11.38 4.76,-0.05 6.94,7.37 1.25,6.33 8.2,4.06 10.28,4.39 -0.3,5.71 -7.85,0.72 2.71,7.12 -8.31,4.97 -5.85,13.18 9.37,13.81 -1.79,6.72"
         vector-effect="none"
         id="path122"
         style="fill:#1c64a3;fill-opacity:1;stroke:none;stroke-opacity:1" />
      <path
         fill-rule="evenodd"
         d="m 3063.66,1140.66 2.71,9.66 1.87,8.16 -2.28,13.33 -6.25,-14.85 -4.51,7.39 5.09,10.73 -2.62,6.83 -14.83,-8.45 -4.62,-10.55 2.66,-6.92 -8.45,-6.88 -2.83,6.03 -5.62,-0.56 -7.62,8.12 -2.51,-4.26 2.87,-12.26 6.79,-4.09 5.53,-5.48 5.21,6.58 8.3,-3.98 0.84,-6.49 8.23,-0.38 -2.72,-11.24 10.78,6.89 2.27,7.32 1.71,5.35"
         vector-effect="none"
         id="path124"
         style="fill:#1c64a3;fill-opacity:1;stroke:none;stroke-opacity:1" />
      <path
         fill-rule="evenodd"
         d="m 2535.65,1172.93 -10,3.34 -6.52,-11.59 -3.99,-20.91 2.71,-23.59 9.06,8.07 6.6,10.23 7.21,15.15 -0.45,15.16 -4.62,4.14"
         vector-effect="none"
         id="path126"
         style="fill:#1c64a3;fill-opacity:1;stroke:none;stroke-opacity:1" />
      <path
         fill-rule="evenodd"
         d="m 863.557,1116.03 -9.94,1.59 -1.986,-1.3 3.786,-4 0.339,-5.73 6.923,-1.88 2.407,0.51 -1.529,10.81"
         vector-effect="none"
         id="path128"
         style="fill:#1c64a3;fill-opacity:1;stroke:none;stroke-opacity:1" />
      <path
         fill-rule="evenodd"
         d="m 3030.7,1113.58 -3.3,4.77 -2,9.17 -2.94,4.3 -9,-10.04 1.7,-3.88 2.17,-4.07 -0.51,-9 6.28,-0.86 0.08,9.77 5.8,-14 1.72,13.84"
         vector-effect="none"
         id="path130"
         style="fill:#1c64a3;fill-opacity:1;stroke:none;stroke-opacity:1" />
      <path
         fill-rule="evenodd"
         d="m 2969,1127.55 -13.43,13.79 4.17,-10.17 6.95,-8.97 5.21,-10.04 3.26,-14.4 4.47,11.82 -6.23,7.99 -4.4,9.98"
         vector-effect="none"
         id="path132"
         style="fill:#1c64a3;fill-opacity:1;stroke:none;stroke-opacity:1" />
      <path
         fill-rule="evenodd"
         d="m 3001.25,1090.19 8,4.49 7.43,-0.02 1.08,6.05 -4.15,6.16 -6.57,4.35 -1.76,-6.74 -0.72,-7.39 -3.31,-6.9"
         vector-effect="none"
         id="path134"
         style="fill:#1c64a3;fill-opacity:1;stroke:none;stroke-opacity:1" />
      <path
         fill-rule="evenodd"
         d="m 3042.6,1086.27 6.91,16.18 -9.85,-3.85 1.28,4.86 4.7,8.96 -4.93,3.25 -2.54,-10.21 -3.68,-0.75 -3.71,-8.78 7.13,1.16 -1.37,-5.48 -9.72,-11.06 11.28,0.32 4.5,5.4"
         vector-effect="none"
         id="path136"
         style="fill:#1c64a3;fill-opacity:1;stroke:none;stroke-opacity:1" />
      <path
         fill-rule="evenodd"
         d="m 2993.1,1073.15 -0.13,12.5 -6.67,-7.22 -8.63,-11.01 10.1,0.53 5.33,5.2"
         vector-effect="none"
         id="path138"
         style="fill:#1c64a3;fill-opacity:1;stroke:none;stroke-opacity:1" />
      <path
         fill-rule="evenodd"
         d="m 2967.46,994.967 8.48,4.087 2.23,-3.727 2.32,3.636 0.18,5.937 7.34,10.28 0.76,11.94 -5.36,4.76 1.58,11.61 5.78,11.48 6.58,1.59 4.67,-1.71 16.65,8.01 0.93,7.86 4.67,3.47 0.42,6.67 -10.82,-7.1 -6.21,-7.59 -1.65,5.3 -9.61,-8.65 -10.01,2.14 -6.61,-3.19 -0.97,-5.97 2.63,-3.67 -4.37,-3.33 -0.08,5.19 -8,-8.28 -3.5,-6.27 -4.5,-13.78 6.08,4.73 -5.88,-22.46 -0.68,-12.979 6.95,0.016"
         vector-effect="none"
         id="path140"
         style="fill:#1c64a3;fill-opacity:1;stroke:none;stroke-opacity:1" />
      <path
         fill-rule="evenodd"
         d="m 825.819,998.918 -3.609,3.612 -8.622,-0.09 -6.8,0.51 0.5,-6.128 2.029,-2.091 9.356,0.083 5.615,1.261 1.531,2.843"
         vector-effect="none"
         id="path142"
         style="fill:#1c64a3;fill-opacity:1;stroke:none;stroke-opacity:1" />
      <path
         fill-rule="evenodd"
         d="m 695.012,1004.07 -4.001,2.4 -5.932,-2.3 -5.412,-5.222 2.109,-3.272 5.04,-0.997 2.501,0.482 7.424,1.283 5.337,3.438 1.06,3.918 -8.126,0.27"
         vector-effect="none"
         id="path144"
         style="fill:#1c64a3;fill-opacity:1;stroke:none;stroke-opacity:1" />
      <path
         fill-rule="evenodd"
         d="m 750.777,975.432 9.384,2.24 1.967,-2.431 8.88,0.066 5.95,3.672 3.084,-0.358 0.992,5.064 6.308,-0.285 -1.253,4.258 4.981,0.516 4.565,5.246 -5.403,5.826 -4.838,-3.114 -5.379,0.601 -3.632,-0.682 -2.591,2.611 -4.578,0.883 -1.043,-3.473 -4.207,2.055 -6.55,9.813 -2.507,-2.28 0.243,-4.12 -7.121,-2.435 -5.617,0.995 -6.781,-1.037 -5.925,2.677 -5.202,-4.461 2.003,-4.613 10.111,1.987 8.401,1.148 4.794,-3.185 -3.896,-6.193 1.286,-5.456 -6.699,-2.226 3.464,-3.939 6.809,0.63"
         vector-effect="none"
         id="path146"
         style="fill:#1c64a3;fill-opacity:1;stroke:none;stroke-opacity:1" />
      <path
         fill-rule="evenodd"
         d="m 2840.87,992.473 -7.72,6.879 -10.79,-4.436 -4.29,-12.297 3.46,-6.467 11.07,-3.996 6.66,0.338 4.44,5.443 -2.89,6.282 0.06,8.254"
         vector-effect="none"
         id="path148"
         style="fill:#1c64a3;fill-opacity:1;stroke:none;stroke-opacity:1" />
      <path
         fill-rule="evenodd"
         d="m -199.947,986.682 -2.777,2.391 -1.893,-2.047 2.199,-3.992 0.595,-5.197 1.335,-1.588 3.111,-2.326 0.593,-2.804 1.318,-1.329 0.734,0.264 3.172,2.408 1.418,1.237 0.922,1.91 0.513,5 -0.648,0.791 -5.895,3.05 -4.697,2.232"
         vector-effect="none"
         id="path150"
         style="fill:#1c64a3;fill-opacity:1;stroke:none;stroke-opacity:1" />
      <path
         fill-rule="evenodd"
         d="m -195.254,964.424 -4.324,1.019 -0.43,-2.998 -0.711,-1.157 0.357,-0.888 1.743,-1.22 3.334,1.352 1.85,2.183 -1.819,1.709"
         vector-effect="none"
         id="path152"
         style="fill:#1c64a3;fill-opacity:1;stroke:none;stroke-opacity:1" />
      <path
         fill-rule="evenodd"
         d="m -199.053,956.843 -1.155,1.537 -5.861,-0.413 1.758,-1.731 5.258,0.607"
         vector-effect="none"
         id="path154"
         style="fill:#1c64a3;fill-opacity:1;stroke:none;stroke-opacity:1" />
      <path
         fill-rule="evenodd"
         d="m -208.102,954.777 -1.049,0.821 -0.714,-0.183 -3.679,-0.499 0.283,-3.222 -0.134,-0.567 4.084,-1.957 0.452,0.912 0.757,4.695"
         vector-effect="none"
         id="path156"
         style="fill:#1c64a3;fill-opacity:1;stroke:none;stroke-opacity:1" />
      <path
         fill-rule="evenodd"
         d="m -222.169,945.408 -2.117,1.405 -2.37,-2.587 1.162,-1.033 2.5,-1.39 2.432,0.302 -1.607,3.303"
         vector-effect="none"
         id="path158"
         style="fill:#1c64a3;fill-opacity:1;stroke:none;stroke-opacity:1" />
      <path
         fill-rule="evenodd"
         d="m 680.89,934.307 3.01,5.186 10.978,-1.601 3.071,3.33 7.2,8.787 5.385,6.408 3.78,-0.195 6.03,2.899 -1.823,4.006 8.228,0.586 7.192,5.829 -2.136,3.339 -7.998,1.81 -7.835,0.708 -7.582,-1.128 -16.648,1.389 9.578,-7.952 -3.708,-3.699 -7.08,-0.951 -2.863,-4.107 -0.547,-8.094 -6.544,0.553 -9.507,-3.807 -2.561,-2.976 -14.091,-2.198 -3.138,-2.765 5.261,-3.54 -10.833,-0.724 -10.275,7.363 -4.735,0.198 -2.631,3.461 -6.045,1.551 -4.443,-1.345 7.255,-4.382 3.972,-5.113 6.042,-3.149 6.582,-2.758 8.922,-1.354 3.193,-1.554 9.402,1.009 8.783,0.16 9.159,4.82"
         vector-effect="none"
         id="path160"
         style="fill:#1c64a3;fill-opacity:1;stroke:none;stroke-opacity:1" />
      <path
         fill-rule="evenodd"
         d="m 709.062,920.249 -2.955,0.702 -0.424,-8.127 -2.939,-4.079 5.207,-8.929 3.169,0.567 0.313,11.682 -2.371,8.184"
         vector-effect="none"
         id="path162"
         style="fill:#1c64a3;fill-opacity:1;stroke:none;stroke-opacity:1" />
      <path
         fill-rule="evenodd"
         d="m 2941.76,933.946 0.15,11.624 -11.06,-11.964 -5.91,-10.484 0.19,-13.853 3.78,-10.649 7.13,4.187 2.15,8.493 3.57,22.646"
         vector-effect="none"
         id="path164"
         style="fill:#1c64a3;fill-opacity:1;stroke:none;stroke-opacity:1" />
      <path
         fill-rule="evenodd"
         d="m 718.289,880.607 -12.793,2.24 0.977,-5.177 5.565,-1.119 7.137,0.42 -0.886,3.636"
         vector-effect="none"
         id="path166"
         style="fill:#1c64a3;fill-opacity:1;stroke:none;stroke-opacity:1" />
      <path
         fill-rule="evenodd"
         d="m 727.392,880.467 -5.146,9.958 -1.459,-1.797 2.572,-7.321 -3.099,-5.527 0.521,-1.604 6.611,6.291"
         vector-effect="none"
         id="path168"
         style="fill:#1c64a3;fill-opacity:1;stroke:none;stroke-opacity:1" />
      <path
         fill-rule="evenodd"
         d="m 2994.95,776.152 4.92,4.664 0.24,8.246 -7.6,-4.374 -3.07,3.168 3.02,7.99 -9.75,-3.892 -4.65,-6.471 -0.23,-8.122 7.18,1.573 -0.04,-5.711 9.98,2.929"
         vector-effect="none"
         id="path170"
         style="fill:#1c64a3;fill-opacity:1;stroke:none;stroke-opacity:1" />
      <path
         fill-rule="evenodd"
         d="m 1937.59,755.537 -5.87,5.752 1.27,2.533 0.55,1.088 -9.66,5.505 -5.47,-1.76 -3.48,-5.438 4.87,-0.498 0.72,-0.074 0.87,-3.261 7.55,0.182 8.65,-4.029"
         vector-effect="none"
         id="path172"
         style="fill:#1c64a3;fill-opacity:1;stroke:none;stroke-opacity:1" />
      <path
         fill-rule="evenodd"
         d="m 1824.36,755.086 6.35,4.55 8,-0.77 7.91,0.959 0.1,2.353 5.44,-1.622 -0.69,3.99 -14.89,1.151 -0.22,-2.234 -13.12,-2.637 1.12,-5.74"
         vector-effect="none"
         id="path174"
         style="fill:#1c64a3;fill-opacity:1;stroke:none;stroke-opacity:1" />
      <path
         fill-rule="evenodd"
         d="m 1735.97,721.211 -2.64,10.51 1.94,4.148 -1.5,6.899 -8.35,-5.055 -5.37,-1.446 -14.89,-6.805 0.87,-6.854 12.05,1.219 10.27,-1.452 7.62,-1.164"
         vector-effect="none"
         id="path176"
         style="fill:#1c64a3;fill-opacity:1;stroke:none;stroke-opacity:1" />
      <path
         fill-rule="evenodd"
         d="m 1669.17,681.832 6.61,9.328 -0.23,17.474 -4.65,-0.837 -3.86,4.43 -4.03,-3.52 -1.33,-15.945 -2.72,-7.518 5.51,0.656 4.7,-4.068"
         vector-effect="none"
         id="path178"
         style="fill:#1c64a3;fill-opacity:1;stroke:none;stroke-opacity:1" />
      <path
         fill-rule="evenodd"
         d="m 3027.38,735.764 5.54,10.714 7.61,6.748 2.59,9.519 -8.16,6.372 -17.76,0.831 -2.95,15.519 -11.08,-5.233 -8.3,-10.154 -15.93,2.993 -7.61,6.401 -12.15,0.261 18.09,10.026 9.28,23.28 -3.05,5.789 -8.78,-5.347 -5.86,-12.367 -9.53,-3.981 -10.96,-9.367 6.96,-4.2 -0.8,-8.55 5.23,-7.014 0.44,-9.251 17.49,-4.026 13.37,2.76 -9.3,-23.905 12.4,6.401 3.28,-13.387 1.1,-5.182 -8.84,-16.244 -16.19,-14.843 -4.12,-8.298 8.07,-2.406 23.83,18.239 10.15,10.726 3.24,13.385 12.7,13.791"
         vector-effect="none"
         id="path180"
         style="fill:#1c64a3;fill-opacity:1;stroke:none;stroke-opacity:1" />
      <path
         fill-rule="evenodd"
         d="m 1671.78,669.509 -2.56,10.095 -4.67,-2.665 -2.84,-8.786 1.66,-4.838 5.95,-4.959 2.46,11.153"
         vector-effect="none"
         id="path182"
         style="fill:#1c64a3;fill-opacity:1;stroke:none;stroke-opacity:1" />
      <path
         fill-rule="evenodd"
         d="m 2962.84,643.308 9.92,2.748 0.52,-5.459 18.72,14.491 -10.48,3.548 5.43,12.925 -24.94,-8.904 9.69,14.269 -10.79,0.197 -14.85,-12.97 -5.89,-9.987 9.59,-0.719 -17.2,-17.827 -8.79,-9.974 26.74,13.336 12.33,4.326"
         vector-effect="none"
         id="path184"
         style="fill:#1c64a3;fill-opacity:1;stroke:none;stroke-opacity:1" />
      <path
         fill-rule="evenodd"
         d="m 981.092,612.942 5.882,1.701 8.888,-0.346 -7.377,5.207 -3.932,0.83 -9.039,-5.396 -0.003,-4.245 5.696,-3.904 -0.115,6.153"
         vector-effect="none"
         id="path186"
         style="fill:#1c64a3;fill-opacity:1;stroke:none;stroke-opacity:1" />
      <path
         fill-rule="evenodd"
         d="m 1016.2,580.833 -4.55,0.222 -9.47,-3.899 -4.859,-5.858 3.749,-1.041 9.97,3.105 6.21,5.187 -1.05,2.284"
         vector-effect="none"
         id="path188"
         style="fill:#1c64a3;fill-opacity:1;stroke:none;stroke-opacity:1" />
      <path
         fill-rule="evenodd"
         d="m 447.064,588.258 -6.565,1.741 -8.55,-5.676 2.414,-4.423 -2.969,-4.35 2.609,-3.533 -6.558,-2.228 4.831,-6.716 4.326,-2.848 6.01,2.683 3.181,1.869 6.816,1.306 -2.073,4.263 -2.503,5.883 3.1,5.134 -4.069,6.895"
         vector-effect="none"
         id="path190"
         style="fill:#1c64a3;fill-opacity:1;stroke:none;stroke-opacity:1" />
      <path
         fill-rule="evenodd"
         d="m 1078.19,561.253 -11.78,10.797 8.11,-4.178 4.62,2.649 -5.44,4.32 6.26,3.404 5.73,-3.026 7.09,3.821 -7.33,9.133 7.45,-2.137 -2.03,6.64 -0.81,7.811 -9.05,11.117 -4.45,0.472 -5.04,-2.391 6.9,-10.327 -1.81,-1.598 -16.04,10.939 -5.35,-0.439 9.45,-5.933 -7.39,-3.061 -10.32,0.752 -17.77,-0.384 0.54,-3.724 8.08,-4.417 -2.17,-3.4 11.73,-7.516 20.13,-19.708 9.42,-6.984 10.01,-4.214 3.78,0.535 -3.54,3.316 -8.98,7.731"
         vector-effect="none"
         id="path192"
         style="fill:#1c64a3;fill-opacity:1;stroke:none;stroke-opacity:1" />
      <path
         fill-rule="evenodd"
         d="m 451.985,520.567 v 0 0 0 l 9.508,-0.957 -21.712,13.64 -5.697,9.741 -3.446,-0.023 2.28,-5.548 4.483,-5.562 0.923,-3.752 5.919,-5.278 5.996,-3.815 1.746,1.554"
         vector-effect="none"
         id="path194"
         style="fill:#1c64a3;fill-opacity:1;stroke:none;stroke-opacity:1" />
      <path
         fill-rule="evenodd"
         d="m 2855.42,560.508 39.06,21.927 -18.94,-4.109 17.92,18.06 25.29,12.924 10.61,8.864 -16.46,-7.65 5.76,9.828 -14.63,-10.653 -14.26,-12.289 -18.41,-13.513 -10.33,-9.404 -22.17,-16.5 -22.16,-12.021 -23.47,-16.548 -0.46,-5.529 -11.9,-5.545 1.16,-1.676 14.42,7.911 20.48,11.612 17.28,11.954 21.21,12.357"
         vector-effect="none"
         id="path196"
         style="fill:#1c64a3;fill-opacity:1;stroke:none;stroke-opacity:1" />
      <path
         fill-rule="evenodd"
         d="m 1518.72,542.023 -16.07,7.194 -12.24,-1.844 8.29,-12.674 -3.25,-12.233 12.42,-9.35 6.81,-5.545 7.03,-0.488 8.48,7.342 -5.07,8.206 0.86,8.586 -7.26,10.806"
         vector-effect="none"
         id="path198"
         style="fill:#1c64a3;fill-opacity:1;stroke:none;stroke-opacity:1" />
      <path
         fill-rule="evenodd"
         d="m 1682.88,501.917 -3.67,9.588 -9.6,-6.694 -1.77,-4.897 11.56,-3.897 3.48,5.9"
         vector-effect="none"
         id="path200"
         style="fill:#1c64a3;fill-opacity:1;stroke:none;stroke-opacity:1" />
      <path
         fill-rule="evenodd"
         d="m 342.802,484.284 -16.159,4.439 1.339,-3.007 8.811,-5.44 14.945,-4.11 7.549,-1.758 3.827,0.779 -3.26,3.585 -17.052,5.512"
         vector-effect="none"
         id="path202"
         style="fill:#1c64a3;fill-opacity:1;stroke:none;stroke-opacity:1" />
      <path
         fill-rule="evenodd"
         d="m 1554.23,466.757 -9.02,12.456 8.22,-1.585 8.75,0.06 -2.33,9.457 -7.67,10.489 8.49,0.75 7.8,15.203 5.74,1.912 5.22,13.648 2.47,4.763 10.49,2.302 -0.93,7.757 -4.41,3.571 3.59,6.32 -7.9,6.425 -11.9,-0.114 -15.22,3.384 -4.09,-2.423 -6.08,5.773 -8.23,-1.4 -6.52,4.717 -4.64,-2.468 13.69,-12.921 8,-2.644 -13.73,-2.046 -2.23,-4.852 9.3,-3.769 -4.45,-6.525 2.03,-7.895 12.69,1.089 1.48,-6.966 -5.52,-7.52 -10.1,-2.092 -1.82,-3.212 3.32,-5.286 -2.54,-3.248 -4.8,5.579 0.25,-11.348 -3.71,-5.962 3.78,-11.996 6.77,-9.325 6.23,0.906 9.53,-0.964"
         vector-effect="none"
         id="path204"
         style="fill:#1c64a3;fill-opacity:1;stroke:none;stroke-opacity:1" />
      <path
         fill-rule="evenodd"
         d="m 307.434,452.26 -8.512,1.758 -0.453,-2.113 2.076,-3.062 11.767,-1.924 3.799,1.017 -8.677,4.324"
         vector-effect="none"
         id="path206"
         style="fill:#1c64a3;fill-opacity:1;stroke:none;stroke-opacity:1" />
      <path
         fill-rule="evenodd"
         d="m 996.614,427.183 -9.322,5.803 -2.233,-0.941 1.748,-3.296 1.202,-0.761 6.557,-3.3 2.717,0.241 -0.669,2.254"
         vector-effect="none"
         id="path208"
         style="fill:#1c64a3;fill-opacity:1;stroke:none;stroke-opacity:1" />
      <path
         fill-rule="evenodd"
         d="m 984.362,421.125 -15.625,6.052 -4.877,-0.254 1.928,-2.972 11.437,-5.046 9.786,0.104 -2.649,2.116"
         vector-effect="none"
         id="path210"
         style="fill:#1c64a3;fill-opacity:1;stroke:none;stroke-opacity:1" />
      <path
         fill-rule="evenodd"
         d="m 362.608,409.484 -0.856,2.056 7.238,-1.111 -1.428,2.855 3.495,1.449 -3.509,1.183 -11.109,2.304 0.377,-2.367 2.189,-1.97 -7.881,0.63 0.706,-0.955 10.778,-4.074"
         vector-effect="none"
         id="path212"
         style="fill:#1c64a3;fill-opacity:1;stroke:none;stroke-opacity:1" />
      <path
         fill-rule="evenodd"
         d="m 1001.43,389.502 -4.984,4.642 5.664,-1.631 0.31,2.775 2.83,3.644 3.76,3.326 -5.68,5.102 6.2,-0.838 0.74,3.572 -10.362,3.405 -7.932,-2.603 2.04,-4.851 -14.168,5.738 -17.154,5.615 5.523,-6.345 -10.962,1.038 13.05,-5.336 11.969,-8.421 15.438,-9.689 3.718,0.857"
         vector-effect="none"
         id="path214"
         style="fill:#1c64a3;fill-opacity:1;stroke:none;stroke-opacity:1" />
      <path
         fill-rule="evenodd"
         d="m 1481.6,381.143 -3.15,6.766 6.07,7.198 -10.78,8.125 -22.11,7.372 -6.66,1.973 -8.91,-1.593 -18.65,-3.415 8.5,-4.744 -13.26,-5.217 12.92,-2.059 0.79,-3.108 -13.36,-2.454 7.18,-6.828 10.66,-1.543 7.99,7.099 12.02,-5.703 7.53,2.956 12.41,-5.562 10.81,0.737"
         vector-effect="none"
         id="path216"
         style="fill:#1c64a3;fill-opacity:1;stroke:none;stroke-opacity:1" />
      <path
         fill-rule="evenodd"
         d="m 1083.66,373.967 -7.97,0.517 4.96,-5.028 10.34,-5.712 7.69,-1.406 1.23,2.81 -5.61,4.371 -2.54,1.411 -8.1,3.037"
         vector-effect="none"
         id="path218"
         style="fill:#1c64a3;fill-opacity:1;stroke:none;stroke-opacity:1" />
      <path
         fill-rule="evenodd"
         d="m 420.77,379.808 -2.954,2.589 20.256,-7.536 13.289,1.54 -14.332,9.741 -19.182,4.581 -14.11,1.091 -27.998,10.383 -8.65,2.229 -5.711,-0.321 4.608,-3.729 -0.789,-3.106 11.131,-4.598 -2.086,-1.726 -11.587,1.369 6.777,-3.688 12.678,-3.897 -15.239,2.488 -11.118,4.953 -16.543,4.495 124.101,-41.142 -9.194,7.698 -14.008,10.158 -19.339,6.428"
         vector-effect="none"
         id="path220"
         style="fill:#1c64a3;fill-opacity:1;stroke:none;stroke-opacity:1" />
      <path
         fill-rule="evenodd"
         d="m 988.11,354.083 -9.952,3.515 -3.039,-3.039 -6.982,1.095 -0.284,-4.487 11.02,-3.076 12.14,-4.275 1.214,2.793 0.402,1.779 -1.549,1.885 -2.97,3.81"
         vector-effect="none"
         id="path222"
         style="fill:#1c64a3;fill-opacity:1;stroke:none;stroke-opacity:1" />
      <path
         fill-rule="evenodd"
         d="m 1026.02,350.197 -16.83,10.241 21.04,-7.863 -2.93,6.451 -13.54,7.515 -4.15,6.913 17.73,-7.402 17.85,-8.73 17.52,-10.931 7.37,0.756 6.67,1.456 0.75,4.936 -6.93,4.977 -12.47,5.391 -3.21,5.455 -7.73,4.996 -22.8,7.246 -11.46,1.609 -2.49,-3.135 -9.33,5.236 -18.763,8.877 -8.307,4.645 -17.786,7.239 -11.022,0.714 -11.72,4.555 -9.846,7.057 -10.199,1.366 -20.613,8.891 -24.166,12.497 -14.06,8.845 -16.494,13.17 9.241,1.905 -8.827,10.755 -6.048,8.788 13.792,-2.296 9.62,5.037 3.519,4.437 0.233,5.541 7.115,3.238 3.967,4.972 13.095,0.683 8.001,1.144 -10.735,10.297 -7.982,12.052 -5.218,13.542 3.677,11.587 9.938,-3.981 14.75,-12.511 11.382,-19.007 -0.498,-6.275 18.285,-5.564 16.67,-8.278 11.806,-8.173 6.39,-7.788 3.726,-9.825 -1.218,-8.633 21.038,-11.91 7.118,-10.178 16.129,-17.317 7.87,-2.532 9.26,2.985 6.39,1.071 9.08,-2.888 2.96,3.725 2.64,6.407 -1.96,4.316 12.56,0.842 -8.98,9.412 -10.29,14.324 5.6,1.784 -0.02,6.751 16.72,-6.365 17.97,-12.541 9.53,-5.24 -2.47,10.087 -1.39,14.577 -1.54,13.882 -8.57,7.334 6.26,6.623 2.87,6.747 11.3,3.065 2.97,3.79 -2.92,10.109 5.67,1.593 0.75,4.533 -7.23,13.598 -8.95,4.579 -8.74,4.287 -17.06,4.352 -17.04,10.107 -16.33,2.006 -17.6,-2.601 -13.371,-0.089 -9.814,0.857 -13.168,8.881 -15.044,5.508 -23.63,16.565 -17.893,11.647 9.2,-2.08 25.03,-16.535 25.597,-10.402 14.342,-1.242 4.408,6.112 -13.588,8.405 -4.851,13.574 -2.249,9.563 8.837,6.358 16.585,-1.846 16.839,-14.262 -4.12,9.189 3.74,4.607 -15.922,8.361 -24.998,7.625 -12.179,5.204 -15.535,9.292 -6.866,-0.949 5.347,-10.91 22.212,-10.604 -15.446,0.42 -11.429,1.558 -0.649,4.2 -13.616,6.223 -12.314,4.447 -12.293,3.821 -10.192,8.466 -2.375,2.139 -3.795,6.895 -0.39,6.914 3.922,0.327 1.445,-4.765 1.443,2.899 -2.716,3.736 -7.762,2.119 -4.619,-0.254 -8.51,2.284 -4.654,0.656 -6.104,0.647 -10.285,3.8 15.89,-2.473 1.653,2.486 -15.984,3.943 -6.366,0.026 1.144,-1.612 -4.955,3.647 2.624,0.603 -7.064,9.479 -12.52,10.199 0.973,-3.409 -1.867,-0.69 -1.606,-3.311 -1.554,7.137 1.199,2.374 -2.232,5.017 -5.825,5.178 -10.962,10.675 -0.678,-0.533 7.606,-9.095 -2.674,-5.096 4.439,-11.041 -4.903,5.74 -2.093,8.446 -5.429,-1.994 4.615,4.198 -5.775,12.731 2.511,0.928 -1.131,4.645 -4.78,13.478 -11.161,10.039 -12.644,4.019 -10.463,7.969 -5.654,0.872 -7.562,5.001 -3.522,4.577 -15.523,8.873 -8.82,6.52 -8.504,8.139 -5.727,9.779 -1.978,9.587 -1.022,11.843 1.125,9.83 -2.158,6.01 -0.561,16.184 -3.576,9.438 -2.305,5.451 -5.584,8.574 -3.903,1.774 -4.922,-1.704 0.284,-6.163 -3.129,-3.228 -1.688,-12.044 -1.267,-10.686 0.373,-5.453 5.744,-9.237 -0.09,-7.636 -3.816,-11.587 -3.353,-2.12 -13.524,6.277 -1.657,-0.69 -2.557,-6.452 -5.319,-3.416 -12.961,1.734 -8.922,-1.524 -8.659,0.949 -5.443,1.931 0.355,3.898 -2.61,5.613 1.136,2.738 -2.848,1.822 -3.165,-2.044 -5.209,2.629 -7.712,-0.432 -4.908,-7.322 -10.237,1.728 -6.449,-3.205 -7.186,0.971 -10.608,3.234 -14.547,10.283 -13.524,5.994 -8.909,6.647 -5.25,6.274 -4.203,9.641 -2.231,6.72 0.162,4.774 0.008,0.022 -0.046,0.029 -9.158,12.272 -5.841,10.135 -7.76,18.919 -3.518,6.916 -0.696,7.736 1.197,6.924 -1.289,11.031 4.279,10.61 0.248,8.141 2.453,7.036 11.095,3.797 3.111,5.991 11.129,-4.005 9.124,-1.446 9.265,-2.572 7.862,-2.451 8.858,-5.83 5.036,-8.327 4.387,-11.969 3.196,-4.16 8.794,-3.723 12.967,-3.297 9.877,0.494 7.222,-1.201 1.83,3.012 -2.361,6.848 -8.491,8.464 -5.088,8.685 1.435,2.484 -3.341,6.176 -5.726,11.16 -1.974,-3.676 -2.459,0.238 -0.493,2.101 2.156,0.066 -1.167,3.889 -3.381,6.2 0.468,2.22 -2.427,5.13 0.405,1.38 -3.009,7.25 -3.126,3.81 -2.186,0.46 -3.393,4.98 3.202,2.61 1.462,-2.15 2.992,1.84 1.081,0.56 3.079,-2.53 3.352,-0.21 0.819,1.18 1.947,-0.72 5.091,1.3 5.423,-0.37 4.056,-1.6 1.698,-1.61 3.522,0.75 2.558,0.98 3.094,-0.34 2.557,-1.25 4.859,2 1.768,0.31 2.976,2.69 2.69,3.23 3.769,2.21 2.274,3.96 -1.263,1.38 -1.204,3.22 0.199,5.28 -3.571,4.91 -2.279,5.81 -1.473,6.37 0.002,3.73 -0.767,6.51 -2.008,1.42 -2.058,6.19 0.224,3.83 -2.94,3.7 -0.023,3.92 1.456,2.38 1.887,7.88 3.77,5.84 4.737,6.2 3.598,5.21 -0.594,3.08 4.613,0.65 1.243,-1.18 2.832,3.57 5.894,-1.05 5.405,-3.67 7.462,-2.93 4.509,-4.34 6.379,0.85 -0.602,1.43 6.487,0.5 4.943,2.51 3.358,4.37 4,4.02 6.025,0.46 9.881,-10.15 5.002,-1.54 0.652,-4.81 3.61,-12.26 7.556,-6.73 7.409,-0.28 1.315,-3.02 8.997,1.21 10.141,-7.32 4.978,-3.23 6.593,-6.97 4.011,0.88 2.551,3.81 -2.907,4.87 -0.77,3.43 -7.076,1.69 3.003,6.58 -1.037,7.58 -6.114,8.43 3.239,11.53 5.156,-0.95 3.724,-10.5 -3.076,-5.1 0.684,-10.99 15.283,-5.89 -0.763,-6.83 4.686,-4.56 2.902,10.17 8.169,0.24 6.648,8.08 -0.08,4.8 10.502,0.13 12.674,-1.49 6.022,6.5 8.782,1.79 7.035,-4.53 0.513,-3.66 14.595,-0.87 14.052,-0.2 -10.379,4.28 3.334,6.85 9.276,1.09 8.25,7.15 0.898,11.64 6.151,-0.33 4.339,3.43 7.324,5.35 6.629,9.48 -0.145,7.49 4.418,0.35 5.906,7.11 4.383,5.07 13.987,2.92 1.399,-2.63 9.592,-1.05 12.492,3.91 3.932,1.61 8.535,3.45 12.012,12.3 1.75,5.98 4.048,-0.69 2.676,8.07 6.086,25.52 6.294,2.41 0.212,10.08 -8.961,12.02 3.679,4.4 20.924,2.29 0.51,14.64 8.92,-9.58 14.92,5.25 19.74,8.91 5.88,8.56 -1.81,8.08 13.68,-4.5 23.15,7.72 17.66,-0.57 17.72,12.08 15.49,16.34 9.21,4.2 10.11,0.59 4.41,4.6 4.61,18.55 2.29,8.81 -3.64,24.04 -5.49,9.49 -15.35,20.19 -6.35,16.38 -7.7,12.54 -2.89,0.28 -2.4,10.63 3.22,27.01 -1,22.15 -0.21,9.45 -3,5.65 0.22,19.11 -9.15,18.61 0.1,14.67 -8.25,6.14 -1.36,8.49 -12.22,-0.03 -16.8,5.43 -6.84,6.29 -11.82,4.12 -11.08,11.21 -6.68,13.94 0.53,10.46 3.46,7.72 1.01,14.08 -0.95,6.78 -5.85,7.64 -5.99,24.32 -6.56,10.91 -5.5,6.41 -1.14,13.01 -4.69,7.79 -1.95,8.54 -9.46,7.54 -8.601,-2.71 -5.194,1.45 -11.613,-5.82 -6.977,0.43 -8.909,-7.51 1.651,7.09 17.225,11.6 1.787,9.31 8.527,5.86 1.797,6.56 -3.542,17.15 -12.314,7.14 -19.213,2.77 -11.683,-1.34 5.454,7.91 2.201,9.89 4.761,6.64 -3.903,4.62 -9.345,1.81 -11.765,-4.78 -2.235,3.44 7.57,13 8.526,3.92 3.411,-4.11 6.149,6.77 -7.037,4.03 -3.785,8.06 5.279,12.97 1.383,6.88 -8.987,0.03 -3.843,6.55 2.703,9.55 14.557,9.28 10.373,2.55 3.41,11.29 -6.561,7.06 3.282,14.57 -5.01,4.88 0.193,5.77 11.548,12.72 10.713,7.04 -4.097,-0.61 -7.811,-0.1 -2.045,2.99 -4.616,4.37 7.055,11.24 -3.391,0.28 -12.623,-3.9 -16.295,-8.39 -16.109,-6.94 -8.606,-7.71 -2.851,-7.17 -10.473,-8.18 -16.175,-21.16 -4.285,-12.06 3.425,-9.74 -16.573,-3.69 1.806,-11.23 -9.674,-21.29 13.351,4.53 -10.127,-26.81 -8.483,-3.46 6.018,16.22 -7.169,-1.83 -7.343,-18.61 -9.48,-24.33 0.061,-9.04 -9.28,-12.97 -7.994,-15.05 4.13,-0.44 -3.401,-21.72 -1.878,-21.68 -3.555,-20.34 -10.159,-20.58 -0.848,-11.38 -7.174,-17.1 0.856,-16.98 -6.242,-27.06 -4.547,-29.24 -4.407,-31.67 -6.123,-23.31 -6.598,-20.13 -13.146,-8.22 -2.149,-5.89 -25.577,-14.41 -23.596,-15.74 -10.495,-8.88 -6.808,-11.92 1.237,-4.16 -12.758,-18.98 -15.134,-26.74 -14.358,-28.92 -5.466,-6.63 -4.69,-10.72 -9.955,-9.5 -8.864,-5.9 3.343,-6.5 -6.619,-13.91 3.122,-10.21 9.001,-9.22 5.891,-10.91 -2.748,-6.37 -4.318,6.78 -7.28,-6.4 2.295,-4.11 -2.245,-13.25 4.119,-2.2 2.112,-9.1 4.484,-9.41 -0.785,-5.96 6.516,-3.13 8.219,-5.81 -1.521,-4.53 4.438,-1.1 -0.348,-7.31 2.929,-5.29 5.899,-0.98 5.307,-9.17 4.848,-7.65 -4.194,-3.47 2.667,-8.47 -1.856,-13.34 2.788,-3.82 -0.948,-12.32 -4.13,-7.76 -3.556,-4.2 -1.788,-7.85 3.287,-3.89 -2.88,-0.99 -1.7,-4.81 -5.421,-4.04 -5.239,0.93 -2.923,5.06 -5.127,3.65 -2.617,0.5 -1.459,3.03 4.856,7.9 -3.385,1.86 -1.896,2.16 -5.547,0.74 -1.228,-8.69 -1.769,2.47 -3.8,-0.86 -1.797,-5.85 -4.725,-0.97 -2.875,-1.7 -5.049,0.03 -0.69,3.15 -1.123,-2.2 -6.039,-3.22 -2.053,-3.06 1.636,-2.52 -0.058,-3.21 -2.847,-3.48 -4.272,-2.86 -3.809,-1.86 -0.233,-4.24 -2.737,-2.6 0.206,4.22 -2.778,3.47 -2.171,-4.03 -3.581,-1.43 -1.217,-2.93 0.666,-4.41 2.188,-4.57 -3.014,-2.05 3.088,-2.8 -3.367,-4.56 -4.563,-5.85 -1.789,-4.88 -4.169,-4.55 -4.724,-6.53 1.686,-2.24 1.542,2.18 1.061,-1.02 -1.211,-4.52 -3.307,-1.26 -1.905,3.4 -6.705,-0.21 -3.939,-1.39 -4.284,-2.87 -6.297,-0.9 -2.706,-3.1 -5.477,-2.52 -7.198,-0.26 -4.744,-2.86 -5.032,-5.95 -9.744,-15.52 -4.891,-4.67 -8.545,-3.75 -6.698,1.05 -10.561,5.41 -6.159,1.42 -7.262,-3.8 -7.992,-2.73 -9.135,-6.6 -8.125,-2.01 -11.274,-6.67 -7.734,-6.86 -1.819,-3.82 -6.177,-0.86 -10.41,-4.532 -2.809,-6.53 -9.759,-8.112 -2.797,-8.999 -0.387,-6.944 4.266,-1.39 0.224,-4.06 3.892,-3.69 1.789,-4.916 -1.517,-6.378 1.061,-5.642 -1.08,-7.148 -4.366,-14.055 -6.691,-11.012 -1.653,-8.771 -7.004,-5.737 -0.496,-3.427 5.664,-8.66 -4.103,-3.264 -3.263,-6.793 2.044,-9.734 -5.33,-1.133 -2.619,-7.331 -1.582,-6.757 1.831,-4.332 -0.148,-10.441 2.124,-10.569 3.212,-5.291 -4.563,-5.453 -3.933,0.599 -3.85,-3.785 -5.057,5.58 -2.109,6.603 -4.903,10.36 0.517,5.699 2.85,9.543 0.05,3.267 1.132,0.992 -1.068,4.774 2.044,-0.194 -2.418,8.979 1.549,3.547 -0.109,4.94 3.473,7.115 -2.441,13.032 0.502,6.151 0.166,6.588 -2.609,7.428 5.191,0.465 1.788,6.41 1.475,6.307 -1.296,2.53 -6.812,5.198 -1.966,-0.068 0.514,-8.598 -3.977,-8.048 -5.13,-6.814 -4.134,-3.577 5.002,-10.288 1.838,-7.602 -3.22,-4.344 -4.575,-6.245 -2.338,1.802 -0.996,-3.644 -5.114,-3.382 -2.359,-8.101 1.344,-1.053 4.111,0.791 6.76,-5.204 3.701,-6.272 -3.054,-9.902 -4.257,-3.835 0.885,-8.639 1.25,-9.044 1.61,-10.995 3.313,-12.333 2.67,-6.986 -1.741,-7.841 -3.847,-1.629 1.466,-3.904 -5.448,-0.683 -1.255,-3.673 -8.835,-1.338 -1.148,-2.19 3.983,-7.428 -0.194,-13.559 5.709,-18.653 2.809,-3.095 -0.986,-4.406 1.26,-11.149 7.724,-10.801 0.896,-7.208 11.837,-10.896 9.862,-11.221 6.201,-9.98 15.52,-12.208 25.646,-23.311 16.208,-17.047 8.818,-10.794 3.809,-5.829 3.866,-2.445 8.535,4.257 -7.977,11.885 5.869,-3.332 9.751,-10.31 8.364,-10.248 -1.184,-0.032 -3.325,-12.191 0.01,-5.335 -9.867,-5.095 8.808,-10.839 10.944,-7.47 -4.259,-5.159 11.697,-9.719 1.884,-8.694 8.612,-6.132 1.906,-4.463 -1.741,-3.772 13.218,-10.255 4.309,-9.433 13.402,-10.918 -6.379,-0.743 -12.116,-0.283 -3.632,-3.304 4.687,-11.833 -3.488,-2.147 -5.966,-4.032 -12.398,0.96 -5.113,-5.169 0.37,-4.771 -13.068,2.367 -13.74,7.811 -5.638,0.722 -13.47,2.358 -14.209,3.826 -13.272,2.416 11.942,-6.688 25.507,-11.036 14.995,-3.439 3.667,-2.793 -22.3,6.216 -20.284,7.477 -27.1,8.052 -5.104,5.531 -23.219,8.233 -17.693,4.826 -14.664,3.53 -11.611,5.143 -23.843,6.026 -12.684,5.506 -18.794,5.033 -4.033,-0.908 -13.732,3.293 -15.761,4.03 -14.131,3.972 -20.569,3.401 2.299,-2.002 19.274,-5.551 14.842,-3.653 20.717,-6.451 12.67,-1.329 12.965,-4.807 24.363,-6.986 6.2,-2.328 13.714,-4.094 18.237,-8.741 17.304,-6.762 -15.901,3.464 1.378,-1.968 -12.523,4.164 6.466,-5.804 -10.353,4.103 8.556,-5.695 -17.093,4.571 -4.802,-0.01 13.246,-6.79 10.068,-4.163 3.541,-4.024 -14.585,2.164 4.935,-5.294 0.698,-2.696 14.044,-6.334 4.981,-4.74 17.522,-6.357 20.313,-6.128 15.897,-5.601 7.704,-0.794 0.784,1.74 18.246,-5.236 2.947,0.932 13.418,-3.355 10.559,-4.915 0.809,-1.929 15.32,-4.119 -4.549,0.121 -13.139,2.323 -7.984,2.362 0.373,-2.357 -12.849,1.197 -3.681,-2.559 8.153,-4.278 7.6,-6.14 21.265,-4.388 28.623,-5.092 h 5.436 l -14.836,5.207 15.2,-0.406 11.755,-6.449 2.678,-3.938 9.708,-5.133 6.283,-4.351 0.647,-3.204 19.198,-5.282 11.975,-0.325 21.366,-4.551 16.078,-4.827 20.505,-4.673 9.242,-1.119 24.576,-4.323 3.35,0.65 24.959,-5.153 2.44,2.024 -9.077,4.375 8.261,-1.88 8.124,0.582 -6.983,2.237 4.183,1.66 8.857,-0.977 3.677,3.092 8.908,0.923 1.094,1.28 12.334,-1.598 1.116,2.96 2.904,1.383 5.121,2.389 -2.477,4.799 4.175,0.922 15.74,-4.168 15.131,-3.104 6.027,1.212 19.793,-4.346 15.866,-2.452 -5.852,4.083 10.072,-2.305 12.636,-4.619 1.532,1.042 -10.911,8.841 23.738,-6.696 -16.642,7.501 11.216,-1.629 8.909,-2.888 6.005,0.569 -0.039,4.165 6.449,3.66 4.934,1.702 7.429,-0.646 -2.026,5.105 -19.031,5.036 7.245,2.187 19.627,-1.202 8.851,-1.783 -4.693,6.128 16.624,-5.176 1.683,-4.308 10.71,-3.455 8.494,-0.464 6.907,-1.006 0.491,2.404 -3.818,5.5 8.566,-0.811 3.131,4.597 12.769,-1.623 8.918,0.246 10.153,-6.321 8.655,-1.764 3.869,3.428 -16.063,9.657 17.521,-8.147 4.656,0.272 19.888,-10.134 4.158,-6.137 0.16,-3.989 20.61,-10.762 20.19,-6.953 4.5,1.529 -2.19,4.23 -11.75,10.96 -13.72,4.843 7.89,2.007"
         vector-effect="none"
         id="path224"
         style="fill:#1c64a3;fill-opacity:1;stroke:none;stroke-opacity:1" />
      <path
         fill-rule="evenodd"
         d="m 961.662,315.329 -13.462,4.378 19.022,-2.831 -3.629,4.734 17.444,-4.788 -2.18,3.068 -16.384,9.31 11.562,-3.95 18.075,-9.624 7.93,-1.36 1.91,1.486 -2.465,3.769 -16.63,9.225 -12.42,6.786 0.118,4.815 1.711,4.642 -8.882,4.346 -11.501,0.799 -3.291,3.829 -8.886,3.677 -8.313,-1.578 -5.468,-2.702 -8.338,0.607 -18.276,3.4 -22.009,1.766 -9.827,0.695 6.302,-4.742 -2.721,-2.723 -7.815,1.115 9.515,-7.856 6.311,-1.049 12.916,-1.677 7.442,0.441 11.451,-1.706 -6.444,-2.282 -14.332,0.776 -7.925,-0.196 5.157,-3.586 22.406,-3.864 -9.192,0.135 -3.989,-2.53 22.145,-7.129 13.177,-3.746 28.766,-5.672 1.019,1.792"
         vector-effect="none"
         id="path226"
         style="fill:#1c64a3;fill-opacity:1;stroke:none;stroke-opacity:1" />
      <path
         fill-rule="evenodd"
         d="m 1020.15,312.562 -18.7,6.14 6.55,-6.509 4.86,-1.291 7.96,-0.368 -0.67,2.028"
         vector-effect="none"
         id="path228"
         style="fill:#1c64a3;fill-opacity:1;stroke:none;stroke-opacity:1" />
      <path
         fill-rule="evenodd"
         d="m 1165.53,315.504 -3.75,2.577 -5.35,-0.273 -5.54,-0.197 -8.1,1.258 -0.61,-0.568 2.62,-4.936 6.16,-3.32 3.63,-0.611 10.33,0.99 0.61,5.08"
         vector-effect="none"
         id="path230"
         style="fill:#1c64a3;fill-opacity:1;stroke:none;stroke-opacity:1" />
      <path
         fill-rule="evenodd"
         d="m 1111.28,314.995 -6.45,5.827 18.82,-7.523 20.46,-3.785 -7.83,9.595 -11.26,6.175 15.59,-2.748 11.39,-3.737 4.56,4.763 0.75,4.528 -5.52,4.181 13.83,-2.171 -2.76,6.138 8.93,3.842 v 3.948 l -5.9,9.271 -17.11,4.669 6.93,6.602 7.56,2.236 -0.99,9.436 9.59,0.686 -9.5,7.299 -24.17,12.238 -3.84,-4.525 0.13,-10.09 -10.05,1.306 -7.44,6.004 0.61,6.14 4.33,4.893 0.02,2.84 -5.77,10.665 -9.85,7.828 -6.32,-2.959 -9.32,-8.685 0.78,9.352 1.25,6.613 -2.39,3.846 -15.72,-4.396 -9.22,-6.355 -3.17,-5.297 5.74,-3.054 -4.5,-5.535 -4.29,-5.19 -3.44,3.099 -22.19,1.709 -1.53,-3.675 14.04,-7.825 13.06,-0.188 15.62,-1.35 2.17,-3.758 8.6,-5.221 20.8,-10.087 3.87,-4.533 1.97,-3.49 -3.25,-4.911 -7.98,-3.421 7.48,-2.533 2.3,-6.179 -4.5,-0.563 0.24,-3.353 -7.56,2.905 -12.86,1.271 -18.5,-2.206 -7.94,-2.884 -7.15,-1.476 1.01,-3.425 13.82,-4.416 -8.12,-0.042 15.92,-9.671 20.22,-8.388 12.87,-3.781 18.39,-2.445 -15.26,5.966"
         vector-effect="none"
         id="path232"
         style="fill:#1c64a3;fill-opacity:1;stroke:none;stroke-opacity:1" />
      <path
         fill-rule="evenodd"
         d="m 1050.96,308.662 1.98,1.933 11.97,-1.164 -4.38,2.669 -14.48,4.448 -0.1,4.031 -18.08,8.534 -16.67,3.716 -3.95,-0.804 3.41,-3.66 1.44,-7.316 6.64,-3.002 8.65,1.162 7.32,-6.092 16.25,-4.455"
         vector-effect="none"
         id="path234"
         style="fill:#1c64a3;fill-opacity:1;stroke:none;stroke-opacity:1" />
      <path
         fill-rule="evenodd"
         d="m 2350.26,314.484 -7.95,0.065 -14.19,-1.033 -2.44,-0.49 -6.29,-3.641 3.89,-0.848 18.68,3.515 8.3,2.432"
         vector-effect="none"
         id="path236"
         style="fill:#1c64a3;fill-opacity:1;stroke:none;stroke-opacity:1" />
      <path
         fill-rule="evenodd"
         d="m 1068.31,318.59 -19.8,7.048 -5.71,-0.354 13.23,-8.267 9.73,-4.616 11.09,-3.909 10.52,-2.487 10.14,0.317 5.39,2.223 -24.49,8.23 -10.1,1.815"
         vector-effect="none"
         id="path238"
         style="fill:#1c64a3;fill-opacity:1;stroke:none;stroke-opacity:1" />
      <path
         fill-rule="evenodd"
         d="m 886.83,331.606 -26.846,4.81 7.29,-4.233 -0.375,-5.062 9.914,-3.094 24.937,-7.777 21.229,-6.084 10.637,-5.596 21.392,-1.414 2.119,1.881 11.842,0.505 -1.953,2.642 -4.329,3.868 -12.67,2.335 -29.967,6.568 -23.418,6.63 -9.802,4.021"
         vector-effect="none"
         id="path240"
         style="fill:#1c64a3;fill-opacity:1;stroke:none;stroke-opacity:1" />
      <path
         fill-rule="evenodd"
         d="m 2330.08,297.454 6.75,3.538 -10.91,-0.804 -21.63,-3.526 -8.98,-2.87 13.95,1.335 20.82,2.327"
         vector-effect="none"
         id="path242"
         style="fill:#1c64a3;fill-opacity:1;stroke:none;stroke-opacity:1" />
      <path
         fill-rule="evenodd"
         d="m 1108.59,298.382 -10.44,3.479 -5.89,-0.671 -0.83,-2.339 11.93,-4.007 12.6,-2.378 -2.85,3.099 -4.52,2.817"
         vector-effect="none"
         id="path244"
         style="fill:#1c64a3;fill-opacity:1;stroke:none;stroke-opacity:1" />
      <path
         fill-rule="evenodd"
         d="m 2287.01,293.211 19.05,6.603 -19.42,-0.248 -1.44,2.123 -28.97,-5.815 -17.79,-6.055 0.63,-1.635 13.94,0.382 34,4.645"
         vector-effect="none"
         id="path246"
         style="fill:#1c64a3;fill-opacity:1;stroke:none;stroke-opacity:1" />
      <path
         fill-rule="evenodd"
         d="m 1121.44,283.15 -6.52,3.994 -10.82,4.477 -17.89,6.583 -10.43,0.917 -1.98,-1.429 12.74,-5.169 -9.69,0.678 17.01,-6.75 4.38,0.271 14.68,-2.94 5.27,0.496 3.25,-1.128"
         vector-effect="none"
         id="path248"
         style="fill:#1c64a3;fill-opacity:1;stroke:none;stroke-opacity:1" />
      <path
         fill-rule="evenodd"
         d="m 1064,287.62 -6.55,3.106 8.2,-1.462 4.02,0.379 -10.4,4.302 -13.77,4.212 -20.57,1.389 -22.94,3.899 -8.34,0.205 7.13,-2.94 21.02,-3.955 -25.427,1.061 -2.501,-1.592 31.428,-8.581 11.61,-2.42 4.8,2.922 -5.84,5.185 6.76,0.67 16.08,-8.354 13.21,-3.131 1.95,0.993 -9.87,4.112"
         vector-effect="none"
         id="path250"
         style="fill:#1c64a3;fill-opacity:1;stroke:none;stroke-opacity:1" />
      <path
         fill-rule="evenodd"
         d="m 1915.36,338.176 -2.52,0.854 -20.54,-1.264 -6.08,-4.299 -13.11,-2.579 -6.24,-5.157 3.53,-2.035 -5.86,-5.132 1.47,-7.916 -6.21,-1.123 2.43,-7.981 -6.72,-4.067 4.6,-4.678 7.52,-5.614 13.1,-1.619 2.57,-3.184 6.98,-1.109 9.28,3.382 1.56,2.688 -9.79,4.327 -8.48,4.211 -3.63,8.541 3.75,8.944 2.28,8.99 10.16,7.901 19.95,7.919"
         vector-effect="none"
         id="path252"
         style="fill:#1c64a3;fill-opacity:1;stroke:none;stroke-opacity:1" />
      <path
         fill-rule="evenodd"
         d="m 1147.18,279.928 -1.73,2.74 9.14,-0.019 -2.67,2.826 -8.6,3.255 1.04,1.976 -1.54,2.086 5.74,0.388 5.57,0.739 11.77,-1.91 11.43,-0.747 6.62,0.617 -1.31,3.328 -5.94,3.684 -7.66,2.385 -11.26,1.938 -4.45,-1.098 -17.4,1.392 -10.87,0.16 -5.97,-1.114 -7.32,-2.899 9.12,-4.891 9.37,-4.363 4.16,-3.8 -7.18,-1.055 1.27,-2.662 10.69,-3.494 7.98,0.538"
         vector-effect="none"
         id="path254"
         style="fill:#1c64a3;fill-opacity:1;stroke:none;stroke-opacity:1" />
      <path
         fill-rule="evenodd"
         d="m 1063.86,275.318 -20.96,6.49 -12.63,2.974 -5.65,0.421 -20.04,3.709 -11.719,1.337 -0.7,-1.889 v 0 l 28.229,-6.446 26.97,-5.482 6.46,0.117 10.04,-1.231"
         vector-effect="none"
         id="path256"
         style="fill:#1c64a3;fill-opacity:1;stroke:none;stroke-opacity:1" />
      <path
         fill-rule="evenodd"
         d="m 2067.37,280.978 13.1,4.234 -1.58,-2.09 13.87,0.113 22.73,4.207 13.17,3.264 11.6,4.58 1.66,2.633 -0.24,4.986 2.92,2.688 9.63,1.276 13.54,2.308 0.34,-1.732 17.57,5.903 -3.68,-2.399 4.74,-1.453 20.92,1.519 12.59,4.327 26.25,1.385 -18.79,-7.067 15.68,1.609 8.33,-0.049 22.29,4.879 18.97,5.999 7.3,3.963 26.83,7.537 19.25,3.93 -21.04,-10.098 20.74,4.306 2.74,-2.577 19.17,2.949 -3.25,-2.69 13.11,1.344 -29.39,-8.831 -4.79,-4.066 68.5,6.109 22.18,5.651 37.33,7.367 17.94,-1.833 16.55,1.596 17.36,4.026 21.05,7.191 15.9,2.825 2.06,-2.033 9.96,-0.259 17.44,1.946 8.15,-1.098 38.04,8.88 -2.15,-3.21 -24.88,-6.366 -11.35,-4.384 28.12,2.755 10.6,-0.59 33.04,4.729 22.88,4.356 124.11,41.145 0.11,0.056 4.05,4.681 -11.14,-0.783 21.71,5.702 27.81,8.902 10.96,2.931 12.5,4.519 5.53,2.908 -19.64,-2.391 0.01,8.286 -3.46,1.29 7.05,7.812 4.78,6.875 8.66,5.121 -28.32,-7.783 -0.38,8.836 -12.59,-4.191 3.07,4.836 -13.6,-1.549 13.22,7.456 13.18,11.069 9.55,4.655 14.21,2.588 31.64,16.961 -6.8,0.434 14.65,9.858 12.69,5.102 -3.92,6.08 20.55,13.691 -7.91,2.943 17.47,12.321 5.21,11.388 -16.39,-8.431 -32.13,-17.693 -49.7,-26.529 -25.27,-16.283 -6.09,-6.941 -9.84,-5.408 7.39,-2.578 -14.75,-14.407 -11.13,-11.622 -5.93,-8.927 -29.66,-15.576 -6.68,0.926 16.34,9.079 7.81,12.239 -35.9,-13.696 -10.94,3.763 20.06,18.786 20.23,6.96 -11.61,2.978 -9.85,1.177 -15.29,-8.235 -15.34,-1.719 1.08,5.578 -27.43,-1.956 -19.4,3.373 13.11,22.477 12.03,27.734 15.49,1.499 15.31,7.477 12.2,2.662 -3.51,-5.978 10.46,0.776 32.14,13.205 15.37,10.299 10.43,12.189 19.34,14.695 21.89,19.885 8.59,18.198 7.29,8.766 4.21,14.847 3.35,14.831 1.84,7.632 -5.12,7.608 -5.98,0.169 -12.53,-6.303 -3.53,9.499 2.73,4.33 -4.5,-0.781 0.02,4.419 1.31,4.446 9.23,9.414 -2.47,2.904 0.36,2.322 -0.24,3.895 -4.73,2.168 -1.21,3.548 4.69,5.73 0.09,1.463 5.88,2.156 10.74,5.826 22.04,15.738 9.65,8.686 12.41,15.509 1.79,7.427 -7.5,2.599 -4.2,5.623 -8.61,1.162 -6.6,-7.383 -5.7,-10.138 -15.44,-14.01 5.87,-2.26 -16.28,-11.455 -7.04,-2.543 0.81,2.511 -2.1,1.108 -2.39,-2.513 -3.64,-1.223 -4.48,-2.126 -2.04,-5.863 1.1,-1.561 -2.94,-2.429 -3.49,-7.152 -2.52,-2.166 -7.11,-1.439 -7.79,-3.544 -10.77,3.841 -2.25,6.19 -7.92,3.621 0.33,-6.145 -6.41,-5.153 0.4,-8.869 -11.24,-6.89 -4.67,4.639 -3.57,9.168 0.8,8.543 -9.39,0.637 -0.25,6.194 12.36,9.002 10.05,2.191 4.94,5.997 11.1,3.909 4.12,-9.548 13.15,5.203 6.91,0.355 7.12,7.017 -11.74,3.75 0.58,7.26 -5.17,6.762 1.36,9.464 16.47,7.45 13.26,13.385 14.74,12.52 14.05,10.529 6.25,10.219 -4.45,3.761 7.04,7.363 8.94,4.29 4.93,11.283 3.47,11.013 -5.43,1.25 0.12,15.094 0.4,18.375 -2.29,16.777 -9.5,13.016 -10.51,11.9 -12.01,1.626 -4.34,6.294 -5.75,-4.597 -3.56,7.041 -13.04,7.112 -11.16,2.176 1.59,15.027 -6.01,0.836 -6.67,-10.333 0.67,-5.499 -16.87,-4.547 -4.49,2.311 -10.79,12.166 -4.94,13.465 0.68,9.906 13.4,15.088 16.17,18.74 12.91,8.88 10.07,11.55 11.79,26.7 3.8,25.45 -7.94,9.54 -11.76,9.34 -7.59,12.1 -12.66,13.54 -5.6,-9.33 1.78,-9.84 -10.04,-8.24 -10.16,-2.12 -6.07,-7.55 -8.67,-14.97 -11.77,-6.64 -9.92,0.27 -0.59,-11.36 -10.23,0.09 2.23,15.9 -2.55,21.16 -1.78,12.82 2.35,10.51 7.71,0.46 6.55,13.26 3.63,12.6 7.49,8.33 7.32,1.7 6.87,7.56 2.84,1.36 7.77,8.8 5.75,9.76 1.38,9.82 -0.84,6.63 1.43,5.02 1.28,8.64 4.34,4.02 5.07,12.91 -0.11,4.94 -8.37,0.97 -11.46,-10.82 -14.42,-11.58 -1.73,-7.44 -7.38,-9.75 -2.44,-12.08 -4.87,-7.95 0.37,-10.62 -3.19,-6.17 -5.23,-5.59 -2.79,-7.21 -7.21,-8.22 -6.54,-6.89 -0.89,8.55 -3.21,-8.09 0.1,-9.06 1.46,-13.94 -2.8,-10.77 1.73,-11.1 -5.45,-8.57 -2.06,-15.76 -6.25,-7.49 -7.51,-17.27 -6.35,-18.19 -7.96,-11.89 -5.78,7.2 -10.68,10.25 -6.78,-1.28 -7.94,-3.38 -0.38,-17.8 -5.91,-13.414 -13.52,-16.487 -0.08,-5.147 -7.2,-1.829 -11.51,-11.622 -5.49,-7.418 -2.91,-7.237 -4.33,-6.828 -7.4,-8.248 -10.55,-0.566 2.92,5.838 -1.05,7.891 -5.71,-2.875 -0.84,2.582 -3.68,-1.549 -4.76,-1.269 -0.02,5.181 -7.75,-0.18 -13.07,2.952 3.75,10.696 -3.72,8.426 -13.84,9.6 -8.6,16.821 -6.51,9.032 -9.36,9.39 1.4,6.61 -5.01,3.54 -9.35,5.15 -5.24,0.76 -1.35,10.98 5.78,18.76 2.61,11.99 -2.81,13.74 3.33,24.63 -5.97,0.7 -4,11.07 4.11,4.79 -10.25,4.12 -2.94,9.89 -4.32,4.18 -12.49,-13.58 -7.71,-20.34 -6.34,-14.62 -5.01,-6.86 -8.17,-13.9 -5.68,-18.07 -3.49,-9.02 -14,-19.77 -10.16,-27.82 -7.3,-18.311 -3.87,-17.278 -5.39,-13.325 -14.48,8.512 -8.39,-1.705 -18.87,-17.217 4.18,-5.123 -4.72,-5.56 -16.22,-11.999 -9.13,-3.568 -5.97,-10.131 -11.47,-10.709 -19.78,2.644 -18.01,0.261 -15.18,1.971 -21.96,-4.242 -12.89,-3.229 -12.96,-1.822 -8.88,-17.171 -5.89,-2.476 -7.85,2.495 -9.52,6.77 -14.57,-4.642 -13.61,-10.729 -11.49,-3.971 -10.41,-13.196 -12.5,-18.468 -5.28,2.241 -7.99,-4.578 -2.74,5.391 -6.59,-0.677 3.7,6.107 -0.25,3.162 5.89,10.467 6.95,12.004 6.1,3.185 2.95,4.903 8.79,5.877 1.9,5.775 -0.12,4.667 2.38,4.714 4,3.935 2.43,4.611 2.36,3.447 -2.83,-10.229 1.45,-7.361 2.7,-1.508 4.29,4.397 1.93,8.22 -0.72,8.274 3.2,5.382 1.85,-0.686 1.19,3.867 8.31,-2.222 9.32,0.369 6.84,0.415 5.63,-9.524 6.31,-9.014 5.02,-8.649 2.09,-4.768 1.66,1.215 0.33,5.788 -0.86,2.544 4.05,11.101 7.14,9.617 7.37,5.12 8.62,1.846 7.2,2.573 6.84,8.103 4.04,4.702 4.42,1.793 0.65,3.163 -2.36,8.455 -1,3.985 -3.88,4.546 -2.36,9.748 -5.3,-0.746 -1.73,3.396 -0.52,7.23 3.07,9.544 -0.77,1.758 -5.27,-0.049 -6.26,5.346 0.02,6.977 -2.15,3.02 -7.16,-0.12 -3.94,3.61 0.93,5.8 -4.99,3.98 -6.55,-1.35 -7.01,4.84 -5.21,0.81 -7.82,3.86 -1.4,6.39 0.36,4.9 -10.78,6.08 -17.73,6.73 -9.28,10.17 -5.03,0.8 -3.58,-0.86 -6.18,6 -7.14,2.78 -9.7,0.75 -2.86,0.82 -2.2,3.82 -2.95,1.05 -1.48,3.68 -5.79,-0.32 -3.56,1.97 -8.13,-0.74 -3.76,-8.45 -0.38,-7.9 -2.3,-4.25 -3.29,-10.67 -3.92,-5.92 2.25,-0.71 -1.87,-6.57 1.11,-2.78 -1.18,-6.27 -2.17,-6.13 -3.96,-4.33 -1.54,-5.72 -6.52,-5.14 -7.53,-12.001 -4.66,-11.643 -9.12,-9.817 -5.37,-2.34 -9.28,-13.561 -2.62,-9.869 -0.68,-8.404 -8.68,-15.68 -6.05,-5.506 -6.46,-2.916 -4.86,-8.07 0.14,-3.178 -4.18,-7.286 -3.72,-3.132 -5.92,-10.421 -8.47,-11.27 -7.12,-9.575 -5.44,0.07 0.48,-7.637 -0.31,-4.86 0.43,-5.536 -0.7,-2.003 -2.13,5.569 -0.65,10.492 -1.85,7.25 -2.19,2.434 -4.34,-4.498 -5.88,-6.21 -10.86,-19.878 -0.92,1.253 6.78,14.628 8.83,13.991 11.52,21.771 5.18,7.624 4.68,7.936 12.17,15.596 -1.9,2.458 1.58,9.185 14.77,12.711 2.35,2.904 5.4,13.938 -2.17,2.58 3.39,14.667 6.11,17.057 4.74,3.523 6.85,5.294 8.42,16.6 4.5,13.19 7.01,7.01 17.09,13.62 7.2,8.22 7.04,8.33 4.07,4.97 6.1,4.35 3.13,4.48 0.12,6.01 -6.39,3.46 5.32,3.97 4.01,2.67 2.74,5.99 5.72,6.07 5.81,0.05 10.77,-3.71 12.62,-1.72 9.94,-4.5 5.72,-0.96 3.96,-2.64 6.61,-0.51 3.71,-0.29 5.2,-2.15 6.07,-1.46 5.07,-4.95 4.42,-0.04 0.64,4 -0.32,8.43 0.69,7.62 -2.04,5.24 -2.12,15.7 -4.58,16.24 -6.22,18.58 -9.15,21.36 -9.51,16.33 -13.4,19.9 -11.63,11.81 -17.55,14.5 -10.98,11.11 -12.99,17.69 -2.79,7.7 -2.71,3.45 -8.35,5.83 -3.01,6.09 -4.45,1.07 -1.86,10.29 -3.92,5.88 -2.54,9.71 -4.89,4.82 -6.02,17.96 0.4,8.25 7.34,5.31 0.19,3.79 -3.63,8.79 0.46,4.42 -1.11,6.95 3.62,9.11 4.02,14.32 4.1,3.17 1.47,6.51 -1.5,14.44 0.48,12.7 -1.45,22.58 1.4,7.06 -4.43,10.3 -5.47,9.99 -8.25,8.91 -11.09,5.46 -13.68,6.96 -14.56,15.37 -4.68,2.61 -9.06,10.15 -5.05,3.3 -2.08,10.17 4.14,10.77 1.24,8.33 -0.38,4.25 2.08,-0.71 -2.09,13.89 -2.68,6.56 2.32,2.42 -2.46,5.87 -5.36,5.02 -9.85,4.75 -14.41,7.61 -5.57,5.2 0.14,5.9 2.71,0.95 -1.99,7.36 -4.2,10.17 -3,11.58 -3.76,6.27 -8.49,7.01 -2.43,2 -5.65,7.03 -4.1,7.1 -7.62,9.87 -14.29,14.18 -8.78,8.21 -8.96,6.21 -11.86,5.29 -5.49,0.71 -1.91,3.78 -6.12,-2.01 -5.59,2.59 -11.07,-2.62 -6.61,1.65 -4.27,-0.71 -11.54,5.37 -9.23,2.15 -7.09,5.12 -4.8,0.33 -3.89,-4.84 -3.52,-0.24 -3.89,-6.07 -0.69,1.89 -1.02,-3.66 0.87,-7.99 -2.54,-9.15 3.68,-2.49 0.74,-10.53 -5.86,-12.87 -4.42,-11.7 -0.01,-0.04 -6.38,-18.01 -7.37,-10.51 -3.6,-10.19 -1.56,-13.62 -2.11,-10.17 -2.5,-21.68 0.65,-16.91 -1.05,-7.73 -4.11,-5.85 -5.31,-11.75 -5.27,-17.09 -2.14,-8.97 -8.83,-13.96 -0.34,-11 -0.8,-9.03 1.97,-12.64 4.37,-13.18 0.77,-6.19 4.12,-13.01 2.92,-5.92 6.94,-9.46 3.91,-6.44 1.49,-10.74 -0.42,-8.21 -3.39,-5.19 -2.94,-8.8 -2.72,-8.72 0.68,-3.02 3.72,-5.76 -3.34,-14.06 -2.28,-9.74 -5.78,-9.22 1.15,-2.83 -1.6,-4.52 -3.05,-10.96 -9.58,-15.44 -12.06,-14.73 -7.78,-12.05 -7.15,-15.08 0.39,-4.85 2.59,-4.67 2.87,-10.63 2.38,-10.82 -2.22,-2.2 4.02,-16.4 1.68,-11.52 -4.66,-9.65 -5.41,-2.47 -2.44,-6.54 -3.04,-2.09 0.11,-4.03 -12.23,5.25 -4.49,-0.77 -4.52,3.27 -9.46,-0.32 -6.36,-9.13 -3.93,-10.55 -8.39,-9.6 -8.86,0.18 -10.41,-0.01 -9.74,1.7 -9.49,3.11 -18.5,8.53 -6.57,5.01 -10.64,4.22 -10.52,-4.14 -5.38,0.15 -8.23,-2.85 -7.57,0.17 -13.99,2.54 -8.22,4.21 -11.72,5.35 -2.28,-0.38 -3.1,0.13 -12.13,-6.96 -10.65,-11.09 -9.97,-7.97 -7.84,-9.4 -3.16,-1.08 -8.41,-5.87 -6.01,-7.79 -1.98,-5.32 -1.25,-10.74 -4.99,-8.6 -4.44,-5.69 -2.97,-1.88 -2.86,-2.88 -1.18,-6.41 -1.63,-3.2 -3.35,-2.37 -6.08,-6.06 -4.89,-0.96 -2.56,-4.08 0.13,-2.21 -3.47,-3.07 -0.64,-3.1 -1.55,-11.08 1.71,-6.41 -4.38,-11.24 -5.58,-5.14 5.2,-2.73 6.02,-10.11 3.04,-7.39 -0.67,-7.74 3.52,-7.08 2.03,-13.5 -0.6,-14.136 -1.03,-7.101 1.5,-7.113 -2.58,-6.772 -5.65,-6.148 0.83,-6.005 0.92,-6.58 4.56,-3.868 4.12,-7.382 -0.44,-4.792 4.46,-9.972 6.76,-8.966 3.9,-2.271 3.44,-8.206 0.71,-7.485 4.53,-8.669 7.67,-5.101 7.82,-14.263 6.04,-5.549 10.26,-1.536 9.11,-9.503 5.65,-3.697 9.62,-11.564 -1.86,-17.159 4.66,-11.82 1.79,-7.213 7.29,-9.23 10.89,-6.226 8.06,-5.624 7.54,-14.039 3.58,-8.297 7.65,0.064 6.11,5.734 9.94,-0.936 10.75,2.986 4.54,0.142 10.09,-7.381 11.25,-2.343 6.54,-5.557 9.93,-4.092 17.46,-2.393 17.02,-1.09 5.27,1.995 9.5,-5.288 10.99,-0.105 4.33,3.122 7.01,-0.815 10.89,-5.408 7.29,1.606 0.13,6.785 8.41,-4.936 0.91,2.575 -4.71,6.581 0.33,6.227 3.82,3.35 -0.62,11.702 -6.49,6.82 2.43,7.406 5.47,0.234 3.06,6.478 4.17,2.131 12.77,4.701 4.38,-1.175 9.05,2.28 14.61,6.118 6.01,12.199 9.86,2.668 15.67,5.768 12.14,6.856 4.92,-3.58 4.53,-6.341 -3.59,-10.532 2.65,-6.671 6.97,-6.414 7.1,-1.865 14.72,2.801 4.39,6.119 3.98,0.058 3.7,2.338 10.83,1.609 3.2,4.533 14.23,-0.225 10.83,3.634 11.25,4.065 5.3,2.145 7.63,-4.361 3.81,-3.942 9.27,-1.132 7.91,1.734 4.04,6.825 1.76,-4.495 9.16,3.25 8.52,0.779 4.68,-3.468 2.32,-4.529 -0.87,-0.778 1.66,-6.414 0.22,-10.33 0.86,-3.458 0.27,-0.139 1.57,-11.102 3.27,-9.57 0.1,-0.472 -3.17,-10.356 1.35,-5.553 -5.16,-6.11 2.79,-5.05 -6.04,1.145 -9.31,-3.089 -5.46,7.734 -15.42,1.516 -9.81,-7.22 -11.21,-0.451 -1.33,5.576 -6.87,1.599 -11.3,-7.161 -11.22,0.241 -8.4,-13.325 -8.75,-7.402 3.11,-10.344 -7.54,-6.333 8.79,-12.629 15.28,-0.527 2.1,-9.985 19.29,1.736 9.94,-8.494 10.58,-3.693 16.2,-0.277 19.67,9.215 15.62,5.073 11,-2.023 8.89,1.171 9.66,-6.842 -0.24,-5.586 -5.22,-8.885 -7.14,-4.787 -5.86,-1.492 -4.79,-3.968 -15.69,-10.905 -12.43,-4.849 -10.52,-7.528 6.3,-2.043 4.46,-10.658 -6.87,-5.023 12.05,-5.162 -1.19,-2.763 -7.66,2.035 -7.11,1.011 -4.9,4.094 -8.55,0.669 -6.66,4.727 2.89,7.919 5.54,3.08 9.45,-0.767 -0.49,4.563 -9.79,2.218 -10.92,7.43 -6.04,-2.615 0.47,-6.03 -11.42,-3.744 1.02,-2.45 7.89,-4.24 -3.55,-2.915 -15.51,-3.213 -1.93,-4.728 -8.26,1.561 -1.67,6.994 -4.98,9.429 1.03,3.299 -3.97,2.758 -3.19,-1.2 0.87,15.524 -3.85,5.358 -1.58,9.285 4.72,7.431 2.21,5.025 9.52,4.229 -1.13,3.213 -11.65,0.722 -3.45,4.062 -7,7.093 -4.28,-6.133 -0.36,-2.714 -6.14,-0.372 -5.41,-1.243 -11.46,3.417 8.18,7.401 -4.73,2.151 -5.58,0.013 -6.4,-6.789 -1.41,2.892 3.49,7.885 6.02,6.213 -3.36,2.908 6.61,6.124 5.64,3.862 1.33,7.54 -10,-3.54 4.04,6.816 -6.31,1.405 5.62,11.842 -6.85,0.167 -9.27,-5.843 -5.31,-10.714 -3.02,-8.875 -4.81,-6.117 -6.23,-7.565 -1.2,-3.771 -1.84,-0.925 -0.6,-2.907 -6.16,-4.431 -1.73,-6.271 -0.41,-8.952 0.77,-4.064 -1.95,-2.059 -2.21,-1.011 -3.36,-4.257 -4.6,-2.586 -9.85,-4.81 -6.26,-4.669 -9.37,-3.848 -9.29,-9.497 1.83,-0.96 -5.03,-5.406 -0.71,-4.327 -6.36,-2.02 -2.29,5.531 -3.29,-4.292 -0.29,-4.437 0.31,-0.207 1.98,-1.159 -7.75,-1.857 -7.22,4.529 1.16,6.354 -0.8,3.657 3.8,6.549 9.72,6.502 6.03,10.713 12.06,10.497 7.71,-0.081 2.74,2.887 -2.46,2.606 9.43,4.734 7.78,3.971 9.43,6.859 1.35,2.463 -1.27,4.725 -6.33,-6.16 -8.95,-2.169 -3.23,8.533 7.85,4.905 -0.4,6.919 -4.15,0.786 -4.19,11.419 -4.15,1.028 -0.38,-4.079 1.33,-7.135 1.89,-2.837 -4.77,-7.682 -3.78,-6.662 -4.34,-1.647 -3.54,-5.685 -6.65,-2.39 -4.83,-5.275 -7.42,-0.85 -8.26,-5.909 -9.74,-8.495 -7.26,-7.489 -4.06,-12.792 -4.91,-1.499 -8.15,-4.249 -4.3,1.737 -5.19,5.983 -3.96,0.948 -8.39,7.312 -19.31,-3.508 -14.03,4.203 -0.94,7.823 0.69,7.575 -9.2,8.715 -12.69,2.772 -0.86,4.42 -6.12,7.3 -3.88,10.761 3.94,7.584 -5.88,5.935 -2.25,8.676 -7.75,2.663 -7.4,10.308 -13.11,0.204 -9.83,-0.255 -6.61,4.747 -4.12,5.087 -5.04,-1.118 -3.67,-4.547 -2.62,-7.725 -9.52,-2.079 -4.3,3.481 -5.34,-1.885 -5.39,1.475 2.15,-10.479 -0.49,-8.204 -4.48,-1.228 -2.11,-5.042 1.36,-8.684 4.32,-4.804 1.05,-5.336 2.58,-7.918 0.13,-5.562 -1.68,-4.705 -0.14,-4.408 1.12,-9.282 -3.59,-5.635 14.35,-9.342 11.71,2.334 13.01,-0.083 10.23,2.209 8.07,-0.678 15.67,0.427 5.1,-7.747 2.08,-25.52 -9.48,-13.31 -6.7,-6.379 -13.96,-4.838 -0.55,-9.13 11.93,-2.715 15.25,3.21 -2.65,-14.083 8.46,5.323 20.97,-9.664 2.53,-10.091 7.69,-2.475 7.02,-2.418 4.41,-3.356 6.84,-17.858 11.45,-5.039 7.13,0.339 1.48,-2.542 7.07,-0.652 1.81,2.646 5.25,-5.912 -2.36,-4.477 -1.02,-6.746 -4,-6.566 -1.37,-12.01 1.06,-3.153 1.97,-3.493 7.03,-0.72 2.46,-3.2 6.04,-3.265 0.48,5.956 -1.92,3.79 1.37,3.266 4.64,1.771 -1.45,4.421 -2.6,-1.275 -4.96,8.474 2.89,5.764 0.66,4.592 8.83,2.776 0.41,4.241 8.34,-2.245 4.31,-3.27 10.22,4.716 4.58,3.813 5.26,-3.517 12.26,-5.522 9.82,-4.024 8.78,2.008 1.23,2.905 8.16,0.151 0.77,-5.235 10.65,-3.847 -4.14,-9.914 -1.88,-8.811 2.11,-7.302 6.49,-3.952 8.77,8.663 6.42,-0.226 -1.05,-8.9 -1.11,-6.792 -2.47,1.447 -6.21,-4.074 -2.62,-6.56 8.84,-3.166 9.2,-1.646 9.02,1.873 7.87,-0.336 6.43,-6.251 -10,-5.348 -13.45,0.893 -12.03,4.125 -11.74,2.38 -6.24,-6.145 -8.41,-3.682 -1.54,-10.964 -6.54,-9.93 1.49,-6.354 4.25,-6.799 11.81,-11.614 3.72,-2.222 -2.49,-4.472 -11.34,-4.964 -10.49,2.97 -4.08,7.372 3.22,6.528 -8.53,8.65 -11.28,9.351 -1.55,15.521 7.21,7.862 8.78,6.235 -4.07,12.793 -7.56,2.673 0.89,19.367 -2.55,10.948 -10.15,-1.134 -3.14,9.336 -9.53,0.544 -4.25,-11.125 -8.69,-13.222 -8.32,-16.27 -6.17,-6.989 -13.88,13.205 -10.3,2.696 -11.39,-5.847 -3.64,-12.246 -4.17,-25.8 6.19,-7.07 18.04,-9.144 12.32,-11.108 9.89,-14.762 11.26,-19.984 8.51,-7.633 12.82,-12.52 11.51,-4.309 10.02,0.522 5.24,-8.073 10.81,0.428 9.37,-1.925 22.42,7.104 -6.11,2.621 10.16,6.201 4.21,-3.441 13.65,5.992 18.37,2.377 31.5,11.415 8.32,4.857 5.18,6.86 -3.7,5.462 -9.15,2.789 -34.35,-7.92 -4.11,1.319 15.1,7.644 9.48,15.742 10.78,3.27 7.04,2.794 -2,-5.21 -7.03,-4.759 2.32,-3.858 20.63,6.625 4.25,-2.6 -9.49,-7.763 8.87,-10.261 6.54,0.599 8.82,3.65 -1.33,-7.156 -10,-6.152 -1.47,-6.115 -9.49,-6.286 20.17,3.243 8.25,5.701 -7.14,1.262 4.47,5.722 7.88,3.543 8.4,-2.246 -3.74,-6.568 9.26,-4.862 13.96,-8.677 5.16,0.494 -0.3,6.126 8.86,1.057 1.17,-3.46 11.5,-0.279 4.94,-4.173 13.56,6.072 -0.1,-6.672 -12.84,-5.78 -0.52,-3.267 21.36,2.995 12.14,3.11 36.35,11.503 -2.23,-5.295 -12.87,-5.303 -2.82,-2.117 -8.58,-0.976 -3.88,-4.693 -12.98,-7.643 -4.23,-3.106 -1.27,-8.687 -8.74,-8.574 1.3,-1.835 18.17,2.463 9.17,5.236 6.06,7.733 8,3.073 11.51,6.798 17.02,13.562 14.96,6.166 5.97,6.781 4.98,14.66 9.43,1.538 -1.81,-3.752 4.02,-2.664 -4.61,-5.107 -0.65,-4.879 -11.24,-5.78 -5.97,-6.647 -7.86,-0.822 -8.98,-5.538 -9.1,-9.869 -19.02,-7.884 0.42,-6.433 -11.81,-6.695 2.37,-0.214 11.21,5.213 11.96,9.199 8.83,1.762 -13.22,-6.916 3.47,-3.731 10.72,-0.5 19.37,5.413 -18.24,-7.888 -17.84,-9.907 5.8,-1.852 13.39,0.405 9.05,-1.199 -13.59,-4.753 -6.16,-5.894 5.21,-0.244 0.05,-4.391 10.18,-1.171 -3.96,-2.395 10.61,-0.807 8.65,1.957 -0.77,-4.615 8.99,0.144 -8.44,-3.705 -5.42,-3.613 0.81,-3.445 15.46,2.716 -0.24,2.082 13.99,1.301 m -2.86,399.907 8.35,9.316 4.87,0.613 4.34,3.553 -7.87,1.061 1.76,10.263 -0.18,4.641 -2.7,3.105 2.41,6.587 6.38,9.84 10.61,2.785 9.29,6.723 15.4,2.314 14.92,-3.55 -0.08,-3.134 -5.18,-9.456 -3.47,-13.923 -9.51,-4.491 -0.73,-9.055 -6.94,-0.771 -1.93,-11.097 10.62,3.226 7.11,-4.206 -10.32,-7.868 -5.8,-7.471 -6.6,3.33 2.69,9.589 -6.34,-8.481 -1.8,-3.186 0.28,-5.43 -3.67,-4.53 -13.05,-4.423 -9,-11.609 -6.63,-3.259 -2.01,-4.189 9.82,1.221 -3.54,-9.375 7.2,-2.076 9.13,1.91 -3.82,-12.438 -5.24,-7.842 -9.07,0.613 -9.32,-3.086 -8.38,5.563 -7.62,2.659 -1.18,7.545 -8.33,2.101 -4.36,13.213 13.33,12.227 2.25,8.721 16.25,15.336 7.66,6.891"
         vector-effect="none"
         id="path258"
         style="fill:#1c64a3;fill-opacity:1;stroke:none;stroke-opacity:1" />
      <path
         fill-rule="evenodd"
         d="m 1370.63,233.51 6.6,0.538 4.21,0.884 0.89,1.892 -4.75,1.884 -15.57,3.109 -11.77,1.471 -7.14,1.641 7.64,-0.038 -19.02,4.517 -11,2.145 -21.02,6.309 -11.08,1.302 -6.23,1.612 -14.12,0.85 3.24,1 -6.11,1.43 -5.52,3.992 -10.18,2.809 -11.79,2.34 -9.16,3.266 -11.66,2.518 -3.45,1.92 8.49,-0.329 -4.17,2.082 -23.08,5.171 -7.35,-2.388 -16.74,1.34 -4.69,-1.047 -7.85,-0.452 9.03,-4.111 12.96,-1.92 12.4,-6.051 4.1,-0.582 3.14,3.596 6.79,-5.329 -3,-1.575 11.46,-3.15 12.28,-1.922 8.37,-2.785 2.65,-3.087 9.56,-4.009 9.46,0.332 0.72,0.839 13.54,-2.807 -5.93,-0.883 -14.41,0.486 1.22,-2.578 6.51,-3.028 2.99,-2.165 7.66,-2.489 9.69,-1.376 4.66,-0.234 10.37,-1.159 13.68,-2.633 2.67,0.366 -3.07,1.98 14.96,-3.795 7.79,-1.106 7.99,-0.759 10.14,-0.284 -0.76,0.74 12.33,-1.158 5.17,0.433 5.26,0.435"
         vector-effect="none"
         id="path260"
         style="fill:#1c64a3;fill-opacity:1;stroke:none;stroke-opacity:1" />
      <path
         fill-rule="evenodd"
         d="m 1499.13,230.704 13.4,5.433 -8.24,2.713 -12.72,0.313 -18.37,0.696 0.12,1.281 12.62,-0.792 7.61,2.491 8.49,-2.214 0.6,2.596 -7.33,4.292 11.1,-2.755 18.47,-2.83 9.4,1.407 0.52,3.145 -17.39,5.353 -3.08,1.761 -12.93,1.333 8.62,0.371 -7.9,5.717 -6.32,5.201 -5.01,9.158 2.56,5.508 -7.33,0.352 -9.08,2.706 6.27,4.581 -2.49,7.471 -5.71,0.822 2.93,7.73 -11.77,0.652 4.28,3.711 -3.22,3.245 -8.21,1.432 -7.49,0.027 3.68,6.317 -1.88,4.198 -9.07,-3.903 -4.14,2.521 6.34,2.367 4.71,5.832 -1.17,7.786 -11.34,1.879 -2.78,-3.754 -4.41,-5.545 -1.31,6.558 -9.42,5.135 15.52,0.417 7.99,0.536 -20.04,8.619 -20.64,7.911 -20.27,3.498 -7.02,0.043 -8.8,3.923 -15.2,10.868 -18.52,7.307 -4.9,0.432 -10.54,2.579 -11.27,2.462 -10,6.555 -4.75,7.494 -7.9,7.082 -17.04,8.709 -2.23,8.587 -8.73,9.174 -10.18,10.944 -11.17,0.687 -5.67,-9.167 -15.02,-0.057 -3.21,-6.109 2.53,-10.783 -2.5,-13.549 1.88,-7.014 6.76,-9.573 -1.19,-9.716 9.13,-7.668 -1.09,-3.639 17.34,-11.928 12.93,-3.752 6.33,-4.192 8.6,-7.755 -10.28,3.503 -4.74,1.477 -6.89,1.419 -4.25,-3.244 6.51,-6.696 7.78,-5.19 5.57,-0.14 9.34,2.588 -3.72,-6.16 -1.61,-3.291 -7.17,1.35 -2.11,-2.377 16.36,-8.834 0.76,-3.486 3.55,-6.402 6.26,-9.644 -1.64,-3.476 5.32,-3.713 -5.34,-5.127 -9.12,-0.634 -13.29,0.351 -12.73,0.639 -0.65,-2.762 1.85,-5.391 16.91,-2.664 9.85,-0.445 -14.95,-2.182 -3.03,-3.394 7.28,-3.194 24.02,-3.905 22.78,-3.843 7.41,-2.87 -4.47,-2.799 10.14,-3.068 24.44,-5.266 6.92,-0.796 6.06,-3.302 12.36,-1.906 12.69,-1.127 10.22,-0.064 -0.94,2.241 16.56,-3.942 2.71,2.668 3.66,0.568 3.01,2.363 -1.27,-3.899 6.02,-3.033 18.02,-4.131 9.97,0.307 8,-2.497 11.23,-0.642 21.9,0.839"
         vector-effect="none"
         id="path262"
         style="fill:#1c64a3;fill-opacity:1;stroke:none;stroke-opacity:1" />
    </g>
  </g>
</svg>
