<?xml version="1.0" encoding="UTF-8" standalone="no"?>
<svg
   xmlns:dc="http://purl.org/dc/elements/1.1/"
   xmlns:cc="http://creativecommons.org/ns#"
   xmlns:rdf="http://www.w3.org/1999/02/22-rdf-syntax-ns#"
   xmlns:svg="http://www.w3.org/2000/svg"
   xmlns="http://www.w3.org/2000/svg"
   xmlns:sodipodi="http://sodipodi.sourceforge.net/DTD/sodipodi-0.dtd"
   xmlns:inkscape="http://www.inkscape.org/namespaces/inkscape"
   data-name="Layer 1"
   width="888"
   height="618.10603"
   viewBox="0 0 888 618.10603"
   version="1.1"
   id="svg200"
   sodipodi:docname="accessToVaccine.svg"
   inkscape:version="1.0.1 (3bc2e813f5, 2020-09-07)"
   inkscape:export-filename="C:\Users\maria\Documents\2_TRAVAIL\0_ALTERNANCE\MAHA\6_DeveloppementWeb\landing_page\images\carousel\carousel-img-1bis.png"
   inkscape:export-xdpi="96"
   inkscape:export-ydpi="96">
  <metadata
     id="metadata206">
    <rdf:RDF>
      <cc:Work
         rdf:about="">
        <dc:format>image/svg+xml</dc:format>
        <dc:type
           rdf:resource="http://purl.org/dc/dcmitype/StillImage" />
        <dc:title></dc:title>
      </cc:Work>
    </rdf:RDF>
  </metadata>
  <defs
     id="defs204">
    <pattern
       id="EMFhbasepattern"
       patternUnits="userSpaceOnUse"
       width="6"
       height="6"
       x="0"
       y="0" />
    <pattern
       id="EMFhbasepattern-8"
       patternUnits="userSpaceOnUse"
       width="6"
       height="6"
       x="0"
       y="0" />
    <pattern
       id="EMFhbasepattern-85"
       patternUnits="userSpaceOnUse"
       width="6"
       height="6"
       x="0"
       y="0" />
    <pattern
       id="EMFhbasepattern-3"
       patternUnits="userSpaceOnUse"
       width="6"
       height="6"
       x="0"
       y="0" />
    <clipPath
       clipPathUnits="userSpaceOnUse"
       id="clipEmfPath1">
      <path
         d="  M 59.333333,112.33333   L 59.333333,123.33333   L 88.666667,123.33333   L 89,112.33333   L 59.333333,112.33333 "
         id="path1906" />
    </clipPath>
    <pattern
       id="EMFhbasepattern-4"
       patternUnits="userSpaceOnUse"
       width="6"
       height="6"
       x="0"
       y="0" />
    <pattern
       id="EMFhbasepattern-1"
       patternUnits="userSpaceOnUse"
       width="6"
       height="6"
       x="0"
       y="0" />
    <pattern
       id="EMFhbasepattern-87"
       patternUnits="userSpaceOnUse"
       width="6"
       height="6"
       x="0"
       y="0" />
  </defs>
  <sodipodi:namedview
     pagecolor="#ffffff"
     bordercolor="#666666"
     borderopacity="1"
     objecttolerance="10"
     gridtolerance="10"
     guidetolerance="10"
     inkscape:pageopacity="0"
     inkscape:pageshadow="2"
     inkscape:window-width="1920"
     inkscape:window-height="1001"
     id="namedview202"
     showgrid="false"
     inkscape:zoom="0.94035935"
     inkscape:cx="465.87373"
     inkscape:cy="326.33387"
     inkscape:window-x="-9"
     inkscape:window-y="-9"
     inkscape:window-maximized="1"
     inkscape:current-layer="g2714" />
  <rect
     style="fill:#193863;fill-opacity:1;stroke:none;stroke-width:1.93797;stroke-linecap:round;stroke-linejoin:round;stroke-dashoffset:0.340159;stroke-opacity:1;paint-order:markers fill stroke"
     id="rect2462"
     width="893.27551"
     height="623.16608"
     x="-4.2536893"
     y="-3.1902575"
     inkscape:export-filename="C:\Users\maria\Documents\2_TRAVAIL\0_ALTERNANCE\MAHA\6_DeveloppementWeb\landing_page\images\carousel\carousel-img-1bis.png"
     inkscape:export-xdpi="96"
     inkscape:export-ydpi="96" />
  <g
     id="g2714"
     transform="matrix(0.60784186,0,0,0.60784186,168.56091,126.28162)">
    <g
       id="g1280"
       transform="translate(74.439628,43.19027)"
       style="stroke:#1c6cac;stroke-opacity:1"
       inkscape:export-filename="C:\Users\maria\Documents\2_TRAVAIL\0_ALTERNANCE\MAHA\6_DeveloppementWeb\landing_page\images\carousel\carousel-img-1bis.png"
       inkscape:export-xdpi="96"
       inkscape:export-ydpi="96">
      <path
         style="fill:#1c6cac;fill-opacity:1;fill-rule:nonzero;stroke:#1c6cac;stroke-width:1.30686;stroke-opacity:1"
         d="m 562.40463,297.2268 c 0,25.26603 -3.92059,49.66079 -10.89052,72.74871 -4.79184,16.11798 -11.32615,31.80033 -19.16733,46.17583 0,0 0,0 0,0 -42.25523,78.84741 -125.45885,132.42879 -221.29547,132.42879 -33.1072,0 -64.47192,-6.0987 -93.2229,-17.42485 -3.92059,-1.74248 -7.84118,-3.48496 -11.76177,-5.22745 C 119.37806,485.85071 59.697976,398.7265 59.697976,297.2268 c 0,-30.92908 5.66308,-60.55132 15.68236,-87.99544 23.95916,-64.03629 73.184334,-115.439583 135.478134,-142.448073 9.58366,-4.35622 19.60295,-7.84118 29.62224,-10.89053 0,0 0,0 0,0 22.21667,-6.534315 46.17582,-10.019284 70.5706,-10.019284 7.40555,0 14.81111,0.435622 22.21667,1.306863 0,0 0,0 0,0 45.74021,3.920591 87.55983,20.038571 122.84513,45.304581 59.68007,41.819623 99.7572,108.905263 105.42027,186.010183 0.43563,6.0987 0.87125,12.63301 0.87125,18.7317 z"
         id="path1034" />
      <path
         style="fill:#193863;fill-opacity:1;fill-rule:nonzero;stroke:#1c6cac;stroke-width:1.30686;stroke-opacity:1"
         d="m 368.11766,106.86041 c -7.40555,-6.09868 -30.49347,-1.74248 -29.62222,10.89054 0.43561,11.32614 21.34542,8.71241 27.44412,4.3562 4.3562,-2.61372 9.58366,-10.89052 2.1781,-15.24674 z"
         id="path1036" />
      <path
         style="fill:#193863;fill-opacity:1;fill-rule:nonzero;stroke:#1c6cac;stroke-width:1.30686;stroke-opacity:1"
         d="m 399.04675,137.78951 c -11.32615,-8.27679 -9.14804,6.53432 -6.53431,12.63301 1.30686,2.61373 10.4549,15.24673 1.30686,13.50425 -0.87125,-3.48497 -1.74248,-8.71242 -6.0987,-10.01929 -4.79182,-0.87123 -7.84118,3.48498 -7.84118,7.84118 0,10.89054 13.93988,-0.43562 13.50426,13.06863 9.14804,1.30686 20.90981,-4.3562 15.24673,-14.37549 -2.61373,-4.79182 -5.66307,-6.09869 -6.53432,-12.19739 -0.87123,-4.3562 1.30687,-9.14804 -3.04934,-10.4549 z"
         id="path1038" />
      <path
         style="fill:#193863;fill-opacity:1;fill-rule:nonzero;stroke:#1c6cac;stroke-width:1.30686;stroke-opacity:1"
         d="m 217.82841,531.15528 c 2.17811,-3.48496 3.48497,-7.84118 4.35622,-9.14804 1.74248,-2.61373 6.96993,-3.48496 8.27679,-6.53431 0.43562,-2.61373 -1.74248,-7.40555 -1.74248,-10.01928 0.87123,-13.50426 13.50425,-20.03857 20.90981,-29.62223 4.3562,-5.66307 6.09868,-12.63302 12.633,-13.93988 6.0987,-1.30686 9.58367,1.30686 14.37549,-5.22745 5.22746,-6.96993 7.84118,-12.19738 15.24674,-17.86045 8.71243,-6.0987 10.45491,-9.14804 12.19739,-19.16733 2.61372,-13.50425 16.98922,-22.21667 9.14804,-36.59217 -6.09869,-11.76176 -18.7317,-17.42483 -31.36471,-17.42483 -17.86046,0 -21.78105,-8.27681 -31.36472,-21.34544 -6.53431,-8.2768 -12.19738,-6.53432 -20.47418,-10.45491 -5.22745,-2.61372 -6.09869,-6.53431 -13.50426,-7.40554 -6.09868,-0.43563 -17.42483,0 -21.34542,-4.79184 -3.04934,-4.35621 2.17811,-9.58366 -2.17811,-13.50425 -3.92059,-3.92059 -10.89052,0 -10.01928,-7.84117 0.87124,-4.35622 9.14805,-9.14805 3.48496,-13.50426 -6.96993,-4.79183 -11.32613,6.53431 -14.37549,8.71242 -13.06863,11.76177 -21.78104,-13.93988 -12.19738,-23.52353 6.96993,-6.53432 27.44412,-13.50425 34.41405,-4.79184 2.61373,3.48497 2.17811,17.86047 10.89054,13.93988 6.96993,-3.48498 -1.30687,-14.3755 -1.7425,-19.60295 -0.43561,-6.0987 4.35622,-10.01929 8.27681,-15.24674 2.1781,-2.61372 5.22745,-5.22745 7.40555,-7.84118 2.17811,-3.04934 1.74249,-6.09868 3.48497,-9.58365 5.66307,-10.45491 16.98922,-6.0987 23.52354,-12.63302 10.89052,-10.4549 -7.84118,-7.40555 -10.89052,-10.01927 -7.40557,-5.66308 9.14804,-8.71243 12.633,-9.14804 7.84117,-1.30687 21.34543,-2.61373 21.78105,-12.63302 0.87125,-13.93987 -16.98922,-19.60294 -27.00851,-20.90981 -7.84117,-1.30686 -8.27679,-4.79183 -14.37549,-8.71242 -5.22745,-3.48497 -11.76177,-2.17811 -18.29608,-1.74248 1.30686,8.71241 6.0987,17.86045 1.30686,27.44412 -5.66307,11.32615 -15.24673,3.92059 -21.34542,-3.04934 -4.35621,-4.79183 -5.66307,-6.96994 -11.76177,-9.58367 -5.66307,-2.61373 -10.01929,-5.22745 -11.32615,-11.76177 -2.1781,-10.89052 11.32615,-23.95915 20.90981,-27.0085 7.40556,-2.61373 14.37549,-4.79183 21.34544,-2.1781 9.14804,3.04934 10.4549,7.84118 15.68235,15.24673 11.76177,16.11798 29.62222,5.22745 27.0085,-13.50425 -1.30687,-7.84118 -7.40555,-12.63301 -14.81111,-15.68236 -5.66307,-2.17811 -14.81111,-0.87124 -19.60295,-4.79183 -4.79184,-3.48496 -4.35621,-11.761773 -10.01929,-13.939873 -4.3562,-1.30686 -13.50424,2.1781 -16.11797,5.66307 -3.04934,4.356213 3.48497,24.830403 -9.58366,20.038563 -2.61372,-0.87123 -6.96994,-7.84117 -8.71242,-10.01927 -2.61373,-3.92059 -3.48498,-6.53432 -0.87125,-11.326153 3.92059,-7.40556 15.68236,-10.89052 23.08792,-14.37549 5.22745,-2.17811 10.89052,-3.92059 14.37549,-10.01929 1.74248,-3.04934 1.74248,-5.22745 1.30686,-7.40555 -62.2938,27.00849 -111.518974,78.411783 -135.478134,142.448073 2.61372,6.0987 2.61372,13.93988 2.61372,20.90981 0,10.4549 5.66308,14.37549 13.06863,20.90981 7.40556,6.0987 6.0987,9.58365 9.148044,17.86046 1.7425,5.22745 10.01929,18.29609 16.55361,15.68236 2.61372,-10.89053 -16.11798,-17.86047 -11.76177,-29.18662 6.0987,1.30687 7.84118,7.84118 10.89052,12.63302 3.92059,6.09869 11.76177,10.01928 13.93988,16.98922 2.17811,6.96993 -1.30687,9.58365 4.79183,14.37549 5.22745,4.79183 9.14804,6.0987 15.68236,6.0987 12.633,0 23.52353,2.61372 31.80033,13.06863 4.79183,6.09868 6.53431,6.96993 13.50425,9.14804 3.48497,0.87123 10.4549,3.04934 8.2768,7.84118 -0.87124,1.30686 -6.53431,1.74248 -8.2768,3.48496 -3.04935,3.04935 -0.87124,4.35622 -1.30687,7.40556 -1.30686,6.96993 -4.79182,12.19738 -7.40555,18.7317 -5.22745,11.76176 -1.30686,16.98922 8.2768,24.39478 8.27679,6.0987 4.3562,10.4549 6.96993,20.03856 3.04936,13.50426 9.14804,22.6523 7.84118,37.02779 -0.87123,8.2768 -5.22745,16.11798 -5.66307,23.95916 -0.43562,8.27679 5.22745,14.37549 6.96993,22.21667 1.74249,9.58366 -6.96993,22.21667 -5.22745,33.10719 z"
         id="path1040" />
      <path
         style="fill:#193863;fill-opacity:1;fill-rule:nonzero;stroke:#1c6cac;stroke-width:1.30686;stroke-opacity:1"
         d="m 352.87093,86.821847 c -3.92059,4.35621 -10.89054,8.71243 -15.68236,12.19739 -6.0987,3.920583 -12.63301,4.791833 -16.5536,10.890533 -5.22745,9.58366 -0.87125,31.80033 -14.81111,33.97844 -11.76177,1.74248 -23.95916,-14.81112 -29.18662,-23.52354 -5.66307,-10.01928 1.30687,-17.42485 -1.30686,-27.444123 -0.87123,-4.79184 -4.79182,-5.22745 -7.84118,-8.71242 -2.61372,-3.04935 -3.48496,-6.96994 -5.66307,-10.89053 -2.61372,-4.35621 -5.22745,-6.53431 -10.4549,-8.71242 -2.17811,-0.87125 -10.45491,-1.74248 -11.76177,-5.22745 -0.43562,-1.30686 0,-2.61373 0.87125,-3.48497 0,0 0,0 0,0 22.21667,-6.534315 46.17582,-10.019284 70.5706,-10.019284 7.40555,0 14.81111,0.435622 22.21667,1.306863 0,0 0,0 0,0 2.1781,1.306863 5.22746,2.613726 6.96993,4.356211 6.53432,6.53432 -0.87124,9.14804 -1.30686,15.68236 0,10.4549 26.57288,5.22745 13.93988,19.60294 z"
         id="path1042" />
      <path
         style="fill:#193863;fill-opacity:1;fill-rule:nonzero;stroke:#1c6cac;stroke-width:1.30686;stroke-opacity:1"
         d="m 501.85331,252.79346 c -2.17811,7.40556 7.84118,17.86046 12.19739,22.6523 6.0987,6.09868 6.0987,12.633 10.89052,19.16731 6.53431,9.14804 33.54282,-3.92059 27.00851,14.3755 -4.35621,10.89053 -13.50425,18.29608 -22.21668,25.70164 -6.09869,5.22745 -13.50424,13.93988 -10.4549,22.21667 2.61373,8.71243 8.71242,11.32615 0.87125,20.03856 -3.48498,3.92059 -14.81113,7.40557 -16.11799,11.76177 -0.87123,2.17811 1.30686,6.0987 1.30686,8.71243 -0.43561,3.48497 -2.61372,6.53431 -4.3562,9.58365 -3.48498,6.0987 -6.96993,13.93988 -12.63302,18.73172 -5.22745,4.79182 -16.55359,8.71241 -23.95915,6.96993 -9.14804,-2.61373 -9.58366,-11.76177 -10.89052,-19.16733 -1.30686,-9.58366 -5.66308,-13.06863 -11.32615,-20.47418 -6.96993,-9.14804 -5.22745,-14.81112 -3.04934,-24.8304 1.74248,-8.71242 1.74248,-15.68235 -2.17811,-23.52353 -3.48497,-7.40556 -6.53432,-11.32615 -6.53432,-20.03858 0,-16.98922 -12.63301,-13.50424 -26.57287,-12.19738 -14.81113,1.74248 -24.8304,1.74248 -34.41407,-10.4549 -6.53432,-7.84118 -10.45491,-24.8304 -6.96993,-34.41406 2.61372,-6.0987 8.27679,-7.84118 12.63301,-11.76177 5.22745,-5.22745 3.92059,-10.01929 6.53432,-16.11798 1.30686,-4.35621 4.79182,-8.71242 8.71241,-9.14804 2.17811,0 3.04935,2.1781 6.0987,1.30686 2.1781,-0.43562 6.09869,-5.22745 8.71242,-6.53432 4.35621,-2.17809 8.27679,-2.61372 12.633,-3.48496 9.58367,-2.17811 23.52353,-9.14804 23.95916,6.53432 6.96994,1.30686 11.32614,13.50425 17.86046,12.633 4.79183,-0.87123 5.66308,-6.53432 11.32615,-6.96993 3.48497,-0.43562 8.27679,0 11.32615,0.87124 5.22745,1.74248 12.633,10.45491 18.7317,7.40555 2.61372,-1.74248 6.96993,-12.633 6.0987,-15.68235 -0.87125,-5.66307 -3.48498,-4.35621 -8.27681,-4.79183 -3.48496,0 -11.32614,0.87124 -13.50425,-2.61372 -1.74248,-3.48497 2.17811,-7.40556 2.61373,-10.45491 -3.92059,-0.43563 -8.2768,1.30687 -12.19739,2.1781 0,3.48497 0,13.06863 -6.53431,11.76177 -6.0987,-0.87124 -1.74249,-13.50425 -3.04936,-17.42484 -1.74248,-3.48497 -6.53431,-7.84118 -9.14804,-10.89052 -2.61373,-2.61373 -10.01927,-9.58367 -13.06863,-3.04936 -1.74248,4.35622 4.79184,7.84118 7.40556,10.01929 4.35621,4.35621 4.35621,4.35621 3.04934,7.84118 -0.43561,1.30686 -3.48495,0.87125 -3.92058,2.61373 -0.43562,1.30686 1.74249,3.48497 1.74249,5.22745 -0.87125,9.14804 -12.63302,4.79183 -9.58367,-3.48497 1.30686,-4.35621 4.35622,-2.61373 0.87124,-6.96994 -0.43561,-1.30686 -3.04934,-2.17811 -3.92059,-3.04934 -2.1781,-2.17811 -2.61372,-6.53431 -5.22745,-8.27681 -2.61372,-1.74248 -16.5536,1.30687 -19.60294,4.35622 -4.79184,5.22745 -0.87125,13.06863 -7.40556,17.86045 -3.92059,2.61373 -7.40555,2.61373 -10.89052,6.0987 -2.17811,1.74248 -1.74248,6.53432 -5.66307,3.04935 -3.48498,-3.48496 1.74248,-4.79183 -5.22746,-6.96994 -3.04935,-1.30686 -5.22745,0.43562 -6.96994,-2.61372 -3.92059,-6.0987 0.43563,-15.68236 6.53431,-16.98922 3.92059,-0.87125 12.63302,2.61372 13.06863,-3.04934 0.43563,-5.66309 -6.96993,-5.22746 -9.58365,-7.84118 -7.40556,-8.27681 5.66307,-6.53432 10.01928,-6.0987 5.66307,0.43562 5.22746,0.43562 9.14805,-2.61373 4.3562,-3.48497 6.96993,-6.53431 12.19738,-8.71242 10.4549,-5.22745 4.35621,-10.45491 7.40556,-20.47419 3.48496,-10.89052 11.32614,-7.84118 10.01928,2.17811 -0.43562,2.61372 -3.04935,8.71242 -0.87124,11.32615 3.48496,3.48496 8.2768,-1.30687 11.76177,-2.61373 4.35621,-1.74249 8.71241,-1.30686 13.50425,-2.61373 6.09869,-1.74249 6.09869,-4.35621 9.58365,-8.71242 3.04936,-3.04934 17.42485,-11.32615 10.01929,-16.98922 -4.3562,-3.48497 -13.06863,4.79184 -13.50425,-4.3562 0,-6.96995 10.01928,-7.84118 8.2768,-14.3755 -9.14804,-6.53431 -23.95915,8.71241 -21.34543,18.29608 1.30687,5.66307 4.35621,7.84118 1.30687,13.50425 -2.61373,5.22745 -8.71243,10.89052 -13.06863,4.79184 -2.61373,-3.48498 0,-11.76177 -5.22745,-13.50426 -5.66309,-2.1781 -7.84118,6.96994 -12.63302,7.84117 -13.06863,2.17811 2.17811,-22.21667 4.35621,-26.13726 4.35622,-6.53431 10.01928,-10.4549 16.5536,-15.68235 5.22745,-4.356213 8.71242,-6.969933 10.01929,-11.761773 59.68007,41.819623 99.7572,108.905263 105.42027,186.010183 -1.74248,1.30686 -3.92059,1.74248 -7.40555,2.61373 -5.66308,1.30686 -14.81112,10.01928 -20.47419,9.58365 -5.22745,-0.43561 -8.27679,-6.53431 -10.4549,-10.4549 -1.30686,-2.1781 -16.98922,-42.25523 -21.34543,-27.44412 z"
         id="path1044" />
      <path
         style="fill:#193863;fill-opacity:1;fill-rule:nonzero;stroke:#1c6cac;stroke-width:1.30686;stroke-opacity:1"
         d="m 532.34678,416.15134 c -13.50425,-2.61373 -8.27679,-26.57288 0,-33.54281 3.92059,-3.04936 3.48497,-1.7425 5.66307,-6.53432 1.74249,-3.04935 3.92059,-8.71242 7.40556,-9.14804 3.04934,-0.87125 5.22745,0.87123 6.0987,3.04934 z"
         id="path1046" />
    </g>
    <g
       id="g1364"
       transform="matrix(0.69820014,0,0,0.69820014,-259.06724,193.8963)"
       inkscape:export-filename="C:\Users\maria\Documents\2_TRAVAIL\0_ALTERNANCE\MAHA\6_DeveloppementWeb\landing_page\images\carousel\carousel-img-1bis.png"
       inkscape:export-xdpi="96"
       inkscape:export-ydpi="96">
      <rect
         x="631.32367"
         y="284.26602"
         width="110"
         height="123"
         fill="#cccccc"
         id="rect2" />
      <path
         d="m 687.77405,557.49832 -1.88975,25.83495 a 8.22428,8.22428 0 0 0 8.69988,8.80928 l 13.26993,-0.80373 a 4.19488,4.19488 0 0 0 3.8153,-5.2044 l -7.36594,-29.46281 z"
         fill="#e6e6e6"
         id="path6-5" />
      <path
         d="m 798.76961,572.77538 c 15.6176,3.6534 26.77411,8.84633 34.103,15.87434 a 15.03539,15.03539 0 0 0 9.62359,4.1254 c 4.59653,0.24174 8.35492,-0.27349 11.17944,-1.53511 h 4.5e-4 a 4.43019,4.43019 0 0 0 2.62469,-3.65076 4.50814,4.50814 0 0 0 -1.88846,-4.16687 l -37.03954,-26.3546 -15.73318,6.294 -3.67016,3.67016 a 3.63415,3.63415 0 0 0 0.8002,5.74346 z"
         fill="#e6e6e6"
         id="path8-1" />
      <path
         d="m 750.70718,150.96055 -105.87329,-0.98031 c 0.26623,-15.42064 3.85407,-30.56331 11.69669,-44.11378 5.15076,-8.899455 5.03948,-18.584735 3.7982,-26.744395 -1.91555,-12.592 2.53886,-25.47548 12.43708,-33.49119 a 39.916,39.916 0 0 1 26.84266,-8.88134 l 2.0558,0.0857 a 40.00777,40.00777 0 0 1 32.87054,19.76983 33.32736,33.32736 0 0 1 3.96134,20.30073 c -0.67106,6.60129 0.93466,13.26982 4.6906,20.00186 6.47994,14.782575 7.88315,33.698795 7.52038,54.052935 z"
         fill="#2f2e41"
         id="path10" />
      <path
         d="m 821.54183,558.44233 -20.77878,5.42055 -101.1836,-220.4357 6.324,215.01515 h -20.7788 C 662.92115,457.28354 622.83412,340.53552 640.85683,303.67648 l 107.50757,-6.324 z"
         fill="#6c63ff"
         id="path12"
         style="fill:#ff6200;fill-opacity:1" />
      <circle
         cx="698.67603"
         cy="85.951057"
         r="28.00618"
         fill="#ffb9b9"
         id="circle14"
         style="fill:#9f616a;fill-opacity:1" />
      <path
         d="M 723.0685,137.44628 676.99383,134.736 c 4.51541,-10.36377 6.31912,-20.34363 4.51712,-29.813 h 34.33015 c -0.0778,7.27061 3.54031,19.84742 7.2274,32.52328 z"
         fill="#ffb9b9"
         id="path16-6"
         style="fill:#9f616a;fill-opacity:1" />
      <polygon
         points="171.028,296.445 181.417,117.115 199.034,112.146 218.909,116.663 238.784,106.725 251.432,111.243 272.211,289.217 "
         fill="#6c63ff"
         id="polygon18"
         transform="translate(479.76697,16.266003)"
         style="fill:#ff6200;fill-opacity:1" />
      <path
         d="m 667.95958,434.6731 -69.112,-15.80994 c 20.5506,-68.14818 57.57349,-224.05122 45.623,-279.61 l 36.137,-16.26165 z"
         fill="#e6e6e6"
         id="path20-8" />
      <path
         d="m 634.53285,237.72645 -26.19932,-16.26165 22.3434,-65.4394 a 30.87113,30.87113 0 0 1 13.49426,-16.02839 l 7.52674,-4.35758 -4.51713,65.95 z"
         fill="#e6e6e6"
         id="path22-6" />
      <path
         d="m 812.05587,419.76661 c -21.81327,12.62013 -76.33909,19.65509 -100.28018,10.8411 -1.76169,-61.57277 -5.21664,-235.739 5.87226,-309.42306 l 39.7507,16.26165 -3.6137,48.78495 c -19.00407,41.73287 36.17963,187.08874 58.27092,233.53536 z"
         fill="#e6e6e6"
         id="path24-3" />
      <polygon
         points="331.837,197.068 329.127,213.33 304.734,205.199 272.211,168.158 277.632,121.18 "
         fill="#e6e6e6"
         id="polygon26"
         transform="translate(479.76697,16.266003)" />
      <path
         d="m 732.44815,264.75994 a 6.78537,6.78537 0 0 0 8.10524,5.11221 l 20.706,-4.68917 -2.99259,-13.21656 -20.70643,4.68828 a 6.77693,6.77693 0 0 0 -5.11221,8.10524 z"
         fill="#ffb9b9"
         id="path28-2"
         style="fill:#9f616a;fill-opacity:1" />
      <path
         d="m 723.0685,78.723615 c -15.55574,-6.3965 -30.9192,-6.85936 -46.07467,-0.90342 l -6.324,-22.58563 h 57.8192 z"
         fill="#2f2e41"
         id="path30" />
      <path
         d="m 751.07468,249.47098 11.74452,21.6822 c 19.7541,-5.50955 36.87412,-22.87878 53.30208,-43.3644 l -4.51713,-14.4548 -28.00617,7.2274 z"
         fill="#e6e6e6"
         id="path32" />
      <path
         d="m 742.49214,204.75144 h -3.6137 c 0,-51.11057 -10.52349,-86.7288 -20.77877,-86.7288 l -0.90343,-3.6137 c 9.197,0 15.06047,14.824 18.35964,27.26023 4.47302,16.85938 6.93626,39.26237 6.93626,63.08227 z"
         fill="#3f3d56"
         id="path34" />
      <path
         d="m 659.37704,192.10349 h -3.61374 c 0,-46.80915 10.59628,-75.8877 26.19933,-75.8877 l -0.90343,3.6137 c -10.79254,0 -21.68216,22.34786 -21.68216,72.274 z"
         fill="#3f3d56"
         id="path36" />
      <circle
         cx="740.6853"
         cy="205.65488"
         r="9.0342503"
         fill="#3f3d56"
         id="circle38" />
      <path
         d="m 644.92224,213.78569 h -3.6137 c 0,-12.95189 7.29489,-23.48905 16.26165,-23.48905 v 3.6137 c -6.97419,0 -12.64795,8.91603 -12.64795,19.87535 z"
         fill="#3f3d56"
         id="path40-5" />
      <path
         d="m 673.83184,213.78569 h -3.6137 c 0,-10.95932 -5.67376,-19.87535 -12.64795,-19.87535 v -3.61373 c 8.96676,0 16.26165,10.53719 16.26165,23.48908 z"
         fill="#3f3d56"
         id="path42-4" />
      <circle
         cx="672.02502"
         cy="214.68912"
         r="3.6136999"
         fill="#3f3d56"
         id="circle44-3" />
      <circle
         cx="643.11542"
         cy="214.68912"
         r="3.6136999"
         fill="#3f3d56"
         id="circle46" />
      <polygon
         points="164.88,236.053 118.177,165.193 140.724,169.219 192.258,242.495 "
         fill="#6c63ff"
         id="polygon48"
         transform="translate(479.76697,16.266003)"
         style="fill:#ff6200;fill-opacity:1" />
      <path
         d="m 593.9449,180.56188 a 1.91768,1.91768 0 0 0 -1.5735,2.971 l 48.17135,73.08788 a 1.91143,1.91143 0 0 0 1.16016,0.81035 l 22.4127,5.27321 a 1.91439,1.91439 0 0 0 2.00447,-2.9648 L 613.2309,184.53775 a 1.90335,1.90335 0 0 0 -1.22941,-0.783 l -17.69531,-3.16023 a 2.07607,2.07607 0 0 0 -0.36128,-0.0326 z"
         fill="#3f3d56"
         id="path50" />
      <path
         d="m 623.99437,232.81893 1.33881,13.48521 21.12638,-2.09711 a 6.775731,6.775731 0 0 0 -1.33837,-13.48521 z"
         fill="#ffb9b9"
         id="path52"
         style="fill:#9f616a;fill-opacity:1" />
      <path
         d="m 605.62369,231.2569 a 17.42694,17.42694 0 0 0 17.40637,17.31065 h 3.47387 l 2.529,-21.07565 -20.93979,-7.53839 z"
         fill="#e6e6e6"
         id="path54" />
    </g>
    <g
       id="g2100"
       transform="matrix(0.53247723,0,0,0.53247723,190.82262,-24.992314)"
       inkscape:export-filename="C:\Users\maria\Documents\2_TRAVAIL\0_ALTERNANCE\MAHA\6_DeveloppementWeb\landing_page\images\carousel\carousel-img-1bis.png"
       inkscape:export-xdpi="96"
       inkscape:export-ydpi="96">
      <path
         style="fill:#ffffff;fill-opacity:1;fill-rule:nonzero;stroke:none"
         d="m 696.6543,615.50528 c -0.33333,0 -0.33333,0 -0.33333,0 -2,0 -4,0 -5.66667,0 -0.33333,0 -0.66666,0 -1.33333,0 0.66667,0 1,0 1.33333,0 2,0 4,0 6,0 m -67.33333,-11 c 0.33333,0.66666 0.66667,1.66666 1,2 0.66667,0.66666 1,1.33333 1.33333,1.66666 0,0 0,0 0,0 -0.33333,-0.33333 -0.66666,-1 -1.33333,-1.66666 -0.33333,-0.33334 -0.66667,-1 -1,-2 0,0 0,0 0,0 m 4.33333,-137 c -0.33333,0.33333 -0.33333,1 -0.66666,1.33333 -0.33334,0.66667 -1,1.66667 -1.33334,2.33334 0.33334,-0.66667 1,-1.66667 1.33334,-2.33334 0.33333,-0.33333 0.33333,-1 0.66666,-1.33333 m 11.33334,-27 c 0,0 0,0 0,0 0,0 0,0 0,0 0,0 0,0 0,0 0,0 0,0 0,0 m 4,-1.33333 c 0,0.66666 0,1.33333 0,1.66666 0,2 -0.33334,4 -0.33334,6 -0.33333,2.66667 -1.33333,5 -2.66666,7.33334 -1,2 -2.33334,3.66666 -3.33334,5.66666 -2,3.33334 -4.33333,7 -6.33333,10.66667 -1.33333,3 -2.66667,6 -3.66667,9.66667 52.33334,0.33333 52.33334,0.33333 52.33334,0.33333 0,-41 0,-41 0,-41 -36,-0.33333 -36,-0.33333 -36,-0.33333 m -4,-2.66667 c 0,0 0,0 0,0 0,0.66667 0,1.33333 0,1.66667 0,-0.33334 0,-0.66667 0,-1 0,0 0,-0.33334 0,-0.66667 z"
         id="path1912" />
      <path
         style="fill:#89c5e4;fill-opacity:1;fill-rule:nonzero;stroke:none"
         d="m 736.98763,546.50528 c 0,-9.66667 0,-19.33334 0,-29 0.33334,-4.33334 0.33334,-8.66667 0,-13 0,-3.33334 0.33334,-7 0,-10.66667 -0.33333,-4.33333 -1,-8.66666 -2,-13 -106.33333,-0.66666 -106.33333,-0.66666 -106.33333,-0.66666 -0.33333,1.66666 -0.66666,3.33333 -1,5 -1.66666,8.33333 -1.33333,16.99999 -1.33333,25.33333 -0.33333,9.66666 -0.33333,19 -0.33333,28.66666 0,8.66667 0,17 0.33333,25.66667 0,6.66667 -0.33333,13.33333 0,20 0,4 0.33333,8.33333 1,12.33333 0.66667,3.33334 1.33333,6.66667 3,9.33334 1.33333,2.33333 3.66667,3.66666 6,4.66666 0.33333,0 0.33333,0 0.33333,0 2.66667,1.33334 5.66667,2 8.66667,2.33334 7.66667,1.33333 15.33333,2 23,2 5.33333,0.33333 10.33333,0.33333 15.66667,0 1.66666,0 3.33333,0 5.33333,0 7.66667,0 15.33333,0 23,-1 3.33333,-0.33334 7,-1 10.33333,-2 2.66667,-0.66667 5.33333,-1.33334 7.33333,-3 2.33334,-1.66667 3.66667,-4.33334 4.33334,-6.66667 1,-3.66667 1.66666,-7.66667 2,-11.33333 0.66666,-7.66667 0.66666,-15.33334 0.66666,-22.66667 -0.33333,-7.33333 0,-15 0,-22.33333 z"
         id="path1914" />
      <path
         style="fill:#ffffff;fill-opacity:1;fill-rule:nonzero;stroke:none"
         d="m 631.6543,471.17195 c -2,4.66666 -3.33333,9.33333 -4,14 -1,4.33333 -1.33333,8.66666 -1.33333,12.66666 0.33333,-4 0.33333,-8.33333 1.33333,-12.66666 0,0 0,0 0,0 0.66667,-4.66667 2,-9.33334 4,-14 m 13.33334,-30.66667 c 0,2 0,4 -0.33334,6 -0.33333,2 -1,4 -2,5.66667 -3,5.33333 -6.33333,10 -9,15.33333 2.66667,-5.33333 6,-10 9,-15.33333 1,-1.66667 1.66667,-3.66667 2,-5.66667 0.33334,-2 0.33334,-4 0.33334,-6 m 0,-2.33333 c 0,1 0,1.66666 0,2.33333 0,-0.66667 0,-1.33333 0,-2.33333 z"
         id="path1916" />
      <path
         style="fill:#ffffff;fill-opacity:1;fill-rule:nonzero;stroke:none"
         d="m 644.98764,437.17195 c 0,0.33333 0,0.66666 0,1 0,1 0,1.66666 0,2.33333 0,0 0,0 0,0 0,0 0,0 0,0 0,2 0,4 -0.33334,6 -0.33333,2 -1,4 -2,5.66667 -3,5.33333 -6.33333,10 -9,15.33333 -0.33333,0.33333 -0.33333,1 -0.66666,1.33333 -0.33334,0.66667 -1,1.66667 -1.33334,2.33334 -2,4.66666 -3.33333,9.33333 -4,14 0.33334,-1.66667 0.66667,-3.33334 1,-5 4,0 4,0 4,0 1,-3.66667 2.33334,-6.66667 3.66667,-9.66667 2,-3.66667 4.33333,-7.33333 6.33333,-10.66667 1,-2 2.33334,-3.66666 3.33334,-5.66666 1.33333,-2.33334 2.33333,-4.66667 2.66666,-7.33334 0,-2 0.33334,-4 0.33334,-6 0,-0.33333 0,-1 0,-1.66666 -4,0 -4,0 -4,0 0,-0.66667 0,-1.33334 0,-2 z"
         id="path1918" />
      <path
         style="fill:#ffffff;fill-opacity:1;fill-rule:nonzero;stroke:none"
         d="m 626.6543,591.50528 c 0.33334,2 0.33334,4 0.66667,5.66666 0.66667,2.66667 1,5 2,7.33334 -1,-2.33334 -1.33333,-4.66667 -2,-7.33334 -0.33333,-1.66666 -0.33333,-3.66666 -0.66667,-5.66666 m 110.33333,-43.66667 c 0,3.66667 0,7.33333 0,10.66667 0,-3.33334 0,-7 0,-10.66667 m -110.99999,-18 c 0,3 0,6.33333 0,9.33333 0,8.66667 0,17 0.33333,25.66667 0,3 0,6 0,9 0,-2.33333 0,-5 0,-7.33333 0,-0.33334 0,-1 0,-1.66667 -0.33333,-6.66667 -0.33333,-13 -0.33333,-19.66667 0,-2 0,-4 0,-6 0,-2 0,-3.66666 0,-5.33333 0,-1.33333 0,-2.66667 0,-4 m 110.99999,-14 c 0,0.33333 0,1 0,1.66667 0,1 0,2.33333 0,3.66666 0,-1.33333 0,-2.66666 0,-3.66666 0,-0.66667 0,-1.33334 0,-1.66667 m -2,-35 c 0.66667,2.33334 1,4.66667 1.33334,7.33334 0,0 0,0 0,0 0,0 0,0 0,0 0.33333,2 0.66666,4 0.66666,5.66666 0,0 0,0 0,0 0,2.33334 0,4.66667 0,7 0,0 0,0 0,0 0,1 0,2 0,2.66667 0,0.33333 0,0.66666 0,1 0,0.33333 0,0.66666 0,1 0,-0.33334 0,-0.66667 0,-1 0,-3.33334 0.33334,-7 0,-10.66667 -0.33333,-4.33333 -1,-8.66666 -2,-13 m -9.66666,-21.33333 c 0.33333,0.33333 0.33333,0.66667 0.66666,0.66667 1,2.33333 2.33334,4.66666 3.66667,7 1,1.33333 1.66667,3 2.33333,4.66666 -1.66666,-4 -4,-7.66666 -6,-11.66666 -0.33333,0 -0.33333,-0.33334 -0.66666,-0.66667 m -6.33333,-18.66667 c 0,1.33334 0,3 0,4.66667 0,-1.66667 0,-3.33333 0,-4.66667 m -0.33334,-7 c 0,0 0,0 0,0 0,0 0,0 0,0 0,0.33334 0,0.33334 0,0.33334 0,1.33333 0,2.66666 0.33334,4 -0.33334,-1.33334 -0.33334,-2.66667 -0.33334,-4 0,0 0,-0.33334 0,-0.33334 0,0 0,0 0,0 0,0 0,0 0,0 z"
         id="path1920" />
      <path
         style="fill:#ffffff;fill-opacity:1;fill-rule:nonzero;stroke:none"
         d="m 626.6543,591.50528 c 0,0 0,0 0,0 0.33334,2 0.33334,4 0.66667,5.66666 0.66667,2.66667 1,5 2,7.33334 0,0 0,0 0,0 -1,-2.33334 -1.33333,-4.66667 -2,-7.33334 -0.33333,-1.66666 -0.33333,-3.66666 -0.66667,-5.66666 z"
         id="path1922" />
      <path
         style="fill:#ffffff;fill-opacity:1;fill-rule:nonzero;stroke:none"
         d="m 718.32097,613.50528 c -2,0.33333 -4,0.66666 -6,1 -5.33333,0.66666 -10.66667,1 -15.66667,1 5,0 10.33334,-0.33334 15.66667,-1 2,-0.33334 4,-0.66667 6,-1 m -86.66667,-5.33334 c 1.33334,1.33334 3,2.33334 4.66667,3 2.66667,1 6,2 9,2.33334 2.66667,0.66666 5.66667,1 8.33333,1.33333 -2.66666,-0.33333 -5.66666,-0.66667 -8.33333,-1.33333 -3,-0.33334 -6,-1 -8.66667,-2.33334 -0.33333,0 -0.33333,0 -0.33333,0 -1.66667,-0.66666 -3.33333,-1.66666 -4.66667,-3 m 104.33333,-13.33333 c -0.33333,2.66667 -1,5.33333 -1.66666,8 -0.66667,1.33333 -1,3 -2,4.33333 1,-1.33333 1.33333,-3 2,-4.33333 0.66666,-2.66667 1.33333,-5.33333 1.66666,-8 z"
         id="path1924" />
      <path
         style="fill:#ffffff;fill-opacity:1;fill-rule:nonzero;stroke:none"
         d="m 718.32097,613.50528 c -2,0.33333 -4,0.66666 -6,1 -5.33333,0.66666 -10.66667,1 -16,1 0,0 0,0 0.33333,0 5,0 10.33334,-0.33334 15.66667,-1 2,-0.33334 4,-0.66667 6,-1 0,0 0,0 0,0 z"
         id="path1926" />
      <path
         style="fill:#ffffff;fill-opacity:1;fill-rule:nonzero;stroke:none"
         d="m 683.98764,615.50528 c 0,0 0,0 0,0 0,0 0,0 0,0 0,0 0,0 0,0 z"
         id="path1928" />
      <path
         style="fill:#f3f9fc;fill-opacity:1;fill-rule:nonzero;stroke:none"
         d="m 736.32097,488.17195 c 0.33333,2 0.66666,4 0.66666,5.66666 0,-1.66666 -0.33333,-3.66666 -0.66666,-5.66666 m 0,0 c 0,0 0,0 0,0 0,0 0,0 0,0 m -107.66667,-8 c -0.33333,1.66666 -0.66666,3.33333 -1,5 0,0 0,0 0,0 -1,4.33333 -1,8.66666 -1.33333,12.66666 0,4.33333 0,8.33333 0,12.66667 0,6.33333 -0.33333,13 -0.33333,19.33333 0,1.33333 0,2.66667 0,4 0,1.66667 0,3.33333 0,5.33333 0,0 0,0 0,0 0,2 0,4 0,6 0,6.66667 0,13 0.33333,19.66667 0,0.66667 0,1.33333 0,1.66667 0,2.33333 0,5 0,7.33333 -0.33333,3.66667 -0.33333,7.33333 0,11 0,2.33333 0.33333,4.66667 0.33333,6.66667 0.33334,2 0.33334,4 0.66667,5.66666 0.66667,2.66667 1,5 2,7.33334 0.33333,1 0.66667,1.66666 1,2 0.66667,0.66666 1,1.33333 1.33333,1.66666 1.33334,1.33334 3,2.33334 4.66667,3 0.33333,0 0.33333,0 0.33333,0 2.66667,1.33334 5.66667,2 8.66667,2.33334 2.66667,0.66666 5.66667,1 8.33333,1.33333 5,0.33333 9.66667,0.66667 14.66667,0.66667 2.66667,0.33333 5,0.33333 7.33333,0.33333 3,0 5.66667,0 8.33334,-0.33333 0,0 0,0 0,0 0,0 0,0 0,0 0,0 0,0 0,0 1,0 2,0 3,0 -0.66667,0 -1.33334,0 -2,0 0,-3.66667 0,-3.66667 0,-3.66667 -0.33334,0 -0.66667,-0.33333 -1,-0.33333 0,0 0,0 0,0 -0.33334,0 -0.33334,0 -0.33334,0 -2.66666,0.33333 -5,0.33333 -7.66666,0.33333 -2.33334,0 -5,0 -7.66667,0 -6,-0.33333 -14.33333,-0.66667 -22.33333,-2 -2.66667,-0.66667 -5.66667,-1.33333 -8.33334,-2.33333 -2,-0.66667 -3,-1.66667 -4,-3 -1.33333,-2 -2,-5 -2.33333,-8 -0.66667,-3.33334 -1,-7 -1.33333,-11.66667 0,-4.33333 0,-8.66667 0,-12.66667 0,-2.33333 0,-5 0,-7.33333 0,-8.66667 0,-17 0,-25.66667 0,-9.66666 0,-19 0,-28.66666 0,-3.66667 0,-3.66667 0,-3.66667 0,-7 0.33333,-14.33333 1.33333,-21 0.33333,-2 1,-4 1.33333,-5.66666 -4,0 -4,0 -4,0 z"
         id="path1930" />
      <path
         style="fill:#ffffff;fill-opacity:1;fill-rule:nonzero;stroke:none"
         d="m 644.98764,591.17194 c 1.33333,0.33334 2.66666,0.66667 4,0.66667 1,0.33333 2.33333,0.33333 3.33333,0.33333 4.33333,0.66667 8.33333,0.33334 12.66667,0.33334 7.33333,0.33333 14.66666,0.33333 22,0.33333 1,0 2,0 2.66666,0 2,0 3.66667,0 5.66667,0 3.33333,0 7,0 10.66667,0 2.33333,0 4.66666,-0.33333 7,-0.66667 2,-0.33333 4.33333,-0.66666 6,-1.33333 5.66666,-2.33333 6.66666,-8.66667 6.66666,-14 0.66667,-19 1.66667,-37.66667 1.66667,-56.33333 0,-6 0,-12 -0.33334,-17.66667 -0.33333,-2.33333 -0.66666,-5 -1.33333,-7 -1.66666,-4.33333 -7,-4.33333 -10.66666,-5 -0.33334,0 -0.66667,0 -0.66667,0 -2,-0.33333 -4,-0.33333 -6,-0.33333 -3.33333,-0.33333 -6.66667,-0.33333 -10,-0.66667 -5,0 -10,0 -15,0 -2.66667,0 -5.33333,0 -8,0 -1.66667,0 -3.66667,0 -5.66667,0 -8.66666,0 -17.33333,0 -25.66666,1.66667 -1.66667,0.33333 -3,0.66667 -4.33334,1.66667 -1.33333,1.33333 -2,3.33333 -2.33333,5.33333 -2,11.33333 -1.33333,23.66666 -1.33333,35.33333 0.33333,8 0.33333,16 0.66666,24 0.33334,7 -1,15.33333 1,22.33333 0.33334,3 1.33334,6.33334 3.66667,8.66667 1,1 2.33333,1.66667 3.66667,2.33333 z"
         id="path1932" />
      <path
         style="fill:#a4d3ea;fill-opacity:1;fill-rule:nonzero;stroke:none"
         d="m 645.98764,511.50528 c -0.33334,11.33333 -0.33334,11.33333 -0.33334,11.33333 0,2 1.66667,4 4,4 64,0.66667 64,0.66667 64,0.66667 2.33334,0 4,-1.66667 4,-4 0,-11.66667 0,-11.66667 0,-11.66667 0,-2.33333 -1.66666,-4 -3.66666,-4 -64,-0.33333 -64,-0.33333 -64,-0.33333 -2.33334,0 -4,2 -4,4 z"
         id="path1934" />
      <path
         style="fill:#c4cbd3;fill-opacity:1;fill-rule:nonzero;stroke:none"
         d="m 659.98764,542.50528 c 0,1 1,2 2,2 39.33333,0.33333 39.33333,0.33333 39.33333,0.33333 1,0 2,-1 2,-2 0,0 0,0 0,0 0,-1 -1,-2 -2,-2 -39.33333,0 -39.33333,0 -39.33333,0 -1,0 -2,0.66667 -2,1.66667 z"
         id="path1936" />
      <path
         style="fill:#c4cbd3;fill-opacity:1;fill-rule:nonzero;stroke:none"
         d="m 659.98764,554.50528 c 0,1.33333 1,2 2,2 39.33333,0.33333 39.33333,0.33333 39.33333,0.33333 1,0 2,-0.66667 2,-2 0,0 0,0 0,0 0,-1 -1,-2 -2,-2 -39.33333,0 -39.33333,0 -39.33333,0 -1,0 -2,0.66667 -2,1.66667 z"
         id="path1938" />
      <path
         style="fill:#c4cbd3;fill-opacity:1;fill-rule:nonzero;stroke:none"
         d="m 659.98764,566.83861 c 0,1 0.66666,2 2,2 39.33333,0.33333 39.33333,0.33333 39.33333,0.33333 1,0 2,-1 2,-2 0,0 0,0 0,0 0,-1.33333 -1,-2 -2,-2 -39.33333,-0.33333 -39.33333,-0.33333 -39.33333,-0.33333 -1,0 -2,1 -2,2 z"
         id="path1940" />
      <path
         style="fill:#c4cbd3;fill-opacity:1;fill-rule:nonzero;stroke:none"
         d="m 645.32097,433.50528 c 0,0 0,0 0,0 0,0.33333 0,0.33333 0,0.33333 0,1 -0.33333,2 -0.33333,2.66667 0,0.33333 0,0.66667 0,0.66667 0,-1 0.33333,-2.33334 0.33333,-3.66667 0,0 0,0 0,0 m 38.66667,0 c -2.33334,0 -4.66667,0 -7,0 -6,0 -12.33334,0 -18.66667,0 -3,0 -6,0 -9,0 -0.33333,2.33333 -0.33333,4.33333 -0.33333,5.66667 36,0.33333 36,0.33333 36,0.33333 0,-6 0,-6 0,-6 -0.33334,0 -0.66667,0 -1,0 z"
         id="path1942" />
      <path
         style="fill:#c4cbd3;fill-opacity:1;fill-rule:nonzero;stroke:none"
         d="m 645.32097,433.50528 c 0,1.33333 -0.33333,2.66667 -0.33333,3.66667 0,0.66666 0,1.33333 0,2 4,0 4,0 4,0 0,-1.33334 0,-3.33334 0.33333,-5.66667 -0.33333,0 -0.66667,0 -0.66667,0 -1.33333,0 -2.33333,0 -3.33333,0 z"
         id="path1944" />
      <path
         style="fill:#25405d;fill-opacity:1;fill-rule:nonzero;stroke:none"
         d="m 641.6543,433.50528 c 1,0 2.33334,0 3.66667,0 1,0 2,0 3.33333,0 3.33334,0 6.66667,0 9.66667,0 6.33333,0 12.66667,0 18.66667,0 4.66666,0 9.33333,0 14,0 7.33333,0 14.66666,0.33333 22.33333,0.33333 1.66667,0 3.66667,0 5.33333,0 1,0 1.66667,0 2.33334,0 1.33333,0 3,0 4.33333,0 1.33333,0 3,-0.66666 4,-1.66666 0.33333,-0.66667 1,-1.33334 1.33333,-2 2.66667,-5.33334 2.33333,-12 2,-18 0,-0.33334 0,-0.66667 0,-1 -0.66667,-3.66667 -2.33333,-6.33334 -6,-8 -7.33333,-3.66667 -16,-2 -24,-2 -8.33333,0 -16.66666,0 -25,0 -1.33333,0 -2.33333,0 -3.66666,0 -1.33334,0 -2.66667,0 -4,0 -5.66667,0 -11.33334,0 -16.66667,0.33333 -1.33333,0 -2.66667,0 -4.33333,-0.33333 -3.66667,0 -8,-0.33334 -11.33334,1 -2,1 -3.66666,2.66666 -4.66666,4.66666 -1.66667,2.66667 -1.66667,6.33334 -1.66667,9.33334 0.33333,3.66666 0.33333,7 1,10.66666 0.33333,1.66667 1,3.33334 2,4.66667 0.33333,0.33333 0.66667,0.66667 1.33333,1 1.66667,1.33333 4,1 6,1 z"
         id="path1954" />
      <path
         style="fill:#dee2e7;fill-opacity:1;fill-rule:nonzero;stroke:none"
         d="m 736.98763,565.50528 c 0,0 0,0 0,0 0,1.33333 0,2.33333 0,3.33333 0,2 0,4 0,6 0,-2 0,-4 0,-6 0,-1 0,-2 0,-3.33333 M 718.98764,438.17195 c 0,0 0,0 0,0 0,0.66666 0,1 0,1.33333 0,0 0,0 0,0 0,0 0,0 0,0 0,0.33333 0,1 0,1.33333 0,0 0,0 0,0 0,-0.33333 0,-1 0,-1.33333 0,-0.33333 0,-1 0,-1.33333 m 7.66666,-35 c 0,0 0,0 0,0 3.66667,1.66666 5.33333,4.33333 6,8 0,0.33333 0,0.66666 0,1 0,2 0.33333,4 0.33333,6 0,-2 -0.33333,-4 -0.33333,-6 0,-0.33334 0,-0.66667 0,-1 -0.66667,-3.66667 -2.33333,-6.33334 -6,-8 0,0 0,0 0,0 m -11.66666,-2.33334 c -4,0 -8.33334,0.33334 -12.33334,0.33334 0,0 0,0 0,0 0,0 0,0 0,0 4,0 8.33334,-0.33334 12.33334,-0.33334 4,0 8,0.33334 11.66666,2 -3.66666,-1.66666 -7.66666,-2 -11.66666,-2 z"
         id="path1956" />
      <path
         style="fill:#dee2e7;fill-opacity:1;fill-rule:nonzero;stroke:none"
         d="m 731.98763,471.83861 c 0.66667,1.66667 1.33334,3.33334 2,5 0.33334,1.33334 0.66667,2.66667 1,4 -0.33333,-1.33333 -0.66666,-2.66666 -1,-4 -0.66666,-1.66666 -1.33333,-3.33333 -2,-5 m -12.99999,-26.33333 c 0,0.33333 0.33333,0.66667 0.33333,1 0,2.33333 0.66667,4 1.66667,6 1.66666,2.33333 3,4.66667 4.33333,7 -1.33333,-2.33333 -2.66667,-4.66667 -4.33333,-7 -1,-2 -1.66667,-3.66667 -1.66667,-6 0,-0.33333 -0.33333,-0.66667 -0.33333,-1 m 0,-6 c 0,0.33333 0,1 0,1.33333 0,-0.33333 0,-1 0,-1.33333 0,0 0,0 0,0 0,0 0,0 0,0 m -34,0 c 0,41 0,41 0,41 45.99999,0.33333 45.99999,0.33333 45.99999,0.33333 0,-1 -0.33333,-2 -0.66666,-3 -1.66667,-5 -4.66667,-10 -7.66667,-15 -0.33333,-0.66666 -0.33333,-0.66666 -0.33333,-0.66666 -0.66667,-1 -1.33333,-2.33334 -2,-3.33334 -0.66667,-1.66666 -1.66667,-3 -2.66667,-4.66666 -1.33333,-2.33334 -2,-4.66667 -2.33333,-7 -0.33333,-2.66667 -0.33333,-5.33334 -0.33333,-7.66667 -30,0 -30,0 -30,0 z"
         id="path1958" />
      <path
         style="fill:#77afcf;fill-opacity:1;fill-rule:nonzero;stroke:none"
         d="m 696.32097,615.50528 c -2,0 -3.66667,0 -5.33333,0 -0.66667,0 -1.33334,0 -1.66667,0 -0.66667,0 -1.66667,0 -2.33333,0 0.66666,0 1.66666,0 2.33333,0 0.33333,0 0.66667,0 1.33333,0 1.66667,0 3.66667,0 5.66667,0 m 36,-8.33334 c -0.66667,1 -1.33334,1.66667 -2.33334,2.33334 -2,1.66666 -4.66666,2.33333 -7.33333,3 -1.33333,0.66666 -3,1 -4.33333,1 1.33333,0 3,-0.33334 4.33333,-1 2.66667,-0.66667 5.33333,-1.33334 7.33333,-3 1,-0.66667 1.66667,-1.33334 2.33334,-2.33334 m 4.66666,-48.66666 c 0,3.66666 -0.33333,7 0,10.33333 0,7.33333 0,15 -0.66666,22.66667 -0.33334,1 -0.33334,2 -0.33334,3.33333 0,-1.33333 0,-2.33333 0.33334,-3.33333 0.33333,-5.66667 0.66666,-11 0.66666,-16.66667 0,-2 0,-4 0,-6 0,-1 0,-2 0,-3.33333 0,0 0,0 0,0 0,-2.33334 0,-4.66667 0,-7 m 0,-37.33334 c 0,8.33334 0,17 0,25.33334 0,0.66666 0,1 0,1.33333 0,-0.33333 0,-0.66667 0,-1.33333 0,-8.33334 0,-17 0,-25.33334 m 0,-15.66666 c 0.33334,3.33333 0.33334,6.66666 0,10.33333 0.33334,-1.66667 0.33334,-3.33333 0.33334,-5 0,-1.66667 0,-3.66667 -0.33334,-5.33333 m -51.99999,-25 c 0,9.33333 0,9.33333 0,9.33333 0.66666,0 1.66666,0 2.33333,0 3.66667,0 7.33333,0 11,0 3.33333,0.33334 6.66667,0.33334 10,0.66667 2,0 4,0 6,0.33333 0,0 0.33333,0 0.66667,0 3.66666,0.66667 9,0.66667 10.66666,5 0.66667,2 1,4.66667 1.33333,7 0.33334,5.66667 0.33334,11.66667 0.33334,17.66667 0,18.66666 -1,37.33333 -1.66667,56.33333 0,5.33333 -1,11.66667 -6.66666,14 -1.66667,0.66667 -4,1 -6,1.33333 -2.33334,0.33334 -4.66667,0.66667 -7,0.66667 -1.66667,0 -3,0 -4.33334,0 -2.33333,0 -4.33333,0 -6.33333,0 -2,0 -3.66667,0 -5.66667,0 -0.66666,0 -1.33333,0 -2,0 0,0 -0.33333,0 -0.66666,0 -0.66667,0 -1.33334,0 -2,0 0,19 0,19 0,19 1.33333,0 2.66666,0 4.33333,0 0.33333,0 1,0 1.66667,0 7.66666,0 14.33333,-0.33333 20.66666,-1.33333 4,-0.33334 7.33334,-1 10,-1.66667 2.33334,-0.66667 4.33333,-1.33333 6,-2.33333 0.66667,-0.33334 1,-1 1.33333,-1.66667 0.66667,-0.66667 1.33334,-2 1.66667,-3.33333 1,-3.33334 1.33333,-7.33334 1.66667,-10.33334 0.66666,-7.33333 0.66666,-14.66666 0.66666,-22 0,-0.33333 0,-0.33333 0,-0.33333 0,-4.66667 0,-9.66667 0,-14.33333 0,-2.66667 0,-5.33334 0,-8 0.33334,-9.66667 0.33334,-19.33334 0.33334,-29 0,-4.33334 0,-8.66667 0,-13 0,-2 0,-2 0,-2 0,-2.66667 0,-5.66667 -0.33334,-8.33333 0,-4.66667 -0.66666,-9 -2,-13.33334 -45.99999,-0.33333 -45.99999,-0.33333 -45.99999,-0.33333 z"
         id="path1960" />
      <path
         style="fill:#dee2e7;fill-opacity:1;fill-rule:nonzero;stroke:none"
         d="m 718.6543,434.17195 c 0,0 0,0 0,0 0,1.33333 0,2.66666 0.33334,4 0,0 0,0 0,0 -0.33334,-1.33334 -0.33334,-2.66667 -0.33334,-4 z"
         id="path1962" />
      <path
         style="fill:#dee2e7;fill-opacity:1;fill-rule:nonzero;stroke:none"
         d="m 736.32097,488.17195 c 0,0 0,0 0,0 0,0 0,0 0,0 m -21.33333,-48.66667 c 0,2.33333 0,5 0.33333,7.66667 0.33333,2.33333 1,4.66666 2.33333,7 1,1.66666 2,3 2.66667,4.66666 0.66667,1 1.33333,2.33334 2,3.33334 0.33333,0.66666 0.33333,0.66666 0.33333,0.66666 3,5 6,10 7.66667,15 0.33333,1 0.66666,2 0.66666,3 4,0 4,0 4,0 0.66667,2.66667 1,5 1.33334,7.33334 -0.33334,-2.66667 -0.66667,-5 -1.33334,-7.33334 -0.33333,-1.33333 -0.66666,-2.66666 -1,-4 -0.66666,-1.66666 -1.33333,-3.33333 -2,-5 -0.66666,-1.66666 -1.33333,-3.33333 -2.33333,-4.66666 -1.33333,-2.33334 -2.66667,-4.66667 -3.66667,-7 -0.33333,0 -0.33333,-0.33334 -0.66666,-0.66667 -1.33333,-2.33333 -2.66667,-4.66667 -4.33333,-7 -1,-2 -1.66667,-3.66667 -1.66667,-6 0,-0.33333 -0.33333,-0.66667 -0.33333,-1 0,-1.66667 0,-3.33333 0,-4.66667 0,-0.33333 0,-1 0,-1.33333 -4,0 -4,0 -4,0 z"
         id="path1964" />
      <path
         style="fill:#d4dde4;fill-opacity:1;fill-rule:nonzero;stroke:none"
         d="m 730.98763,480.83861 c 1.33334,4.33334 2,8.66667 2,13.33334 0.33334,2.66666 0.33334,5.66666 0.33334,8.33333 0,2 0,2 0,2 0,4.33333 0,8.66666 0,13 0,9.66666 0,19.33333 -0.33334,29 0,2.66666 0,5.33333 0,8 0,4.66666 0,9.66666 0,14.33333 0,0.33333 0,0.33333 0,0.33333 0,7.33334 0,14.66667 -0.66666,22 -0.33334,3 -0.66667,7 -1.66667,10.33334 -0.33333,1.33333 -1,2.66666 -1.66667,3.33333 -0.33333,0.66667 -0.66666,1.33333 -1.33333,1.66667 -1.66667,1 -3.66666,1.66666 -6,2.33333 -2.66666,0.66667 -6,1.33333 -10,1.66667 -6.33333,1 -13,1.33333 -20.66666,1.33333 -0.66667,0 -1.33334,0 -1.66667,0 -1.66667,0 -3,0 -4.33333,0 0,3.66667 0,3.66667 0,3.66667 0.66666,0 1.33333,0 2,0 0.66666,0 1.66666,0 2.33333,0 0.33333,0 1,0 1.66667,0 1.66666,0 3.33333,0 5.33333,0 5.33333,0 10.66667,-0.33334 16,-1 2,-0.33334 4,-0.66667 6,-1 1.33333,0 3,-0.33334 4.33333,-1 2.66667,-0.66667 5.33333,-1.33334 7.33333,-3 1,-0.66667 1.66667,-1.33334 2.33334,-2.33334 1,-1.33333 1.33333,-3 2,-4.33333 0.66666,-2.66667 1.33333,-5.33333 1.66666,-8 0,-1.33333 0,-2.33333 0.33334,-3.33333 0.66666,-7.66667 0.66666,-15.33334 0.66666,-22.66667 -0.33333,-3.33333 0,-6.66667 0,-10.33333 0,-3.33334 0,-7 0,-10.66667 0,-0.33333 0,-0.66667 0,-1.33333 0,-8.33334 0,-17 0,-25.33334 0,-1.33333 0,-2.66666 0,-3.66666 0,-0.66667 0,-1.33334 0,-1.66667 0.33334,-3.66667 0.33334,-7 0,-10.33333 0,-0.33334 0,-0.66667 0,-1 0,-0.33334 0,-0.66667 0,-1 0,-0.66667 0,-1.66667 0,-2.66667 0,-2.33333 0,-4.66666 0,-7 0,0 0,0 0,0 0,-1.66666 -0.33333,-3.66666 -0.66666,-5.66666 0,0 0,0 0,0 0,0 0,0 0,0 0,0 0,0 0,0 0,0 0,0 0,0 0,0 0,0 0,0 -0.33334,-2.33334 -0.66667,-4.66667 -1.33334,-7.33334 -4,0 -4,0 -4,0 z"
         id="path1966" />
      <path
         style="fill:#dee2e7;fill-opacity:1;fill-rule:nonzero;stroke:none"
         d="m 687.32097,489.83861 c -0.66667,0 -1.66667,0 -2.33333,0 0,18 0,18 0,18 29,0 29,0 29,0 2,0 3.66666,1.66667 3.66666,4 0,11.66667 0,11.66667 0,11.66667 0,2.33333 -1.66666,4 -4,4 0,0 0,0 0,0 -28.66666,-0.33334 -28.66666,-0.33334 -28.66666,-0.33334 0,13.66667 0,13.66667 0,13.66667 16.33333,0 16.33333,0 16.33333,0 1,0 2,1 2,2 0,0 0,0 0,0 0,1 -1,2 -2,2 0,0 0,0 0,0 -16.33333,-0.33333 -16.33333,-0.33333 -16.33333,-0.33333 0,8.33333 0,8.33333 0,8.33333 16.33333,0 16.33333,0 16.33333,0 1,0 2,1 2,2 0,0 0,0 0,0 0,1.33333 -1,2 -2,2 0,0 0,0 0,0 -16.33333,0 -16.33333,0 -16.33333,0 0,8.33333 0,8.33333 0,8.33333 16.33333,0 16.33333,0 16.33333,0 1,0 2,0.66667 2,2 0,0 0,0 0,0 0,1 -1,2 -2,2 0,0 0,0 0,0 -16.33333,-0.33333 -16.33333,-0.33333 -16.33333,-0.33333 0,24 0,24 0,24 0.66666,0 1.33333,0 2,0 0.33333,0 0.66666,0 0.66666,0 0.66667,0 1.33334,0 2,0 2,0 3.66667,0 5.66667,0 2,0 4,0 6.33333,0 1.33334,0 2.66667,0 4.33334,0 2.33333,0 4.66666,-0.33333 7,-0.66667 2,-0.33333 4.33333,-0.66666 6,-1.33333 5.66666,-2.33333 6.66666,-8.66667 6.66666,-14 0.66667,-19 1.66667,-37.66667 1.66667,-56.33333 0,-6 0,-12 -0.33334,-17.66667 -0.33333,-2.33333 -0.66666,-5 -1.33333,-7 -1.66666,-4.33333 -7,-4.33333 -10.66666,-5 -0.33334,0 -0.66667,0 -0.66667,0 -2,-0.33333 -4,-0.33333 -6,-0.33333 -3.33333,-0.33333 -6.66667,-0.33333 -10,-0.66667 -3.66667,0 -7.33333,0 -11,0 z"
         id="path1968" />
      <path
         style="fill:#8fbbd4;fill-opacity:1;fill-rule:nonzero;stroke:none"
         d="m 684.98764,507.83861 c 0,5.33333 0,5.33333 0,5.33333 29.66666,0 29.66666,0 29.66666,0 -0.33333,11 -0.33333,11 -0.33333,11 -29.33333,0 -29.33333,0 -29.33333,0 0,3 0,3 0,3 28.66666,0.33334 28.66666,0.33334 28.66666,0.33334 0,0 0,0 0,0 2.33334,0 4,-1.66667 4,-4 0,-11.66667 0,-11.66667 0,-11.66667 0,-2.33333 -1.66666,-4 -3.66666,-4 -29,0 -29,0 -29,0 z"
         id="path1970" />
      <path
         style="fill:#abb4bf;fill-opacity:1;fill-rule:nonzero;stroke:none"
         d="m 684.98764,540.83861 c 0,3.66667 0,3.66667 0,3.66667 16.33333,0.33333 16.33333,0.33333 16.33333,0.33333 0,0 0,0 0,0 1,0 2,-1 2,-2 0,0 0,0 0,0 0,-1 -1,-2 -2,-2 -16.33333,0 -16.33333,0 -16.33333,0 z"
         id="path1972" />
      <path
         style="fill:#abb4bf;fill-opacity:1;fill-rule:nonzero;stroke:none"
         d="m 684.98764,552.83861 c 0,4 0,4 0,4 16.33333,0 16.33333,0 16.33333,0 0,0 0,0 0,0 1,0 2,-0.66667 2,-2 0,0 0,0 0,0 0,-1 -1,-2 -2,-2 -16.33333,0 -16.33333,0 -16.33333,0 z"
         id="path1974" />
      <path
         style="fill:#abb4bf;fill-opacity:1;fill-rule:nonzero;stroke:none"
         d="m 684.98764,565.17194 c 0,3.66667 0,3.66667 0,3.66667 16.33333,0.33333 16.33333,0.33333 16.33333,0.33333 0,0 0,0 0,0 1,0 2,-1 2,-2 0,0 0,0 0,0 0,-1.33333 -1,-2 -2,-2 -16.33333,0 -16.33333,0 -16.33333,0 z"
         id="path1976" />
      <path
         style="fill:#abb4bf;fill-opacity:1;fill-rule:nonzero;stroke:none"
         d="m 718.98764,438.17195 c 0,0.66666 0,1 0,1.33333 0,0 0,0 0,0 0,-0.33333 0,-0.66667 0,-1.33333 m -34,-4.66667 c 0,6 0,6 0,6 30,0 30,0 30,0 0,-1.66667 0,-3.33333 0,-4.66667 0,0 0,-0.33333 0,-1 -0.66667,0 -1,0 -1.66667,0 -7.66667,0 -15,-0.33333 -22.33333,-0.33333 -2,0 -4,0 -6,0 z"
         id="path1978" />
      <path
         style="fill:#abb4bf;fill-opacity:1;fill-rule:nonzero;stroke:none"
         d="m 714.98764,433.83861 c 0,0.66667 0,1 0,1 0,1.33334 0,3 0,4.66667 4,0 4,0 4,0 0,-0.33333 0,-0.66667 0,-1.33333 -0.33334,-1.33334 -0.33334,-2.66667 -0.33334,-4 0,0 0,0 0,0 0,0 0,0 0,0 0,0 0,0 0,0 0,-0.33334 0,-0.33334 0,-0.33334 -1,0 -2.33333,0 -3.66666,0 z"
         id="path1980" />
      <path
         style="fill:#8fbbd4;fill-opacity:1;fill-rule:nonzero;stroke:none"
         clip-path="url(#clipEmfPath1)"
         d="M 59.333333,123.33333 H 89 v -11 H 59.333333 Z"
         id="path1982"
         transform="translate(625.6543,400.83861)" />
      <path
         style="fill:#203954;fill-opacity:1;fill-rule:nonzero;stroke:none"
         d="m 714.98764,400.83861 c -4,0 -8.33334,0.33334 -12.33334,0.33334 0,0 0,0 0,0 -6,0 -11.66666,0 -17.66666,0 0,32.33333 0,32.33333 0,32.33333 2,0 4,0 6,0 7.33333,0 14.66666,0.33333 22.33333,0.33333 0.66667,0 1,0 1.66667,0 1.33333,0 2.66666,0 3.66666,0 0,0 0,0 0,0 1,0 1.66667,0 2.33334,0 1,0 2,0 2.66666,0 0.66667,0 1,0 1.66667,0 1.33333,0 3,-0.66666 4,-1.66666 0.33333,-0.66667 1,-1.33334 1.33333,-2 1.66667,-3.66667 2.33333,-8 2.33333,-12 0,-2 -0.33333,-4 -0.33333,-6 0,-0.33334 0,-0.66667 0,-1 -0.66667,-3.66667 -2.33333,-6.33334 -6,-8 0,0 0,0 0,0 0,0 0,-0.33334 0,-0.33334 -3.66666,-1.66666 -7.66666,-2 -11.66666,-2 z"
         id="path1994" />
      <text
         xml:space="preserve"
         style="font-style:normal;font-variant:normal;font-weight:400;font-size:16px;line-height:125%;font-family:'Times New Roman';text-align:start;letter-spacing:0px;word-spacing:0px;text-anchor:start;fill:#25405d;fill-opacity:1;stroke:none"
         transform="rotate(0.30000216)"
         x="659.20105"
         y="518.75507"
         id="text1952"><tspan
           sodipodi:role="line"
           x="659.20105"
           y="518.75507"
           id="tspan1950">Vaccine</tspan></text>
    </g>
    <g
       id="g2320"
       transform="translate(74.439628,43.19027)"
       inkscape:export-filename="C:\Users\maria\Documents\2_TRAVAIL\0_ALTERNANCE\MAHA\6_DeveloppementWeb\landing_page\images\carousel\carousel-img-1bis.png"
       inkscape:export-xdpi="96"
       inkscape:export-ydpi="96">
      <g
         id="g2384"
         transform="matrix(1.2424413,0,0,1.2424413,-468.17989,-302.24827)">
        <g
           id="g2330"
           transform="matrix(0.73883238,0,0,1,233.80524,0)">
          <path
             style="fill:#ff6200;fill-opacity:1;fill-rule:nonzero;stroke:none;stroke-width:0.482815"
             d="m 938.59846,644.83016 c 9.81728,-77.25044 9.81728,-77.25044 9.81728,-77.25044 1.28747,-9.97818 -6.2766,-18.82979 -15.9329,-18.82979 -277.45784,0 -277.45784,0 -277.45784,0 -11.10475,0 -20.60008,7.5641 -23.49697,18.34698 -19.6345,73.54885 -19.6345,73.54885 -19.6345,73.54885 z"
             id="path2109" />
          <path
             style="fill:#ff6200;fill-opacity:1;fill-rule:nonzero;stroke:none;stroke-width:0.482815"
             d="m 913.17023,644.83016 c 9.97815,-77.25044 9.97815,-77.25044 9.97815,-77.25044 1.28752,-9.97818 -6.2766,-18.82979 -16.09383,-18.82979 -277.45778,0 -277.45778,0 -277.45778,0 -10.94383,0 -20.60014,7.5641 -23.49703,18.34698 -19.6345,73.54885 -19.6345,73.54885 -19.6345,73.54885 z"
             id="path2111" />
          <path
             style="fill:#ff6200;fill-opacity:1;fill-rule:nonzero;stroke:none;stroke-width:0.482815"
             d="m 603.04193,655.61303 c 324.77368,0 324.77368,0 324.77368,0 5.9547,0 10.78285,-4.66721 10.78285,-10.62193 0,-21.56575 0,-21.56575 0,-21.56575 0,-5.79378 -4.82815,-10.62194 -10.78285,-10.62194 -324.77368,0 -324.77368,0 -324.77368,0 -5.79378,0 -10.62194,4.82816 -10.62194,10.62194 0,21.56575 0,21.56575 0,21.56575 0,5.95472 4.82816,10.62193 10.62194,10.62193 z"
             id="path2113" />
          <path
             style="fill:#ff6200;fill-opacity:1;fill-rule:nonzero;stroke:none;stroke-width:0.482815"
             d="m 577.93554,655.61303 c 283.8953,0 283.8953,0 283.8953,0 11.74854,0 21.24387,-9.49537 21.24387,-21.08293 0,-0.64375 0,-0.64375 0,-0.64375 0,-11.58757 -9.49533,-21.08294 -21.24387,-21.08294 -283.8953,0 -283.8953,0 -283.8953,0 -11.58757,0 -21.08295,9.49537 -21.08295,21.08294 0,0.64375 0,0.64375 0,0.64375 0,11.58756 9.49538,21.08293 21.08295,21.08293 z"
             id="path2115" />
          <path
             style="fill:#2e3552;fill-opacity:1;fill-rule:nonzero;stroke:none;stroke-width:0.482815"
             d="m 894.17946,693.91637 c 0,0 0,0 0,0 2.09224,0 3.7016,-1.93126 3.37971,-4.02346 -5.15,-34.27988 -5.15,-34.27988 -5.15,-34.27988 -9.33446,0 -9.33446,0 -9.33446,0 9.17349,36.69396 9.17349,36.69396 9.17349,36.69396 0.16097,0.96563 0.96563,1.60938 1.93126,1.60938 z"
             id="path2117" />
          <path
             style="fill:#2e3552;fill-opacity:1;fill-rule:nonzero;stroke:none;stroke-width:0.482815"
             d="m 575.36049,693.91637 c 0,0 0,0 0,0 -2.09218,0 -3.70155,-1.93126 -3.37971,-4.02346 5.15005,-34.27988 5.15005,-34.27988 5.15005,-34.27988 9.33441,0 9.33441,0 9.33441,0 -9.17349,36.69396 -9.17349,36.69396 -9.17349,36.69396 -0.16092,0.96563 -0.96563,1.60938 -1.93126,1.60938 z"
             id="path2119" />
          <path
             style="fill:#2e3552;fill-opacity:1;fill-rule:nonzero;stroke:none;stroke-width:0.482815"
             d="m 613.82479,693.91637 c 0,0 0,0 0,0 -2.09219,0 -3.54063,-1.93126 -3.21879,-4.02346 5.15005,-34.27988 5.15005,-34.27988 5.15005,-34.27988 9.33441,0 9.33441,0 9.33441,0 -9.17349,36.69396 -9.17349,36.69396 -9.17349,36.69396 -0.32185,0.96563 -1.12655,1.60938 -2.09218,1.60938 z"
             id="path2121" />
          <path
             style="fill:#2e3552;fill-opacity:1;fill-rule:nonzero;stroke:none;stroke-width:0.482815"
             d="m 927.81561,693.91637 c 0,0 0,0 0,0 2.09218,0 3.7016,-1.93126 3.3797,-4.02346 -5.15004,-34.27988 -5.15004,-34.27988 -5.15004,-34.27988 -9.49534,0 -9.49534,0 -9.49534,0 9.33442,36.69396 9.33442,36.69396 9.33442,36.69396 0.16092,0.96563 0.96563,1.60938 1.93126,1.60938 z"
             id="path2123" />
        </g>
        <path
           style="fill:#9f616a;fill-opacity:1;fill-rule:nonzero;stroke:none;stroke-width:0.482815"
           d="m 781.52259,547.14054 c 0,0 -3.86252,-3.3797 -5.31096,-4.02345 -1.44845,-0.64376 -3.86252,-3.21877 -4.34534,-2.41408 -0.48281,0.96563 1.60937,2.57501 1.28752,3.54064 -0.16097,0.96563 -7.40318,1.77033 -7.56412,2.89689 0,1.12658 1.28751,3.86253 3.86252,3.86253 2.73597,0 9.81723,-0.64376 11.90946,-0.32188 1.44845,0.32188 0.16092,-3.54065 0.16092,-3.54065 z"
           id="path2125" />
        <path
           style="fill:#ffffff;fill-opacity:1;fill-rule:nonzero;stroke:none;stroke-width:0.482815"
           d="m 849.92143,509.80284 c 0,0 -4.18441,-1.93127 -17.22042,9.97818 -13.19694,11.7485 -22.04858,24.14076 -29.12984,24.78451 -6.92038,0.48282 -22.69231,1.77033 -22.69231,1.77033 -2.25316,4.34533 -2.25316,4.34533 -2.25316,4.34533 0,0 0.64374,1.93126 11.74849,5.47191 9.33446,3.05782 18.34698,2.25314 19.31261,2.09219 8.85164,-0.96563 30.41736,-15.45008 33.63614,-19.63448 3.21879,-4.34534 6.59849,-28.80797 6.59849,-28.80797 z"
           id="path2127" />
        <path
           style="fill:#9f616a;fill-opacity:1;fill-rule:nonzero;stroke:none;stroke-width:0.482815"
           d="m 757.38183,639.84107 c 0.32188,2.0922 0,4.98909 -0.32187,8.69067 -1.77032,14.00164 -7.56411,36.69396 -7.56411,36.69396 -7.24222,0.80469 -7.24222,0.80469 -7.24222,0.80469 0.48281,-4.02346 -0.96564,-19.31261 -2.8969,-36.21114 -3.05782,-25.58921 -7.24221,-54.88 -7.24221,-54.88 0,0 15.77195,-12.87507 24.94544,-9.33443 9.33443,3.54065 -0.64376,44.41901 0.32187,54.23625 z"
           id="path2129" />
        <path
           style="fill:#9f616a;fill-opacity:1;fill-rule:nonzero;stroke:none;stroke-width:0.482815"
           d="m 757.05996,648.53174 c -1.77032,14.00164 -7.56411,36.69396 -7.56411,36.69396 -7.24222,0.80469 -7.24222,0.80469 -7.24222,0.80469 0.48281,-4.02346 -0.96564,-19.31261 -2.8969,-36.21114 2.57502,0.48281 9.49537,1.44844 15.28915,-0.80469 0.96563,-0.32188 1.60939,-0.48282 2.41408,-0.48282 z"
           id="path2131" />
        <path
           style="fill:#2c3a64;fill-opacity:1;fill-rule:nonzero;stroke:none;stroke-width:0.482815"
           d="m 750.46148,490.16835 c 0,0 -3.86252,-1.77033 -8.20785,0 -4.18441,1.77032 -7.24223,9.6563 -5.31097,16.89853 1.77032,7.24223 -4.66722,7.24223 -1.60938,13.19695 0.96563,1.93126 15.1282,3.70158 15.61102,-4.34533 0.16094,-4.9891 -4.34534,-5.15003 -2.89689,-10.62194 1.28751,-5.31097 2.41407,-15.12821 2.41407,-15.12821 z"
           id="path2133" />
        <path
           style="fill:#9f616a;fill-opacity:1;fill-rule:nonzero;stroke:none;stroke-width:0.482815"
           d="m 770.57879,638.39262 c 0.32187,2.41408 0.32187,6.43754 -0.16095,11.26569 -1.2875,14.32352 -5.15002,34.92364 -5.15002,34.92364 -7.08129,1.60938 -7.08129,1.60938 -7.08129,1.60938 0.32188,-3.86252 -2.0922,-18.66885 -4.98909,-35.24551 -4.66722,-25.75015 -10.62194,-55.84563 -10.62194,-55.84563 0,0 14.80633,-13.8407 24.3017,-10.94381 9.49535,3.05783 1.93126,44.419 3.70159,54.23624 z"
           id="path2135" />
        <path
           style="fill:#163560;fill-opacity:1;fill-rule:nonzero;stroke:none;stroke-width:0.482815"
           d="m 742.41456,684.58195 c 0,0 -1.77032,3.21876 -4.98909,3.86252 -2.09219,0.48281 -3.86251,1.60938 -4.98906,3.05783 -0.80471,1.2875 0,3.05783 1.60937,3.05783 16.57664,0 16.57664,0 16.57664,0 1.44845,0 2.57502,-1.28751 2.41408,-2.73596 -0.16094,-1.12656 -0.32188,-2.57501 -0.32188,-3.70158 -0.16094,-2.41408 -2.73595,-4.50628 -2.73595,-4.50628 0,0 -2.25314,1.28751 -3.21877,1.44845 -1.93126,0.32188 -4.34534,-0.48281 -4.34534,-0.48281 z"
           id="path2137" />
        <path
           style="fill:#9f616a;fill-opacity:1;fill-rule:nonzero;stroke:none;stroke-width:0.482815"
           d="m 739.1958,524.77011 c 0,0 -10.78288,18.34698 -13.03599,33.15331 0,0 5.31097,7.24223 7.40315,2.0922 2.09219,-4.98909 17.54228,-31.70487 5.63284,-35.24551 z"
           id="path2139" />
        <path
           style="fill:#2c3a64;fill-opacity:1;fill-rule:nonzero;stroke:none;stroke-width:0.482815"
           d="m 741.28799,492.42149 c 0.16094,-0.32188 4.98909,-7.88599 14.00165,-9.49537 7.40316,-1.12657 14.16257,4.02346 15.28915,11.42663 1.12658,7.40316 0,16.89853 -12.07038,20.43917 z"
           id="path2141" />
        <path
           style="fill:#9f616a;fill-opacity:1;fill-rule:nonzero;stroke:none;stroke-width:0.482815"
           d="m 743.54113,525.25292 c 13.51883,8.20786 13.51883,8.20786 13.51883,8.20786 3.54064,-9.6563 3.54064,-9.6563 3.54064,-9.6563 0,0 -1.60938,-3.54065 -2.09219,-9.01256 -0.16095,-2.41407 -0.16095,-5.15002 0.32187,-8.20785 -11.90944,5.15003 -11.90944,5.15003 -11.90944,5.15003 0,0 0.16094,1.12656 0.32187,2.73595 0,1.77032 0,4.02346 -0.64375,6.11566 -0.48281,1.93126 -1.44844,3.54065 -3.05783,4.66721 z"
           id="path2143" />
        <path
           style="fill:#9f616a;fill-opacity:1;fill-rule:nonzero;stroke:none;stroke-width:0.482815"
           d="m 746.59896,520.58571 c 6.59848,0.32188 11.90945,-5.79379 11.90945,-5.79379 -11.2657,-0.32187 -11.2657,-0.32187 -11.2657,-0.32187 0,1.77032 0,4.02346 -0.64375,6.11566 z"
           id="path2145" />
        <path
           style="fill:#9f616a;fill-opacity:1;fill-rule:nonzero;stroke:none;stroke-width:0.482815"
           d="m 743.70207,516.72319 c 0,0 12.71413,4.34533 17.86416,-5.79379 5.63285,-10.94381 0.8047,-19.31261 -3.54064,-20.27824 -8.85161,-1.60938 -14.16258,1.44845 -15.9329,4.98909 -1.77033,3.37971 -5.47191,18.8298 1.60938,21.08294 z"
           id="path2147" />
        <path
           style="fill:#ffffff;fill-opacity:1;fill-rule:nonzero;stroke:none;stroke-width:0.482815"
           d="m 749.17398,511.25128 c 0,0 -0.64376,1.28751 -4.02346,0.32188 0,0 -2.89689,-0.80469 -2.41408,-2.25314 0,0 3.05783,-0.48282 6.43754,1.93126 z"
           id="path2149" />
        <path
           style="fill:#00a87b;fill-opacity:1;fill-rule:nonzero;stroke:none;stroke-width:0.482815"
           d="m 776.21163,629.38007 c -3.7016,3.54065 -31.06111,10.94381 -46.51119,5.63284 -2.73597,-0.96563 1.60937,-86.26298 4.18441,-102.6787 0.80467,-4.66721 4.34532,-8.04692 8.85159,-8.69067 0.80469,-0.16094 1.60938,-0.16094 2.57501,-0.32188 -0.16093,2.0922 0.48282,3.86252 4.02347,4.66722 4.66721,0.80469 9.17349,-2.09221 11.42662,-4.1844 3.70159,0.80469 5.79378,1.12656 8.69067,2.25314 3.21879,1.44844 5.15005,4.66721 4.66723,8.20785 -0.8047,6.43754 -0.8047,6.43754 -0.8047,6.43754 -2.8969,20.76105 -2.8969,20.76105 -2.8969,20.76105 -0.32187,2.57502 -0.32187,5.31097 0.16095,7.88598 1.12658,7.88599 3.05784,27.03766 4.34531,41.68305 0.80471,10.13912 1.44845,18.18604 1.28753,18.34698 z"
           id="path2151" />
        <path
           style="fill:#2c3a64;fill-opacity:1;fill-rule:nonzero;stroke:none;stroke-width:0.482815"
           d="m 752.71462,491.93867 c 0,0 -1.28751,12.07038 10.13912,16.25478 4.50628,1.77032 6.92035,-16.73759 -2.57501,-20.27824 -9.49537,-3.70158 -18.8298,0.64376 -19.95637,7.08129 -1.12656,6.43753 -0.32187,7.72504 -0.32187,7.72504 0,0 4.50627,-12.23131 12.71413,-10.78287 z"
           id="path2153" />
        <path
           style="fill:#9f616a;fill-opacity:1;fill-rule:nonzero;stroke:none;stroke-width:0.482815"
           d="m 759.63497,531.36858 c 0,0 -5.31096,20.60012 -5.4719,28.80798 0,0 -11.58757,20.1173 -12.23132,21.56574 -0.64376,1.44845 4.1844,3.37971 4.1844,3.37971 0,0 14.48445,-15.45009 17.22041,-21.88762 2.73595,-6.43754 12.55317,-27.35953 8.69065,-33.63613 -4.02344,-6.2766 -12.39224,1.77032 -12.39224,1.77032 z"
           id="path2155" />
        <path
           style="fill:#9f616a;fill-opacity:1;fill-rule:nonzero;stroke:none;stroke-width:0.482815"
           d="m 726.15981,557.92342 c 0,0 -0.96563,14.16258 9.01252,25.26733 0,0 2.73596,-3.21877 2.41408,-4.34534 -0.32187,-0.96563 -4.34534,-16.73759 -7.08126,-18.99073 -2.89689,-2.25314 -4.34534,-1.93126 -4.34534,-1.93126 z"
           id="path2157" />
        <path
           style="fill:#9f616a;fill-opacity:1;fill-rule:nonzero;stroke:none;stroke-width:0.482815"
           d="m 741.93175,581.7423 c 0,0 -6.43754,0 -6.75942,1.44845 -0.32187,1.44844 1.60939,6.2766 6.43754,4.66721 4.66721,-1.77032 4.50628,-2.73595 4.50628,-2.73595 z"
           id="path2159" />
        <path
           style="fill:#9f616a;fill-opacity:1;fill-rule:nonzero;stroke:none;stroke-width:0.482815"
           d="m 737.58641,578.84541 c 0,0 5.15003,2.41408 3.37971,4.98909 -1.77032,2.57502 -5.31097,0.96563 -5.79379,-0.64375 -0.48281,-1.60938 2.41408,-4.34534 2.41408,-4.34534 z"
           id="path2161" />
        <path
           style="fill:#00a87b;fill-opacity:1;fill-rule:nonzero;stroke:none;stroke-width:0.482815"
           d="m 755.77245,542.15146 c 0,0 6.75941,6.27659 17.22039,5.31096 0,0 4.98913,-18.0251 -3.21875,-20.27824 -8.20786,-2.25314 -14.96727,8.52974 -14.00164,14.96728 z"
           id="path2163" />
        <path
           style="fill:#00a87b;fill-opacity:1;fill-rule:nonzero;stroke:none;stroke-width:0.482815"
           d="m 735.65515,527.98888 c -5.95471,10.13912 -5.95471,10.13912 -5.95471,10.13912 0,0 0.80471,4.66721 5.15002,5.15002 4.50627,0.48282 0.80469,-15.28914 0.80469,-15.28914 z"
           id="path2165" />
        <path
           style="fill:#2c3a64;fill-opacity:1;fill-rule:nonzero;stroke:none;stroke-width:0.482815"
           d="m 766.8772,490.32928 c 0,0 3.70159,-2.09219 8.0469,0 4.18442,1.93127 7.4032,10.78288 5.47194,18.8298 -1.93126,8.20786 4.50626,8.3688 1.44845,14.96728 -0.96563,2.25313 -14.96729,4.18439 -15.4501,-4.82816 -0.32188,-5.63284 4.1844,-5.79378 2.89689,-11.90944 -1.44845,-6.11566 -2.41408,-17.05948 -2.41408,-17.05948 z"
           id="path2167" />
        <path
           style="fill:#9f616a;fill-opacity:1;fill-rule:nonzero;stroke:none;stroke-width:0.482815"
           d="m 770.41784,649.65831 c -1.2875,14.32352 -5.15002,34.92364 -5.15002,34.92364 -7.08129,1.60938 -7.08129,1.60938 -7.08129,1.60938 0.32188,-3.86252 -2.0922,-18.66885 -4.98909,-35.24551 3.70158,0.32187 10.78287,0.64375 17.2204,-1.28751 z"
           id="path2169" />
        <path
           style="fill:#163560;fill-opacity:1;fill-rule:nonzero;stroke:none;stroke-width:0.482815"
           d="m 758.02559,684.58195 c 0,0 -1.77032,3.21876 -4.98909,3.86252 -2.0922,0.48281 -3.86252,1.60938 -4.98909,3.05783 -0.96563,1.2875 0,3.05783 1.60938,3.05783 16.57666,0 16.57666,0 16.57666,0 1.44845,0 2.57501,-1.28751 2.41408,-2.73596 -0.16095,-1.12656 -0.32188,-2.57501 -0.32188,-3.70158 -0.16094,-2.41408 -2.73596,-4.50628 -2.73596,-4.50628 0,0 -2.41407,1.28751 -3.21876,1.44845 -1.93126,0.32188 -4.34534,-0.48281 -4.34534,-0.48281 z"
           id="path2171" />
        <path
           style="fill:#163560;fill-opacity:1;fill-rule:nonzero;stroke:none;stroke-width:0.482815"
           d="m 847.34639,470.21199 c 0,0 -0.16093,-8.52974 11.10475,-10.30006 11.10475,-1.60939 14.32353,0.96563 16.25479,3.86252 1.77034,2.89689 5.47189,14.6454 4.98908,19.31261 -0.32185,4.66721 -13.03601,10.30006 -12.87504,13.03601 0.16092,2.73595 -19.47358,-25.91108 -19.47358,-25.91108 z"
           id="path2173" />
        <path
           style="fill:#9f616a;fill-opacity:1;fill-rule:nonzero;stroke:none;stroke-width:0.482815"
           d="m 797.29457,688.44447 c 0.16093,2.89689 -3.70159,3.54064 -8.36882,3.70158 -4.50626,0.16094 -3.21874,1.12657 -9.49534,2.0922 -6.2766,1.12657 -8.69069,-0.64375 -9.1735,-1.60938 -0.48282,-0.64376 2.57501,-1.77033 5.63282,-3.05784 0.48282,-0.16093 0.80471,-0.32187 1.12661,-0.48281 3.54062,-1.60938 5.63281,-4.66721 8.36878,-7.5641 2.57499,-2.73596 5.15004,-11.42663 5.15004,-11.42663 8.52971,-1.77033 8.52971,-1.77033 8.52971,-1.77033 0,0 -2.41408,7.88599 -3.37971,11.2657 -0.48282,1.93126 0.32189,4.18439 0.80471,5.95472 0.32189,0.96563 0.8047,1.93126 0.8047,2.89689 z"
           id="path2175" />
        <path
           style="fill:#163560;fill-opacity:1;fill-rule:nonzero;stroke:none;stroke-width:0.482815"
           d="m 788.92575,692.14605 c -4.50626,0.16094 -3.21874,1.12657 -9.49534,2.0922 -6.2766,1.12657 -8.69069,-0.64375 -9.1735,-1.60938 -0.48282,-0.64376 2.57501,-1.77033 5.63282,-3.05784 0,0 0,0 0,0 0,0 4.50631,1.60939 9.49539,0.16095 4.18441,-0.96563 8.36878,-3.37971 11.10475,-4.1844 0.32189,0.96563 0.8047,1.93126 0.8047,2.89689 0.16093,2.89689 -3.70159,3.54064 -8.36882,3.70158 z"
           id="path2177" />
        <path
           style="fill:#163560;fill-opacity:1;fill-rule:nonzero;stroke:none;stroke-width:0.482815"
           d="m 863.11837,581.7423 c 0,0 -56.81128,3.05783 -66.46758,11.10475 -9.81723,8.04693 -11.90941,87.22862 -11.90941,87.22862 1.28747,1.60938 2.41408,1.60938 4.66718,1.44845 2.25315,0 6.75941,-1.60939 6.75941,-1.60939 0,0 14.00165,-38.30334 14.64543,-47.31589 0.64374,-9.01255 3.21874,-24.14076 7.08126,-24.94545 3.86252,-0.64376 49.40812,6.59847 55.2019,-7.24223 5.63282,-14.00164 -2.09223,-26.07202 -2.09223,-26.07202 z"
           id="path2179" />
        <path
           style="fill:#ffffff;fill-opacity:1;fill-rule:nonzero;stroke:none;stroke-width:0.482815"
           d="m 889.83413,595.90488 c -2.41408,1.60939 -8.8516,2.57502 -16.09383,2.73596 -13.03601,0.48281 -29.45173,-1.12657 -32.67051,-4.02346 -0.80466,-0.8047 -1.28748,-2.09221 -1.28748,-3.86252 -0.48281,-4.9891 1.93127,-13.19696 3.54063,-20.11731 1.12656,-4.34533 1.77034,-8.20786 1.28753,-10.30005 -1.77034,-5.95473 -7.4032,-18.02511 -7.88602,-22.04857 -0.48281,-4.02346 4.34534,-25.42827 10.94383,-28.16422 6.59849,-2.57501 32.02673,0 32.02673,0 9.97819,2.0922 10.46101,23.33607 7.0813,41.36117 0,0.48282 -0.16092,0.96563 -0.16092,1.44845 -3.7016,18.34698 9.97815,38.30334 3.21874,42.97055 z"
           id="path2181" />
        <path
           style="fill:#9f616a;fill-opacity:1;fill-rule:nonzero;stroke:none;stroke-width:0.482815"
           d="m 852.01362,512.05597 c 0.16092,1.12657 3.3797,3.05783 10.30004,1.12657 6.43757,-1.60938 7.24223,-3.70158 7.24223,-5.15003 0,-1.77032 -2.89689,-3.86252 -2.73592,-14.16258 -0.80471,0.16094 -0.80471,0.16094 -0.80471,0.16094 -13.19693,2.57501 -13.19693,2.57501 -13.19693,2.57501 0,0 0.32184,4.1844 0.32184,8.04692 0,3.37971 -1.44845,5.47191 -1.12655,7.40317 z"
           id="path2183" />
        <path
           style="fill:#9f616a;fill-opacity:1;fill-rule:nonzero;stroke:none;stroke-width:0.482815"
           d="m 852.81833,496.60588 c 0,0 0.32184,4.1844 0.32184,8.04692 7.4032,-0.16093 11.26572,-6.92035 12.87509,-10.62193 z"
           id="path2185" />
        <path
           style="fill:#9f616a;fill-opacity:1;fill-rule:nonzero;stroke:none;stroke-width:0.482815"
           d="m 850.40425,500.30747 c 0,0 17.38135,0.32188 17.38135,-10.62194 0,-10.78287 2.2531,-18.0251 -8.85165,-18.66885 -11.10475,-0.64376 -13.35785,3.54064 -14.16256,7.08129 -0.96563,3.70158 0.96563,21.88762 5.63286,22.2095 z"
           id="path2187" />
        <path
           style="fill:#163560;fill-opacity:1;fill-rule:nonzero;stroke:none;stroke-width:0.482815"
           d="m 851.04799,470.6948 c 0,0 4.66723,12.71413 12.07038,14.6454 7.24223,1.93126 10.46101,-0.16094 10.46101,-0.16094 0,0 -5.63286,-4.34534 -6.75941,-12.23132 0,0 -12.23135,-8.3688 -15.77198,-2.25314 z"
           id="path2189" />
        <path
           style="fill:#163560;fill-opacity:1;fill-rule:nonzero;stroke:none;stroke-width:0.482815"
           d="m 852.17454,471.82137 c 0,0 -3.54063,2.73595 -4.50626,5.4719 -0.80471,2.8969 -1.12655,8.52974 -2.89689,8.3688 0,0 -3.54063,-8.69067 0.48281,-13.51882 4.34534,-5.31097 6.92034,-0.32188 6.92034,-0.32188 z"
           id="path2191" />
        <path
           style="fill:#ffffff;fill-opacity:1;fill-rule:nonzero;stroke:none;stroke-width:0.482815"
           d="m 854.26677,493.70899 c 0,0 -0.32189,1.44845 -3.86252,1.12657 0,0 -2.89689,-0.16094 -2.73597,-1.60938 0,0 2.73597,-1.12657 6.59849,0.48281 z"
           id="path2193" />
        <path
           style="fill:#9f616a;fill-opacity:1;fill-rule:nonzero;stroke:none;stroke-width:0.482815"
           d="m 834.79319,691.5023 c -0.16092,2.89689 -4.02344,3.05783 -8.69067,2.73595 -4.50626,-0.32188 -3.37971,0.80469 -9.65631,1.12657 -6.43752,0.32188 -8.69067,-1.77032 -9.01252,-2.57502 -0.32189,-0.80469 2.73593,-1.60938 5.95471,-2.57501 0.48281,-0.16094 0.80471,-0.32188 1.28752,-0.32188 3.70155,-1.12656 5.95471,-4.02346 9.01252,-6.59847 2.89689,-2.41408 -2.575,-14.96728 -2.575,-14.96728 8.20786,-3.54064 8.20786,-3.54064 8.20786,-3.54064 0,0 1.12655,8.85161 2.73597,16.7376 0.48282,1.93126 1.93126,5.31096 2.25311,7.08128 0.32189,0.96563 0.48281,1.93126 0.48281,2.8969 z"
           id="path2195" />
        <path
           style="fill:#e0eafc;fill-opacity:1;fill-rule:nonzero;stroke:none;stroke-width:0.482815"
           d="m 889.83413,595.90488 c -2.41408,1.60939 -8.8516,2.57502 -16.09383,2.73596 -12.07038,-2.73596 -25.9111,-5.95472 -33.95799,-7.88598 -0.48281,-4.9891 1.93127,-13.19696 3.54063,-20.11731 9.65631,2.89689 23.81887,-6.92035 28.4861,-10.94381 5.15005,-4.02346 4.98908,-17.86416 4.98908,-17.86416 9.97819,9.6563 9.97819,9.6563 9.97819,9.6563 0,0.48282 -0.16092,0.96563 -0.16092,1.44845 -3.7016,18.34698 9.97815,38.30334 3.21874,42.97055 z"
           id="path2197" />
        <path
           style="fill:#163560;fill-opacity:1;fill-rule:nonzero;stroke:none;stroke-width:0.482815"
           d="m 826.10252,694.23825 c -4.50626,-0.32188 -3.37971,0.80469 -9.65631,1.12657 -6.43752,0.32188 -8.69067,-1.77032 -9.01252,-2.57502 -0.32189,-0.80469 2.73593,-1.60938 5.95471,-2.57501 0.16092,0 0.16092,0 0.16092,0 0,0 4.18442,2.0922 9.33446,1.28751 4.34534,-0.48282 8.5297,-2.41408 11.4266,-2.8969 0.32189,0.96563 0.48281,1.93126 0.48281,2.8969 -0.16092,2.89689 -4.02344,3.05783 -8.69067,2.73595 z"
           id="path2199" />
        <path
           style="fill:#1c468a;fill-opacity:1;fill-rule:nonzero;stroke:none;stroke-width:0.482815"
           d="m 875.18875,585.76576 c -14.32354,-1.12657 -57.29409,0.16094 -65.82379,5.79378 -10.62194,7.0813 14.8063,87.22862 14.8063,87.22862 8.04693,0 8.04693,0 8.04693,0 0,0 4.66723,-46.5112 1.77034,-55.84563 -2.73597,-8.52973 -4.50631,-11.58756 -0.48281,-11.90944 3.86252,-0.32187 52.46588,8.20786 57.29404,-6.11566 3.7016,-11.26568 -0.48282,-21.88762 -0.48282,-21.88762 0,0 -1.93126,3.70158 -15.12819,2.73595 z"
           id="path2201" />
        <path
           style="fill:#163560;fill-opacity:1;fill-rule:nonzero;stroke:none;stroke-width:0.482815"
           d="m 869.23404,464.25726 c 0,0 -0.80471,-4.50627 5.63281,-5.63284 6.2766,-1.28751 6.2766,12.07038 7.08131,15.45009 0.64374,3.21876 -1.12655,5.15002 -3.54063,5.31097 -2.41407,0.16093 -9.17349,-15.12822 -9.17349,-15.12822 z"
           id="path2203" />
        <path
           style="fill:#9f616a;fill-opacity:1;fill-rule:nonzero;stroke:none;stroke-width:0.482815"
           d="m 849.27765,580.77667 c 0,0 -9.17349,-0.96563 -11.26567,0 -1.93127,0.8047 -8.36879,6.75942 -7.08131,7.88598 1.1266,1.12658 7.08131,-1.93126 10.13912,-2.09219 2.89689,0 5.47194,0.96563 7.56412,0.32187 1.93126,-0.64375 4.02344,-1.77032 4.02344,-1.77032 z"
           id="path2205" />
        <path
           style="fill:#9f616a;fill-opacity:1;fill-rule:nonzero;stroke:none;stroke-width:0.482815"
           d="m 849.27765,580.77667 c 0,0 -4.66718,-1.44844 -6.11563,-2.57501 -0.16097,0 -0.48281,0 -0.48281,0.16094 -0.3219,0.64375 -0.48282,1.60938 1.28747,2.41407 2.41408,1.12657 5.31097,0 5.31097,0 z"
           id="path2207" />
        <path
           style="fill:#ffffff;fill-opacity:1;fill-rule:nonzero;stroke:none;stroke-width:0.482815"
           d="m 879.69501,510.12471 c 0,0 9.97819,0.80469 10.7829,8.69068 0.64374,6.11565 4.98908,48.44246 1.77029,52.14404 -8.69067,10.46099 -28.32512,13.51883 -39.59085,14.16258 0,0 -1.28747,-1.12657 -2.09218,-1.93126 -0.64374,-0.80469 -1.28752,-2.41408 -1.28752,-2.41408 0,0 30.73925,-16.25478 30.25643,-19.79542 -0.48281,-3.70159 -9.33441,-52.30498 0.16093,-50.85654 z"
           id="path2209" />
      </g>
    </g>
    <g
       id="g2460"
       transform="matrix(1.0261338,0,0,1.0261338,11.26984,-380.41502)"
       inkscape:export-filename="C:\Users\maria\Documents\2_TRAVAIL\0_ALTERNANCE\MAHA\6_DeveloppementWeb\landing_page\images\carousel\carousel-img-1bis.png"
       inkscape:export-xdpi="96"
       inkscape:export-ydpi="96">
      <path
         style="fill:#9f616a;fill-opacity:1;fill-rule:nonzero;stroke:none;stroke-width:0.271605"
         d="m 424.42802,768.98015 c -0.63374,0 -5.1605,7.42388 -8.05762,18.74076 -2.89713,11.40743 -8.96298,32.32104 -8.96298,32.32104 0,0 -9.95887,20.09879 -12.67491,22.81485 -2.62552,2.62551 -5.25104,-0.0905 -7.9671,0.72428 -0.8148,0.27161 -3.44033,2.44445 -3.44033,2.44445 0,0 -4.61729,10.04939 -3.89301,10.77367 0.63375,0.72429 7.78602,2.62552 12.85599,0.99589 4.97943,-1.62963 28.15641,-28.8807 28.15641,-28.8807 0,0 19.01239,-58.93836 3.98355,-59.93424 z"
         id="path2389" />
      <path
         style="fill:#184655;fill-opacity:1;fill-rule:nonzero;stroke:none;stroke-width:0.271605"
         d="m 445.79431,716.56032 c 0,0 7.33334,-0.0906 12.4033,2.71604 4.97944,2.89714 6.33746,9.68727 6.428,14.9383 0.18107,6.88067 -2.08231,13.76134 -6.33746,19.10291 -4.34569,5.43211 -11.86009,7.78603 -11.86009,7.78603 -21.18522,-13.48974 -21.18522,-13.48974 -21.18522,-13.48974 0,0 -2.44444,-6.24692 -0.72428,-14.66669 1.8107,-8.41976 1.35803,-17.74487 21.27575,-16.38685 z"
         id="path2391" />
      <path
         style="fill:#9f616a;fill-opacity:1;fill-rule:nonzero;stroke:none;stroke-width:0.271605"
         d="m 410.12348,934.84047 c 0,0 -6.9712,10.04939 -7.51441,11.40742 -0.45269,1.35803 -3.89302,10.50207 -3.89302,10.50207 -26.88892,-13.03705 -26.88892,-13.03705 -26.88892,-13.03705 20.55146,-6.24692 20.55146,-6.24692 20.55146,-6.24692 4.16462,-8.96298 4.16462,-8.96298 4.16462,-8.96298 z"
         id="path2393" />
      <path
         style="fill:#163560;fill-opacity:1;fill-rule:nonzero;stroke:none;stroke-width:0.271605"
         d="m 445.34163,863.67987 c -21.90949,45.72023 -21.90949,45.72023 -21.90949,45.72023 -14.48561,28.79017 -14.48561,28.79017 -14.48561,28.79017 0,0 -12.76546,-4.8889 -15.93419,-8.05763 10.321,-36.39511 10.321,-36.39511 10.321,-36.39511 11.8601,-42.09882 11.8601,-42.09882 11.8601,-42.09882 24.80662,-2.17285 24.80662,-2.17285 24.80662,-2.17285 z"
         id="path2395" />
      <path
         style="fill:#9f616a;fill-opacity:1;fill-rule:nonzero;stroke:none;stroke-width:0.271605"
         d="m 465.98364,939.45776 c 0,0 -0.99588,6.79013 -0.99588,7.24281 0,0.36214 1.53909,6.88067 1.72016,8.60084 0.2716,1.8107 0,3.16871 0,3.16871 -25.44037,-6.06583 -25.44037,-6.06583 -25.44037,-6.06583 0,0 3.80247,-2.53499 7.15227,-4.34569 3.44034,-1.90124 3.89302,-10.86421 3.89302,-10.86421 z"
         id="path2397" />
      <path
         style="fill:#163560;fill-opacity:1;fill-rule:nonzero;stroke:none;stroke-width:0.271605"
         d="m 469.60504,851.63871 c 0,0 -4.43621,27.43213 -3.80247,36.66672 0.90535,13.12759 4.34568,18.19756 1.90124,52.78196 -17.74488,0 -17.74488,0 -17.74488,0 0,0 -1.2675,-18.55969 -3.98355,-32.95477 -2.80659,-14.39509 -8.7819,-38.47742 -8.7819,-38.47742 -9.86834,-22.18111 -9.86834,-22.18111 -9.86834,-22.18111 z"
         id="path2399" />
      <path
         style="fill:#9f616a;fill-opacity:1;fill-rule:nonzero;stroke:none;stroke-width:0.271605"
         d="m 459.28404,748.60974 c -0.81482,2.71605 -2.98766,4.3457 -4.79836,3.80248 -1.8107,-0.54321 -2.62552,-3.25926 -1.72016,-5.88478 0.81481,-2.71605 2.98765,-4.43622 4.79835,-3.80248 1.81071,0.54321 2.62552,3.16874 1.72017,5.88478 z"
         id="path2401" />
      <path
         style="fill:#9f616a;fill-opacity:1;fill-rule:nonzero;stroke:none;stroke-width:0.271605"
         d="m 429.22638,742.90604 c -0.2716,2.80659 -1.99177,4.88889 -3.893,4.79835 -1.90124,-0.18107 -3.25927,-2.62551 -2.98767,-5.43211 0.18108,-2.80659 1.99178,-4.88888 3.80248,-4.70782 1.90124,0.0905 3.25926,2.53499 3.07819,5.34158 z"
         id="path2403" />
      <path
         style="fill:#00a87b;fill-opacity:1;fill-rule:nonzero;stroke:none;stroke-width:0.271605"
         d="m 467.88488,773.95958 c 0,0 -2.08231,53.14411 0,63.10297 2.08231,9.95886 2.98765,16.38686 2.98765,16.38686 0,0 -28.42802,5.52264 -55.76962,-1.8107 0,0 4.07408,-18.46917 5.97531,-37.75314 1.8107,-19.37452 3.3498,-44.90542 3.3498,-44.90542 0,0 10.41154,-0.72429 18.37863,0 18.10702,1.62963 25.07823,4.97943 25.07823,4.97943 z"
         id="path2405" />
      <path
         style="fill:#9f616a;fill-opacity:1;fill-rule:nonzero;stroke:none;stroke-width:0.271605"
         d="m 450.95481,755.49041 c 0.81481,14.57616 0.81481,14.57616 0.81481,14.57616 0,0 -1.35803,7.96709 -9.32511,8.51029 -7.96709,0.45268 -5.61318,-16.74898 -5.61318,-16.74898 0.45268,-6.33747 0.45268,-6.33747 0.45268,-6.33747 z"
         id="path2407" />
      <path
         style="fill:#9f616a;fill-opacity:1;fill-rule:nonzero;stroke:none;stroke-width:0.271605"
         d="m 437.10294,766.44516 c -0.27161,0 -0.45267,0 -0.63375,0 0.0905,-2.62552 0.36214,-4.61728 0.36214,-4.61728 0.45268,-6.33747 0.45268,-6.33747 0.45268,-6.33747 13.6708,0 13.6708,0 13.6708,0 0.0906,2.17285 0.0906,2.17285 0.0906,2.17285 -1.72016,2.89712 -6.6996,8.7819 -13.9424,8.7819 z"
         id="path2409" />
      <path
         style="fill:#1c468a;fill-opacity:1;fill-rule:nonzero;stroke:none;stroke-width:0.271605"
         d="m 466.25524,949.95983 c 0,0 -0.90535,-0.90535 -4.16461,-0.63374 -3.3498,0.27161 -19.73666,2.08231 -20.46094,2.08231 -0.72428,0 -10.13993,7.15227 -10.50206,8.41975 -0.45269,1.35803 20.27986,0.45268 20.27986,0.45268 15.84364,0 15.84364,0 15.84364,0 0,0 1.44856,-4.70781 -0.99589,-10.321 z"
         id="path2411" />
      <path
         style="fill:#1c468a;fill-opacity:1;fill-rule:nonzero;stroke:none;stroke-width:0.271605"
         d="m 401.1605,949.5977 c 0,0 0.90535,0.72428 0.90535,1.5391 0,0.63373 -0.99588,4.52675 -2.08231,7.33332 -0.63374,1.62963 -2.62551,2.35392 -4.16461,1.53911 -28.51856,-15.75311 -28.51856,-15.75311 -28.51856,-15.75311 0,0 -1.99178,-1.8107 11.40742,-2.62552 z"
         id="path2413" />
      <path
         style="fill:#9f616a;fill-opacity:1;fill-rule:nonzero;stroke:none;stroke-width:0.271605"
         d="m 467.88488,773.95958 c 0,0 4.07407,1.8107 6.42799,7.33334 2.35391,5.43211 9.95886,30.32926 4.88889,45.17702 0,0 -2.35391,11.3169 -14.214,19.01237 -11.86011,7.78602 -32.50212,9.59673 -33.67907,8.41977 -1.17695,-1.17695 -1.26749,-3.16873 -1.26749,-4.43622 0,-1.35803 -2.71606,-1.99177 -2.71606,-3.80247 0,-1.72018 4.61729,-2.08231 9.86834,-2.08231 0,0 0.99588,-0.0906 -0.18108,-0.99589 -1.17695,-0.81481 -2.62551,-1.90124 -2.35391,-3.62141 0.18107,-1.62962 1.26749,-1.53909 2.26338,-0.54321 1.08642,0.99589 4.43622,3.80248 7.06174,2.98767 2.71606,-0.81482 18.55969,-13.76134 21.18522,-17.92596 0,0 -0.99589,-48.61735 2.71605,-49.5227 z"
         id="path2415" />
      <path
         style="fill:#9f616a;fill-opacity:1;fill-rule:nonzero;stroke:none;stroke-width:0.271605"
         d="m 388.39505,845.93499 c 0,0 -2.80659,1.81071 -4.43622,1.44857 -1.62963,-0.45268 -0.81481,-1.2675 -0.0906,-2.08232 0.81482,-0.72427 2.89711,-1.72016 2.89711,-1.72016 z"
         id="path2417" />
      <path
         style="fill:#9f616a;fill-opacity:1;fill-rule:nonzero;stroke:none;stroke-width:0.271605"
         d="m 443.712,724.16526 c 4.52676,0.63375 7.87656,3.89302 10.321,7.78602 4.70783,7.78602 0.81482,19.19345 -0.45267,21.81898 -1.35803,2.6255 -6.51853,9.41564 -14.30456,9.41564 -7.78601,0 -13.21811,-7.15228 -13.85187,-14.03294 -0.90534,-9.32512 1.53911,-20.91361 10.41155,-24.08235 2.35391,-0.90535 5.25103,-1.26748 7.87655,-0.90535 z"
         id="path2419" />
    </g>
    <g
       id="g3125-3-9"
       transform="matrix(1.4565506,0,0,1.4565506,345.89348,-248.31698)"
       inkscape:export-filename="C:\Users\maria\Documents\2_TRAVAIL\0_ALTERNANCE\MAHA\6_DeveloppementWeb\landing_page\images\carousel\carousel-img-1bis.png"
       inkscape:export-xdpi="96"
       inkscape:export-ydpi="96">
      <g
         id="g3104-2-7"
         transform="matrix(0.88115823,0,0,0.84713362,5.8942109,37.226304)">
        <path
           d="M 108.11876,265.33912 H 25.73981 c -4.548007,0 -8.237896,3.68989 -8.237896,8.23789 v 54.91931 c 0,4.54801 3.689889,8.2379 8.237896,8.2379 h 32.951583 l -2.745966,8.23789 H 43.588584 c -2.265421,0 -4.118949,1.85352 -4.118949,4.11895 0,2.26542 1.853528,4.11896 4.118949,4.11896 h 46.681404 c 2.274005,0 4.118954,-1.84496 4.118954,-4.11896 0,-2.27399 -1.844949,-4.11895 -4.118954,-4.11895 H 77.91315 l -2.74597,-8.23789 h 32.95158 c 4.54801,0 8.2379,-3.68989 8.2379,-8.2379 v -54.91931 c 0,-4.548 -3.68989,-8.23789 -8.2379,-8.23789 z m -2.74595,60.41124 H 28.485774 v -49.42738 h 76.887036 z"
           id="path2-6-9-4"
           style="fill:#ffffff;fill-opacity:1;stroke-width:0.171623" />
        <rect
           style="fill:#193863;fill-opacity:1;stroke-width:2.74748;stroke-linecap:round;stroke-linejoin:round;stroke-dashoffset:0.340159;paint-order:markers fill stroke"
           id="rect3085-0-1"
           width="89.529488"
           height="63.321449"
           x="22.164543"
           y="269.15219" />
      </g>
      <path
         d="m 73.133218,281.76479 c 0,3.75998 -5.03398,10.46047 -7.24453,13.15994 -0.53025,0.72308 -1.50812,0.72308 -2.03838,0 -2.21054,-2.69947 -7.24451,-9.39996 -7.24451,-13.15994 0,-4.56365 3.69801,-8.26372 8.2637,-8.26372 4.5657,0 8.26372,3.70007 8.26372,8.26372 z m -8.26372,2.20365 c 1.52191,0 2.75458,-1.23267 2.75458,-2.75458 0,-1.5212 -1.23267,-2.75456 -2.75458,-2.75456 -1.52189,0 -2.75456,1.23336 -2.75456,2.75456 0,1.52191 1.23267,2.75458 2.75456,2.75458 z m 9.47573,1.91443 c 0.0344,-0.0827 0.0689,-0.16528 0.10329,-0.2548 l 7.98826,-3.19531 c 1.08806,-0.43384 2.26563,0.36498 2.26563,1.53568 v 18.64844 c 0,0.67486 -0.41319,1.28087 -1.03985,1.53567 l -9.97843,3.98723 v -20.83831 c 0.24103,-0.47517 0.46139,-0.94344 0.6611,-1.4186 z m -18.95144,0 c 0.1997,0.47516 0.42007,0.94343 0.66109,1.4186 v 17.31246 l -8.75195,3.50519 c -1.0853,0.37187 -2.26633,-0.36498 -2.26633,-1.53567 v -18.64843 c 0,-0.67487 0.41147,-1.34285 1.03916,-1.53567 l 8.43656,-3.37435 c 0.16528,0.97787 0.50272,1.94885 0.88147,2.85787 z m 12.21652,10.41915 c 0.9572,-1.13626 2.45845,-3.08512 3.87017,-5.24057 v 17.16786 l -13.22194,-3.78065 v -13.38721 c 1.41171,2.15545 2.91296,4.10431 3.87017,5.24057 1.41172,1.82491 4.06988,1.82491 5.4816,0 z"
         id="path2-4-9"
         style="fill:#ffffff;fill-opacity:1;stroke-width:0.0688641" />
    </g>
  </g>
</svg>
